SplineFontDB: 3.2
FontName: PixelFont
FullName: PixelFont
FamilyName: PixelFont
Weight: Regular
Copyright: No Copyright
UComments: "2024-3-11: Created with FontForge (http://fontforge.org)"
Version: 001.000
ItalicAngle: 0
UnderlinePosition: 0
UnderlineWidth: 0
Ascent: 896
Descent: 128
InvalidEm: 0
LayerCount: 2
Layer: 0 0 "+BBcEMAQ0BD0EOAQ5 +BD8EOwQwBD0A" 1
Layer: 1 0 "+BB8ENQRABDUENAQ9BDgEOQAA +BD8EOwQwBD0A" 0
XUID: [1021 905 -1886942463 9335]
StyleMap: 0x0000
FSType: 0
OS2Version: 0
OS2_WeightWidthSlopeOnly: 0
OS2_UseTypoMetrics: 1
CreationTime: 1710176769
ModificationTime: 1710185904
OS2TypoAscent: 0
OS2TypoAOffset: 1
OS2TypoDescent: 0
OS2TypoDOffset: 1
OS2TypoLinegap: 92
OS2WinAscent: 0
OS2WinAOffset: 1
OS2WinDescent: 0
OS2WinDOffset: 1
HheadAscent: 0
HheadAOffset: 1
HheadDescent: 0
HheadDOffset: 1
MarkAttachClasses: 1
DEI: 91125
Encoding: UnicodeFull
UnicodeInterp: none
NameList: AGL For New Fonts
DisplaySize: -48
AntiAlias: 1
FitToEm: 0
WinInfo: 25 25 4
BeginPrivate: 0
EndPrivate
BeginChars: 1114112 153

StartChar: A
Encoding: 65 65 0
Width: 768
VWidth: -32768
Flags: W
LayerCount: 2
Fore
SplineSet
128 768 m 1
 256 768 l 1
 256 896 l 1
 128 896 l 1
 128 768 l 1
256 768 m 1
 384 768 l 1
 384 896 l 1
 256 896 l 1
 256 768 l 1
384 768 m 1
 512 768 l 1
 512 896 l 1
 384 896 l 1
 384 768 l 1
512 768 m 1
 640 768 l 1
 640 896 l 1
 512 896 l 1
 512 768 l 1
0 640 m 1
 128 640 l 1
 128 768 l 1
 0 768 l 1
 0 640 l 1
128 640 m 1
 256 640 l 1
 256 768 l 1
 128 768 l 1
 128 640 l 1
512 640 m 1
 640 640 l 1
 640 768 l 1
 512 768 l 1
 512 640 l 1
640 640 m 1
 768 640 l 1
 768 768 l 1
 640 768 l 1
 640 640 l 1
0 512 m 1
 128 512 l 1
 128 640 l 1
 0 640 l 1
 0 512 l 1
128 512 m 1
 256 512 l 1
 256 640 l 1
 128 640 l 1
 128 512 l 1
512 512 m 1
 640 512 l 1
 640 640 l 1
 512 640 l 1
 512 512 l 1
640 512 m 1
 768 512 l 1
 768 640 l 1
 640 640 l 1
 640 512 l 1
0 384 m 1
 128 384 l 1
 128 512 l 1
 0 512 l 1
 0 384 l 1
128 384 m 1
 256 384 l 1
 256 512 l 1
 128 512 l 1
 128 384 l 1
512 384 m 1
 640 384 l 1
 640 512 l 1
 512 512 l 1
 512 384 l 1
640 384 m 1
 768 384 l 1
 768 512 l 1
 640 512 l 1
 640 384 l 1
0 256 m 1
 128 256 l 1
 128 384 l 1
 0 384 l 1
 0 256 l 1
128 256 m 1
 256 256 l 1
 256 384 l 1
 128 384 l 1
 128 256 l 1
256 256 m 1
 384 256 l 1
 384 384 l 1
 256 384 l 1
 256 256 l 1
384 256 m 1
 512 256 l 1
 512 384 l 1
 384 384 l 1
 384 256 l 1
512 256 m 1
 640 256 l 1
 640 384 l 1
 512 384 l 1
 512 256 l 1
640 256 m 1
 768 256 l 1
 768 384 l 1
 640 384 l 1
 640 256 l 1
0 128 m 1
 128 128 l 1
 128 256 l 1
 0 256 l 1
 0 128 l 1
128 128 m 1
 256 128 l 1
 256 256 l 1
 128 256 l 1
 128 128 l 1
512 128 m 1
 640 128 l 1
 640 256 l 1
 512 256 l 1
 512 128 l 1
640 128 m 1
 768 128 l 1
 768 256 l 1
 640 256 l 1
 640 128 l 1
0 0 m 1
 128 0 l 1
 128 128 l 1
 0 128 l 1
 0 0 l 1
128 0 m 1
 256 0 l 1
 256 128 l 1
 128 128 l 1
 128 0 l 1
512 0 m 1
 640 0 l 1
 640 128 l 1
 512 128 l 1
 512 0 l 1
640 0 m 1
 768 0 l 1
 768 128 l 1
 640 128 l 1
 640 0 l 1
EndSplineSet
Validated: 5
EndChar

StartChar: B
Encoding: 66 66 1
Width: 768
VWidth: 896
Flags: W
LayerCount: 2
Fore
SplineSet
0 768 m 1
 128 768 l 1
 128 896 l 1
 0 896 l 1
 0 768 l 1
128 768 m 1
 256 768 l 1
 256 896 l 1
 128 896 l 1
 128 768 l 1
256 768 m 1
 384 768 l 1
 384 896 l 1
 256 896 l 1
 256 768 l 1
384 768 m 1
 512 768 l 1
 512 896 l 1
 384 896 l 1
 384 768 l 1
512 768 m 1
 640 768 l 1
 640 896 l 1
 512 896 l 1
 512 768 l 1
0 640 m 1
 128 640 l 1
 128 768 l 1
 0 768 l 1
 0 640 l 1
128 640 m 1
 256 640 l 1
 256 768 l 1
 128 768 l 1
 128 640 l 1
512 640 m 1
 640 640 l 1
 640 768 l 1
 512 768 l 1
 512 640 l 1
640 640 m 1
 768 640 l 1
 768 768 l 1
 640 768 l 1
 640 640 l 1
0 512 m 1
 128 512 l 1
 128 640 l 1
 0 640 l 1
 0 512 l 1
128 512 m 1
 256 512 l 1
 256 640 l 1
 128 640 l 1
 128 512 l 1
512 512 m 1
 640 512 l 1
 640 640 l 1
 512 640 l 1
 512 512 l 1
640 512 m 1
 768 512 l 1
 768 640 l 1
 640 640 l 1
 640 512 l 1
0 384 m 1
 128 384 l 1
 128 512 l 1
 0 512 l 1
 0 384 l 1
128 384 m 1
 256 384 l 1
 256 512 l 1
 128 512 l 1
 128 384 l 1
256 384 m 1
 384 384 l 1
 384 512 l 1
 256 512 l 1
 256 384 l 1
384 384 m 1
 512 384 l 1
 512 512 l 1
 384 512 l 1
 384 384 l 1
512 384 m 1
 640 384 l 1
 640 512 l 1
 512 512 l 1
 512 384 l 1
0 256 m 1
 128 256 l 1
 128 384 l 1
 0 384 l 1
 0 256 l 1
128 256 m 1
 256 256 l 1
 256 384 l 1
 128 384 l 1
 128 256 l 1
512 256 m 1
 640 256 l 1
 640 384 l 1
 512 384 l 1
 512 256 l 1
640 256 m 1
 768 256 l 1
 768 384 l 1
 640 384 l 1
 640 256 l 1
0 128 m 1
 128 128 l 1
 128 256 l 1
 0 256 l 1
 0 128 l 1
128 128 m 1
 256 128 l 1
 256 256 l 1
 128 256 l 1
 128 128 l 1
512 128 m 1
 640 128 l 1
 640 256 l 1
 512 256 l 1
 512 128 l 1
640 128 m 1
 768 128 l 1
 768 256 l 1
 640 256 l 1
 640 128 l 1
0 0 m 1
 128 0 l 1
 128 128 l 1
 0 128 l 1
 0 0 l 1
128 0 m 1
 256 0 l 1
 256 128 l 1
 128 128 l 1
 128 0 l 1
256 0 m 1
 384 0 l 1
 384 128 l 1
 256 128 l 1
 256 0 l 1
384 0 m 1
 512 0 l 1
 512 128 l 1
 384 128 l 1
 384 0 l 1
512 0 m 1
 640 0 l 1
 640 128 l 1
 512 128 l 1
 512 0 l 1
EndSplineSet
Validated: 5
EndChar

StartChar: C
Encoding: 67 67 2
Width: 768
VWidth: 896
Flags: W
LayerCount: 2
Fore
SplineSet
128 768 m 1
 256 768 l 1
 256 896 l 1
 128 896 l 1
 128 768 l 1
256 768 m 1
 384 768 l 1
 384 896 l 1
 256 896 l 1
 256 768 l 1
384 768 m 1
 512 768 l 1
 512 896 l 1
 384 896 l 1
 384 768 l 1
512 768 m 1
 640 768 l 1
 640 896 l 1
 512 896 l 1
 512 768 l 1
0 640 m 1
 128 640 l 1
 128 768 l 1
 0 768 l 1
 0 640 l 1
128 640 m 1
 256 640 l 1
 256 768 l 1
 128 768 l 1
 128 640 l 1
512 640 m 1
 640 640 l 1
 640 768 l 1
 512 768 l 1
 512 640 l 1
640 640 m 1
 768 640 l 1
 768 768 l 1
 640 768 l 1
 640 640 l 1
0 512 m 1
 128 512 l 1
 128 640 l 1
 0 640 l 1
 0 512 l 1
128 512 m 1
 256 512 l 1
 256 640 l 1
 128 640 l 1
 128 512 l 1
0 384 m 1
 128 384 l 1
 128 512 l 1
 0 512 l 1
 0 384 l 1
128 384 m 1
 256 384 l 1
 256 512 l 1
 128 512 l 1
 128 384 l 1
0 256 m 1
 128 256 l 1
 128 384 l 1
 0 384 l 1
 0 256 l 1
128 256 m 1
 256 256 l 1
 256 384 l 1
 128 384 l 1
 128 256 l 1
0 128 m 1
 128 128 l 1
 128 256 l 1
 0 256 l 1
 0 128 l 1
128 128 m 1
 256 128 l 1
 256 256 l 1
 128 256 l 1
 128 128 l 1
512 128 m 1
 640 128 l 1
 640 256 l 1
 512 256 l 1
 512 128 l 1
640 128 m 1
 768 128 l 1
 768 256 l 1
 640 256 l 1
 640 128 l 1
128 0 m 1
 256 0 l 1
 256 128 l 1
 128 128 l 1
 128 0 l 1
256 0 m 1
 384 0 l 1
 384 128 l 1
 256 128 l 1
 256 0 l 1
384 0 m 1
 512 0 l 1
 512 128 l 1
 384 128 l 1
 384 0 l 1
512 0 m 1
 640 0 l 1
 640 128 l 1
 512 128 l 1
 512 0 l 1
EndSplineSet
Validated: 5
EndChar

StartChar: D
Encoding: 68 68 3
Width: 768
VWidth: 896
Flags: W
LayerCount: 2
Fore
SplineSet
0 768 m 1
 128 768 l 1
 128 896 l 1
 0 896 l 1
 0 768 l 1
128 768 m 1
 256 768 l 1
 256 896 l 1
 128 896 l 1
 128 768 l 1
256 768 m 1
 384 768 l 1
 384 896 l 1
 256 896 l 1
 256 768 l 1
384 768 m 1
 512 768 l 1
 512 896 l 1
 384 896 l 1
 384 768 l 1
512 768 m 1
 640 768 l 1
 640 896 l 1
 512 896 l 1
 512 768 l 1
0 640 m 1
 128 640 l 1
 128 768 l 1
 0 768 l 1
 0 640 l 1
128 640 m 1
 256 640 l 1
 256 768 l 1
 128 768 l 1
 128 640 l 1
512 640 m 1
 640 640 l 1
 640 768 l 1
 512 768 l 1
 512 640 l 1
640 640 m 1
 768 640 l 1
 768 768 l 1
 640 768 l 1
 640 640 l 1
0 512 m 1
 128 512 l 1
 128 640 l 1
 0 640 l 1
 0 512 l 1
128 512 m 1
 256 512 l 1
 256 640 l 1
 128 640 l 1
 128 512 l 1
512 512 m 1
 640 512 l 1
 640 640 l 1
 512 640 l 1
 512 512 l 1
640 512 m 1
 768 512 l 1
 768 640 l 1
 640 640 l 1
 640 512 l 1
0 384 m 1
 128 384 l 1
 128 512 l 1
 0 512 l 1
 0 384 l 1
128 384 m 1
 256 384 l 1
 256 512 l 1
 128 512 l 1
 128 384 l 1
512 384 m 1
 640 384 l 1
 640 512 l 1
 512 512 l 1
 512 384 l 1
640 384 m 1
 768 384 l 1
 768 512 l 1
 640 512 l 1
 640 384 l 1
0 256 m 1
 128 256 l 1
 128 384 l 1
 0 384 l 1
 0 256 l 1
128 256 m 1
 256 256 l 1
 256 384 l 1
 128 384 l 1
 128 256 l 1
512 256 m 1
 640 256 l 1
 640 384 l 1
 512 384 l 1
 512 256 l 1
640 256 m 1
 768 256 l 1
 768 384 l 1
 640 384 l 1
 640 256 l 1
0 128 m 1
 128 128 l 1
 128 256 l 1
 0 256 l 1
 0 128 l 1
128 128 m 1
 256 128 l 1
 256 256 l 1
 128 256 l 1
 128 128 l 1
512 128 m 1
 640 128 l 1
 640 256 l 1
 512 256 l 1
 512 128 l 1
640 128 m 1
 768 128 l 1
 768 256 l 1
 640 256 l 1
 640 128 l 1
0 0 m 1
 128 0 l 1
 128 128 l 1
 0 128 l 1
 0 0 l 1
128 0 m 1
 256 0 l 1
 256 128 l 1
 128 128 l 1
 128 0 l 1
256 0 m 1
 384 0 l 1
 384 128 l 1
 256 128 l 1
 256 0 l 1
384 0 m 1
 512 0 l 1
 512 128 l 1
 384 128 l 1
 384 0 l 1
512 0 m 1
 640 0 l 1
 640 128 l 1
 512 128 l 1
 512 0 l 1
EndSplineSet
Validated: 5
EndChar

StartChar: percent
Encoding: 37 37 4
Width: 1664
VWidth: 896
Flags: HW
LayerCount: 2
Fore
SplineSet
128 768 m 1
 256 768 l 1
 256 896 l 1
 128 896 l 1
 128 768 l 1
256 768 m 1
 384 768 l 1
 384 896 l 1
 256 896 l 1
 256 768 l 1
384 768 m 1
 512 768 l 1
 512 896 l 1
 384 896 l 1
 384 768 l 1
896 768 m 1
 1024 768 l 1
 1024 896 l 1
 896 896 l 1
 896 768 l 1
1024 768 m 1
 1152 768 l 1
 1152 896 l 1
 1024 896 l 1
 1024 768 l 1
0 640 m 1
 128 640 l 1
 128 768 l 1
 0 768 l 1
 0 640 l 1
128 640 m 1
 256 640 l 1
 256 768 l 1
 128 768 l 1
 128 640 l 1
384 640 m 1
 512 640 l 1
 512 768 l 1
 384 768 l 1
 384 640 l 1
512 640 m 1
 640 640 l 1
 640 768 l 1
 512 768 l 1
 512 640 l 1
768 640 m 1
 896 640 l 1
 896 768 l 1
 768 768 l 1
 768 640 l 1
896 640 m 1
 1024 640 l 1
 1024 768 l 1
 896 768 l 1
 896 640 l 1
0 512 m 1
 128 512 l 1
 128 640 l 1
 0 640 l 1
 0 512 l 1
128 512 m 1
 256 512 l 1
 256 640 l 1
 128 640 l 1
 128 512 l 1
384 512 m 1
 512 512 l 1
 512 640 l 1
 384 640 l 1
 384 512 l 1
512 512 m 1
 640 512 l 1
 640 640 l 1
 512 640 l 1
 512 512 l 1
768 512 m 1
 896 512 l 1
 896 640 l 1
 768 640 l 1
 768 512 l 1
896 512 m 1
 1024 512 l 1
 1024 640 l 1
 896 640 l 1
 896 512 l 1
128 384 m 1
 256 384 l 1
 256 512 l 1
 128 512 l 1
 128 384 l 1
256 384 m 1
 384 384 l 1
 384 512 l 1
 256 512 l 1
 256 384 l 1
384 384 m 1
 512 384 l 1
 512 512 l 1
 384 512 l 1
 384 384 l 1
640 384 m 1
 768 384 l 1
 768 512 l 1
 640 512 l 1
 640 384 l 1
768 384 m 1
 896 384 l 1
 896 512 l 1
 768 512 l 1
 768 384 l 1
1024 384 m 1
 1152 384 l 1
 1152 512 l 1
 1024 512 l 1
 1024 384 l 1
1152 384 m 1
 1280 384 l 1
 1280 512 l 1
 1152 512 l 1
 1152 384 l 1
1280 384 m 1
 1408 384 l 1
 1408 512 l 1
 1280 512 l 1
 1280 384 l 1
512 256 m 1
 640 256 l 1
 640 384 l 1
 512 384 l 1
 512 256 l 1
640 256 m 1
 768 256 l 1
 768 384 l 1
 640 384 l 1
 640 256 l 1
896 256 m 1
 1024 256 l 1
 1024 384 l 1
 896 384 l 1
 896 256 l 1
1024 256 m 1
 1152 256 l 1
 1152 384 l 1
 1024 384 l 1
 1024 256 l 1
1280 256 m 1
 1408 256 l 1
 1408 384 l 1
 1280 384 l 1
 1280 256 l 1
1408 256 m 1
 1536 256 l 1
 1536 384 l 1
 1408 384 l 1
 1408 256 l 1
512 128 m 1
 640 128 l 1
 640 256 l 1
 512 256 l 1
 512 128 l 1
640 128 m 1
 768 128 l 1
 768 256 l 1
 640 256 l 1
 640 128 l 1
896 128 m 1
 1024 128 l 1
 1024 256 l 1
 896 256 l 1
 896 128 l 1
1024 128 m 1
 1152 128 l 1
 1152 256 l 1
 1024 256 l 1
 1024 128 l 1
1280 128 m 1
 1408 128 l 1
 1408 256 l 1
 1280 256 l 1
 1280 128 l 1
1408 128 m 1
 1536 128 l 1
 1536 256 l 1
 1408 256 l 1
 1408 128 l 1
384 0 m 1
 512 0 l 1
 512 128 l 1
 384 128 l 1
 384 0 l 1
512 0 m 1
 640 0 l 1
 640 128 l 1
 512 128 l 1
 512 0 l 1
1024 0 m 1
 1152 0 l 1
 1152 128 l 1
 1024 128 l 1
 1024 0 l 1
1152 0 m 1
 1280 0 l 1
 1280 128 l 1
 1152 128 l 1
 1152 0 l 1
1280 0 m 1
 1408 0 l 1
 1408 128 l 1
 1280 128 l 1
 1280 0 l 1
EndSplineSet
EndChar

StartChar: E
Encoding: 69 69 5
Width: 640
VWidth: 896
Flags: W
LayerCount: 2
Fore
SplineSet
0 768 m 1
 128 768 l 1
 128 896 l 1
 0 896 l 1
 0 768 l 1
128 768 m 1
 256 768 l 1
 256 896 l 1
 128 896 l 1
 128 768 l 1
256 768 m 1
 384 768 l 1
 384 896 l 1
 256 896 l 1
 256 768 l 1
384 768 m 1
 512 768 l 1
 512 896 l 1
 384 896 l 1
 384 768 l 1
512 768 m 1
 640 768 l 1
 640 896 l 1
 512 896 l 1
 512 768 l 1
0 640 m 1
 128 640 l 1
 128 768 l 1
 0 768 l 1
 0 640 l 1
128 640 m 1
 256 640 l 1
 256 768 l 1
 128 768 l 1
 128 640 l 1
0 512 m 1
 128 512 l 1
 128 640 l 1
 0 640 l 1
 0 512 l 1
128 512 m 1
 256 512 l 1
 256 640 l 1
 128 640 l 1
 128 512 l 1
0 384 m 1
 128 384 l 1
 128 512 l 1
 0 512 l 1
 0 384 l 1
128 384 m 1
 256 384 l 1
 256 512 l 1
 128 512 l 1
 128 384 l 1
256 384 m 1
 384 384 l 1
 384 512 l 1
 256 512 l 1
 256 384 l 1
384 384 m 1
 512 384 l 1
 512 512 l 1
 384 512 l 1
 384 384 l 1
0 256 m 1
 128 256 l 1
 128 384 l 1
 0 384 l 1
 0 256 l 1
128 256 m 1
 256 256 l 1
 256 384 l 1
 128 384 l 1
 128 256 l 1
0 128 m 1
 128 128 l 1
 128 256 l 1
 0 256 l 1
 0 128 l 1
128 128 m 1
 256 128 l 1
 256 256 l 1
 128 256 l 1
 128 128 l 1
0 0 m 1
 128 0 l 1
 128 128 l 1
 0 128 l 1
 0 0 l 1
128 0 m 1
 256 0 l 1
 256 128 l 1
 128 128 l 1
 128 0 l 1
256 0 m 1
 384 0 l 1
 384 128 l 1
 256 128 l 1
 256 0 l 1
384 0 m 1
 512 0 l 1
 512 128 l 1
 384 128 l 1
 384 0 l 1
512 0 m 1
 640 0 l 1
 640 128 l 1
 512 128 l 1
 512 0 l 1
EndSplineSet
Validated: 5
EndChar

StartChar: F
Encoding: 70 70 6
Width: 640
VWidth: 896
Flags: W
LayerCount: 2
Fore
SplineSet
0 768 m 1
 128 768 l 1
 128 896 l 1
 0 896 l 1
 0 768 l 1
128 768 m 1
 256 768 l 1
 256 896 l 1
 128 896 l 1
 128 768 l 1
256 768 m 1
 384 768 l 1
 384 896 l 1
 256 896 l 1
 256 768 l 1
384 768 m 1
 512 768 l 1
 512 896 l 1
 384 896 l 1
 384 768 l 1
512 768 m 1
 640 768 l 1
 640 896 l 1
 512 896 l 1
 512 768 l 1
0 640 m 1
 128 640 l 1
 128 768 l 1
 0 768 l 1
 0 640 l 1
128 640 m 1
 256 640 l 1
 256 768 l 1
 128 768 l 1
 128 640 l 1
0 512 m 1
 128 512 l 1
 128 640 l 1
 0 640 l 1
 0 512 l 1
128 512 m 1
 256 512 l 1
 256 640 l 1
 128 640 l 1
 128 512 l 1
0 384 m 1
 128 384 l 1
 128 512 l 1
 0 512 l 1
 0 384 l 1
128 384 m 1
 256 384 l 1
 256 512 l 1
 128 512 l 1
 128 384 l 1
256 384 m 1
 384 384 l 1
 384 512 l 1
 256 512 l 1
 256 384 l 1
384 384 m 1
 512 384 l 1
 512 512 l 1
 384 512 l 1
 384 384 l 1
0 256 m 1
 128 256 l 1
 128 384 l 1
 0 384 l 1
 0 256 l 1
128 256 m 1
 256 256 l 1
 256 384 l 1
 128 384 l 1
 128 256 l 1
0 128 m 1
 128 128 l 1
 128 256 l 1
 0 256 l 1
 0 128 l 1
128 128 m 1
 256 128 l 1
 256 256 l 1
 128 256 l 1
 128 128 l 1
0 0 m 1
 128 0 l 1
 128 128 l 1
 0 128 l 1
 0 0 l 1
128 0 m 1
 256 0 l 1
 256 128 l 1
 128 128 l 1
 128 0 l 1
EndSplineSet
Validated: 5
EndChar

StartChar: G
Encoding: 71 71 7
Width: 768
VWidth: 896
Flags: W
LayerCount: 2
Fore
SplineSet
128 768 m 1
 256 768 l 1
 256 896 l 1
 128 896 l 1
 128 768 l 1
256 768 m 1
 384 768 l 1
 384 896 l 1
 256 896 l 1
 256 768 l 1
384 768 m 1
 512 768 l 1
 512 896 l 1
 384 896 l 1
 384 768 l 1
512 768 m 1
 640 768 l 1
 640 896 l 1
 512 896 l 1
 512 768 l 1
0 640 m 1
 128 640 l 1
 128 768 l 1
 0 768 l 1
 0 640 l 1
128 640 m 1
 256 640 l 1
 256 768 l 1
 128 768 l 1
 128 640 l 1
512 640 m 1
 640 640 l 1
 640 768 l 1
 512 768 l 1
 512 640 l 1
640 640 m 1
 768 640 l 1
 768 768 l 1
 640 768 l 1
 640 640 l 1
0 512 m 1
 128 512 l 1
 128 640 l 1
 0 640 l 1
 0 512 l 1
128 512 m 1
 256 512 l 1
 256 640 l 1
 128 640 l 1
 128 512 l 1
0 384 m 1
 128 384 l 1
 128 512 l 1
 0 512 l 1
 0 384 l 1
128 384 m 1
 256 384 l 1
 256 512 l 1
 128 512 l 1
 128 384 l 1
384 384 m 1
 512 384 l 1
 512 512 l 1
 384 512 l 1
 384 384 l 1
512 384 m 1
 640 384 l 1
 640 512 l 1
 512 512 l 1
 512 384 l 1
640 384 m 1
 768 384 l 1
 768 512 l 1
 640 512 l 1
 640 384 l 1
0 256 m 1
 128 256 l 1
 128 384 l 1
 0 384 l 1
 0 256 l 1
128 256 m 1
 256 256 l 1
 256 384 l 1
 128 384 l 1
 128 256 l 1
512 256 m 1
 640 256 l 1
 640 384 l 1
 512 384 l 1
 512 256 l 1
640 256 m 1
 768 256 l 1
 768 384 l 1
 640 384 l 1
 640 256 l 1
0 128 m 1
 128 128 l 1
 128 256 l 1
 0 256 l 1
 0 128 l 1
128 128 m 1
 256 128 l 1
 256 256 l 1
 128 256 l 1
 128 128 l 1
512 128 m 1
 640 128 l 1
 640 256 l 1
 512 256 l 1
 512 128 l 1
640 128 m 1
 768 128 l 1
 768 256 l 1
 640 256 l 1
 640 128 l 1
128 0 m 1
 256 0 l 1
 256 128 l 1
 128 128 l 1
 128 0 l 1
256 0 m 1
 384 0 l 1
 384 128 l 1
 256 128 l 1
 256 0 l 1
384 0 m 1
 512 0 l 1
 512 128 l 1
 384 128 l 1
 384 0 l 1
512 0 m 1
 640 0 l 1
 640 128 l 1
 512 128 l 1
 512 0 l 1
EndSplineSet
Validated: 5
EndChar

StartChar: H
Encoding: 72 72 8
Width: 768
VWidth: 896
Flags: W
LayerCount: 2
Fore
SplineSet
0 768 m 1
 128 768 l 1
 128 896 l 1
 0 896 l 1
 0 768 l 1
128 768 m 1
 256 768 l 1
 256 896 l 1
 128 896 l 1
 128 768 l 1
512 768 m 1
 640 768 l 1
 640 896 l 1
 512 896 l 1
 512 768 l 1
640 768 m 1
 768 768 l 1
 768 896 l 1
 640 896 l 1
 640 768 l 1
0 640 m 1
 128 640 l 1
 128 768 l 1
 0 768 l 1
 0 640 l 1
128 640 m 1
 256 640 l 1
 256 768 l 1
 128 768 l 1
 128 640 l 1
512 640 m 1
 640 640 l 1
 640 768 l 1
 512 768 l 1
 512 640 l 1
640 640 m 1
 768 640 l 1
 768 768 l 1
 640 768 l 1
 640 640 l 1
0 512 m 1
 128 512 l 1
 128 640 l 1
 0 640 l 1
 0 512 l 1
128 512 m 1
 256 512 l 1
 256 640 l 1
 128 640 l 1
 128 512 l 1
512 512 m 1
 640 512 l 1
 640 640 l 1
 512 640 l 1
 512 512 l 1
640 512 m 1
 768 512 l 1
 768 640 l 1
 640 640 l 1
 640 512 l 1
0 384 m 1
 128 384 l 1
 128 512 l 1
 0 512 l 1
 0 384 l 1
128 384 m 1
 256 384 l 1
 256 512 l 1
 128 512 l 1
 128 384 l 1
256 384 m 1
 384 384 l 1
 384 512 l 1
 256 512 l 1
 256 384 l 1
384 384 m 1
 512 384 l 1
 512 512 l 1
 384 512 l 1
 384 384 l 1
512 384 m 1
 640 384 l 1
 640 512 l 1
 512 512 l 1
 512 384 l 1
640 384 m 1
 768 384 l 1
 768 512 l 1
 640 512 l 1
 640 384 l 1
0 256 m 1
 128 256 l 1
 128 384 l 1
 0 384 l 1
 0 256 l 1
128 256 m 1
 256 256 l 1
 256 384 l 1
 128 384 l 1
 128 256 l 1
512 256 m 1
 640 256 l 1
 640 384 l 1
 512 384 l 1
 512 256 l 1
640 256 m 1
 768 256 l 1
 768 384 l 1
 640 384 l 1
 640 256 l 1
0 128 m 1
 128 128 l 1
 128 256 l 1
 0 256 l 1
 0 128 l 1
128 128 m 1
 256 128 l 1
 256 256 l 1
 128 256 l 1
 128 128 l 1
512 128 m 1
 640 128 l 1
 640 256 l 1
 512 256 l 1
 512 128 l 1
640 128 m 1
 768 128 l 1
 768 256 l 1
 640 256 l 1
 640 128 l 1
0 0 m 1
 128 0 l 1
 128 128 l 1
 0 128 l 1
 0 0 l 1
128 0 m 1
 256 0 l 1
 256 128 l 1
 128 128 l 1
 128 0 l 1
512 0 m 1
 640 0 l 1
 640 128 l 1
 512 128 l 1
 512 0 l 1
640 0 m 1
 768 0 l 1
 768 128 l 1
 640 128 l 1
 640 0 l 1
EndSplineSet
Validated: 5
EndChar

StartChar: I
Encoding: 73 73 9
Width: 512
VWidth: 896
Flags: W
LayerCount: 2
Fore
SplineSet
0 768 m 1
 128 768 l 1
 128 896 l 1
 0 896 l 1
 0 768 l 1
128 768 m 1
 256 768 l 1
 256 896 l 1
 128 896 l 1
 128 768 l 1
256 768 m 1
 384 768 l 1
 384 896 l 1
 256 896 l 1
 256 768 l 1
384 768 m 1
 512 768 l 1
 512 896 l 1
 384 896 l 1
 384 768 l 1
128 640 m 1
 256 640 l 1
 256 768 l 1
 128 768 l 1
 128 640 l 1
256 640 m 1
 384 640 l 1
 384 768 l 1
 256 768 l 1
 256 640 l 1
128 512 m 1
 256 512 l 1
 256 640 l 1
 128 640 l 1
 128 512 l 1
256 512 m 1
 384 512 l 1
 384 640 l 1
 256 640 l 1
 256 512 l 1
128 384 m 1
 256 384 l 1
 256 512 l 1
 128 512 l 1
 128 384 l 1
256 384 m 1
 384 384 l 1
 384 512 l 1
 256 512 l 1
 256 384 l 1
128 256 m 1
 256 256 l 1
 256 384 l 1
 128 384 l 1
 128 256 l 1
256 256 m 1
 384 256 l 1
 384 384 l 1
 256 384 l 1
 256 256 l 1
128 128 m 1
 256 128 l 1
 256 256 l 1
 128 256 l 1
 128 128 l 1
256 128 m 1
 384 128 l 1
 384 256 l 1
 256 256 l 1
 256 128 l 1
0 0 m 1
 128 0 l 1
 128 128 l 1
 0 128 l 1
 0 0 l 1
128 0 m 1
 256 0 l 1
 256 128 l 1
 128 128 l 1
 128 0 l 1
256 0 m 1
 384 0 l 1
 384 128 l 1
 256 128 l 1
 256 0 l 1
384 0 m 1
 512 0 l 1
 512 128 l 1
 384 128 l 1
 384 0 l 1
EndSplineSet
Validated: 5
EndChar

StartChar: J
Encoding: 74 74 10
Width: 768
VWidth: 896
Flags: W
LayerCount: 2
Fore
SplineSet
384 768 m 1
 512 768 l 1
 512 896 l 1
 384 896 l 1
 384 768 l 1
512 768 m 1
 640 768 l 1
 640 896 l 1
 512 896 l 1
 512 768 l 1
640 768 m 1
 768 768 l 1
 768 896 l 1
 640 896 l 1
 640 768 l 1
512 640 m 1
 640 640 l 1
 640 768 l 1
 512 768 l 1
 512 640 l 1
640 640 m 1
 768 640 l 1
 768 768 l 1
 640 768 l 1
 640 640 l 1
512 512 m 1
 640 512 l 1
 640 640 l 1
 512 640 l 1
 512 512 l 1
640 512 m 1
 768 512 l 1
 768 640 l 1
 640 640 l 1
 640 512 l 1
512 384 m 1
 640 384 l 1
 640 512 l 1
 512 512 l 1
 512 384 l 1
640 384 m 1
 768 384 l 1
 768 512 l 1
 640 512 l 1
 640 384 l 1
512 256 m 1
 640 256 l 1
 640 384 l 1
 512 384 l 1
 512 256 l 1
640 256 m 1
 768 256 l 1
 768 384 l 1
 640 384 l 1
 640 256 l 1
0 128 m 1
 128 128 l 1
 128 256 l 1
 0 256 l 1
 0 128 l 1
128 128 m 1
 256 128 l 1
 256 256 l 1
 128 256 l 1
 128 128 l 1
512 128 m 1
 640 128 l 1
 640 256 l 1
 512 256 l 1
 512 128 l 1
640 128 m 1
 768 128 l 1
 768 256 l 1
 640 256 l 1
 640 128 l 1
128 0 m 1
 256 0 l 1
 256 128 l 1
 128 128 l 1
 128 0 l 1
256 0 m 1
 384 0 l 1
 384 128 l 1
 256 128 l 1
 256 0 l 1
384 0 m 1
 512 0 l 1
 512 128 l 1
 384 128 l 1
 384 0 l 1
512 0 m 1
 640 0 l 1
 640 128 l 1
 512 128 l 1
 512 0 l 1
EndSplineSet
Validated: 5
EndChar

StartChar: K
Encoding: 75 75 11
Width: 768
VWidth: 896
Flags: W
LayerCount: 2
Fore
SplineSet
0 768 m 1
 128 768 l 1
 128 896 l 1
 0 896 l 1
 0 768 l 1
128 768 m 1
 256 768 l 1
 256 896 l 1
 128 896 l 1
 128 768 l 1
512 768 m 1
 640 768 l 1
 640 896 l 1
 512 896 l 1
 512 768 l 1
640 768 m 1
 768 768 l 1
 768 896 l 1
 640 896 l 1
 640 768 l 1
0 640 m 1
 128 640 l 1
 128 768 l 1
 0 768 l 1
 0 640 l 1
128 640 m 1
 256 640 l 1
 256 768 l 1
 128 768 l 1
 128 640 l 1
384 640 m 1
 512 640 l 1
 512 768 l 1
 384 768 l 1
 384 640 l 1
512 640 m 1
 640 640 l 1
 640 768 l 1
 512 768 l 1
 512 640 l 1
0 512 m 1
 128 512 l 1
 128 640 l 1
 0 640 l 1
 0 512 l 1
128 512 m 1
 256 512 l 1
 256 640 l 1
 128 640 l 1
 128 512 l 1
256 512 m 1
 384 512 l 1
 384 640 l 1
 256 640 l 1
 256 512 l 1
384 512 m 1
 512 512 l 1
 512 640 l 1
 384 640 l 1
 384 512 l 1
0 384 m 1
 128 384 l 1
 128 512 l 1
 0 512 l 1
 0 384 l 1
128 384 m 1
 256 384 l 1
 256 512 l 1
 128 512 l 1
 128 384 l 1
256 384 m 1
 384 384 l 1
 384 512 l 1
 256 512 l 1
 256 384 l 1
0 256 m 1
 128 256 l 1
 128 384 l 1
 0 384 l 1
 0 256 l 1
128 256 m 1
 256 256 l 1
 256 384 l 1
 128 384 l 1
 128 256 l 1
256 256 m 1
 384 256 l 1
 384 384 l 1
 256 384 l 1
 256 256 l 1
384 256 m 1
 512 256 l 1
 512 384 l 1
 384 384 l 1
 384 256 l 1
0 128 m 1
 128 128 l 1
 128 256 l 1
 0 256 l 1
 0 128 l 1
128 128 m 1
 256 128 l 1
 256 256 l 1
 128 256 l 1
 128 128 l 1
384 128 m 1
 512 128 l 1
 512 256 l 1
 384 256 l 1
 384 128 l 1
512 128 m 1
 640 128 l 1
 640 256 l 1
 512 256 l 1
 512 128 l 1
0 0 m 1
 128 0 l 1
 128 128 l 1
 0 128 l 1
 0 0 l 1
128 0 m 1
 256 0 l 1
 256 128 l 1
 128 128 l 1
 128 0 l 1
512 0 m 1
 640 0 l 1
 640 128 l 1
 512 128 l 1
 512 0 l 1
640 0 m 1
 768 0 l 1
 768 128 l 1
 640 128 l 1
 640 0 l 1
EndSplineSet
Validated: 5
EndChar

StartChar: L
Encoding: 76 76 12
Width: 640
VWidth: 896
Flags: W
LayerCount: 2
Fore
SplineSet
0 768 m 1
 128 768 l 1
 128 896 l 1
 0 896 l 1
 0 768 l 1
128 768 m 1
 256 768 l 1
 256 896 l 1
 128 896 l 1
 128 768 l 1
0 640 m 1
 128 640 l 1
 128 768 l 1
 0 768 l 1
 0 640 l 1
128 640 m 1
 256 640 l 1
 256 768 l 1
 128 768 l 1
 128 640 l 1
0 512 m 1
 128 512 l 1
 128 640 l 1
 0 640 l 1
 0 512 l 1
128 512 m 1
 256 512 l 1
 256 640 l 1
 128 640 l 1
 128 512 l 1
0 384 m 1
 128 384 l 1
 128 512 l 1
 0 512 l 1
 0 384 l 1
128 384 m 1
 256 384 l 1
 256 512 l 1
 128 512 l 1
 128 384 l 1
0 256 m 1
 128 256 l 1
 128 384 l 1
 0 384 l 1
 0 256 l 1
128 256 m 1
 256 256 l 1
 256 384 l 1
 128 384 l 1
 128 256 l 1
0 128 m 1
 128 128 l 1
 128 256 l 1
 0 256 l 1
 0 128 l 1
128 128 m 1
 256 128 l 1
 256 256 l 1
 128 256 l 1
 128 128 l 1
0 0 m 1
 128 0 l 1
 128 128 l 1
 0 128 l 1
 0 0 l 1
128 0 m 1
 256 0 l 1
 256 128 l 1
 128 128 l 1
 128 0 l 1
256 0 m 1
 384 0 l 1
 384 128 l 1
 256 128 l 1
 256 0 l 1
384 0 m 1
 512 0 l 1
 512 128 l 1
 384 128 l 1
 384 0 l 1
512 0 m 1
 640 0 l 1
 640 128 l 1
 512 128 l 1
 512 0 l 1
EndSplineSet
Validated: 5
EndChar

StartChar: M
Encoding: 77 77 13
Width: 1024
VWidth: 896
Flags: W
LayerCount: 2
Fore
SplineSet
0 768 m 1
 128 768 l 1
 128 896 l 1
 0 896 l 1
 0 768 l 1
768 768 m 1
 896 768 l 1
 896 896 l 1
 768 896 l 1
 768 768 l 1
0 640 m 1
 128 640 l 1
 128 768 l 1
 0 768 l 1
 0 640 l 1
128 640 m 1
 256 640 l 1
 256 768 l 1
 128 768 l 1
 128 640 l 1
640 640 m 1
 768 640 l 1
 768 768 l 1
 640 768 l 1
 640 640 l 1
768 640 m 1
 896 640 l 1
 896 768 l 1
 768 768 l 1
 768 640 l 1
0 512 m 1
 128 512 l 1
 128 640 l 1
 0 640 l 1
 0 512 l 1
128 512 m 1
 256 512 l 1
 256 640 l 1
 128 640 l 1
 128 512 l 1
256 512 m 1
 384 512 l 1
 384 640 l 1
 256 640 l 1
 256 512 l 1
512 512 m 1
 640 512 l 1
 640 640 l 1
 512 640 l 1
 512 512 l 1
640 512 m 1
 768 512 l 1
 768 640 l 1
 640 640 l 1
 640 512 l 1
768 512 m 1
 896 512 l 1
 896 640 l 1
 768 640 l 1
 768 512 l 1
0 384 m 1
 128 384 l 1
 128 512 l 1
 0 512 l 1
 0 384 l 1
128 384 m 1
 256 384 l 1
 256 512 l 1
 128 512 l 1
 128 384 l 1
256 384 m 1
 384 384 l 1
 384 512 l 1
 256 512 l 1
 256 384 l 1
384 384 m 1
 512 384 l 1
 512 512 l 1
 384 512 l 1
 384 384 l 1
512 384 m 1
 640 384 l 1
 640 512 l 1
 512 512 l 1
 512 384 l 1
640 384 m 1
 768 384 l 1
 768 512 l 1
 640 512 l 1
 640 384 l 1
768 384 m 1
 896 384 l 1
 896 512 l 1
 768 512 l 1
 768 384 l 1
0 256 m 1
 128 256 l 1
 128 384 l 1
 0 384 l 1
 0 256 l 1
128 256 m 1
 256 256 l 1
 256 384 l 1
 128 384 l 1
 128 256 l 1
384 256 m 1
 512 256 l 1
 512 384 l 1
 384 384 l 1
 384 256 l 1
640 256 m 1
 768 256 l 1
 768 384 l 1
 640 384 l 1
 640 256 l 1
768 256 m 1
 896 256 l 1
 896 384 l 1
 768 384 l 1
 768 256 l 1
0 128 m 1
 128 128 l 1
 128 256 l 1
 0 256 l 1
 0 128 l 1
128 128 m 1
 256 128 l 1
 256 256 l 1
 128 256 l 1
 128 128 l 1
640 128 m 1
 768 128 l 1
 768 256 l 1
 640 256 l 1
 640 128 l 1
768 128 m 1
 896 128 l 1
 896 256 l 1
 768 256 l 1
 768 128 l 1
0 0 m 1
 128 0 l 1
 128 128 l 1
 0 128 l 1
 0 0 l 1
128 0 m 1
 256 0 l 1
 256 128 l 1
 128 128 l 1
 128 0 l 1
640 0 m 1
 768 0 l 1
 768 128 l 1
 640 128 l 1
 640 0 l 1
768 0 m 1
 896 0 l 1
 896 128 l 1
 768 128 l 1
 768 0 l 1
EndSplineSet
Validated: 5
EndChar

StartChar: N
Encoding: 78 78 14
Width: 768
VWidth: 896
Flags: W
LayerCount: 2
Fore
SplineSet
0 768 m 1
 128 768 l 1
 128 896 l 1
 0 896 l 1
 0 768 l 1
512 768 m 1
 640 768 l 1
 640 896 l 1
 512 896 l 1
 512 768 l 1
640 768 m 1
 768 768 l 1
 768 896 l 1
 640 896 l 1
 640 768 l 1
0 640 m 1
 128 640 l 1
 128 768 l 1
 0 768 l 1
 0 640 l 1
128 640 m 1
 256 640 l 1
 256 768 l 1
 128 768 l 1
 128 640 l 1
512 640 m 1
 640 640 l 1
 640 768 l 1
 512 768 l 1
 512 640 l 1
640 640 m 1
 768 640 l 1
 768 768 l 1
 640 768 l 1
 640 640 l 1
0 512 m 1
 128 512 l 1
 128 640 l 1
 0 640 l 1
 0 512 l 1
128 512 m 1
 256 512 l 1
 256 640 l 1
 128 640 l 1
 128 512 l 1
256 512 m 1
 384 512 l 1
 384 640 l 1
 256 640 l 1
 256 512 l 1
512 512 m 1
 640 512 l 1
 640 640 l 1
 512 640 l 1
 512 512 l 1
640 512 m 1
 768 512 l 1
 768 640 l 1
 640 640 l 1
 640 512 l 1
0 384 m 1
 128 384 l 1
 128 512 l 1
 0 512 l 1
 0 384 l 1
128 384 m 1
 256 384 l 1
 256 512 l 1
 128 512 l 1
 128 384 l 1
256 384 m 1
 384 384 l 1
 384 512 l 1
 256 512 l 1
 256 384 l 1
384 384 m 1
 512 384 l 1
 512 512 l 1
 384 512 l 1
 384 384 l 1
512 384 m 1
 640 384 l 1
 640 512 l 1
 512 512 l 1
 512 384 l 1
640 384 m 1
 768 384 l 1
 768 512 l 1
 640 512 l 1
 640 384 l 1
0 256 m 1
 128 256 l 1
 128 384 l 1
 0 384 l 1
 0 256 l 1
128 256 m 1
 256 256 l 1
 256 384 l 1
 128 384 l 1
 128 256 l 1
384 256 m 1
 512 256 l 1
 512 384 l 1
 384 384 l 1
 384 256 l 1
512 256 m 1
 640 256 l 1
 640 384 l 1
 512 384 l 1
 512 256 l 1
640 256 m 1
 768 256 l 1
 768 384 l 1
 640 384 l 1
 640 256 l 1
0 128 m 1
 128 128 l 1
 128 256 l 1
 0 256 l 1
 0 128 l 1
128 128 m 1
 256 128 l 1
 256 256 l 1
 128 256 l 1
 128 128 l 1
512 128 m 1
 640 128 l 1
 640 256 l 1
 512 256 l 1
 512 128 l 1
640 128 m 1
 768 128 l 1
 768 256 l 1
 640 256 l 1
 640 128 l 1
0 0 m 1
 128 0 l 1
 128 128 l 1
 0 128 l 1
 0 0 l 1
128 0 m 1
 256 0 l 1
 256 128 l 1
 128 128 l 1
 128 0 l 1
640 0 m 1
 768 0 l 1
 768 128 l 1
 640 128 l 1
 640 0 l 1
EndSplineSet
Validated: 5
EndChar

StartChar: O
Encoding: 79 79 15
Width: 768
VWidth: 896
Flags: W
LayerCount: 2
Fore
SplineSet
128 768 m 1
 256 768 l 1
 256 896 l 1
 128 896 l 1
 128 768 l 1
256 768 m 1
 384 768 l 1
 384 896 l 1
 256 896 l 1
 256 768 l 1
384 768 m 1
 512 768 l 1
 512 896 l 1
 384 896 l 1
 384 768 l 1
512 768 m 1
 640 768 l 1
 640 896 l 1
 512 896 l 1
 512 768 l 1
0 640 m 1
 128 640 l 1
 128 768 l 1
 0 768 l 1
 0 640 l 1
128 640 m 1
 256 640 l 1
 256 768 l 1
 128 768 l 1
 128 640 l 1
512 640 m 1
 640 640 l 1
 640 768 l 1
 512 768 l 1
 512 640 l 1
640 640 m 1
 768 640 l 1
 768 768 l 1
 640 768 l 1
 640 640 l 1
0 512 m 1
 128 512 l 1
 128 640 l 1
 0 640 l 1
 0 512 l 1
128 512 m 1
 256 512 l 1
 256 640 l 1
 128 640 l 1
 128 512 l 1
512 512 m 1
 640 512 l 1
 640 640 l 1
 512 640 l 1
 512 512 l 1
640 512 m 1
 768 512 l 1
 768 640 l 1
 640 640 l 1
 640 512 l 1
0 384 m 1
 128 384 l 1
 128 512 l 1
 0 512 l 1
 0 384 l 1
128 384 m 1
 256 384 l 1
 256 512 l 1
 128 512 l 1
 128 384 l 1
512 384 m 1
 640 384 l 1
 640 512 l 1
 512 512 l 1
 512 384 l 1
640 384 m 1
 768 384 l 1
 768 512 l 1
 640 512 l 1
 640 384 l 1
0 256 m 1
 128 256 l 1
 128 384 l 1
 0 384 l 1
 0 256 l 1
128 256 m 1
 256 256 l 1
 256 384 l 1
 128 384 l 1
 128 256 l 1
512 256 m 1
 640 256 l 1
 640 384 l 1
 512 384 l 1
 512 256 l 1
640 256 m 1
 768 256 l 1
 768 384 l 1
 640 384 l 1
 640 256 l 1
0 128 m 1
 128 128 l 1
 128 256 l 1
 0 256 l 1
 0 128 l 1
128 128 m 1
 256 128 l 1
 256 256 l 1
 128 256 l 1
 128 128 l 1
512 128 m 1
 640 128 l 1
 640 256 l 1
 512 256 l 1
 512 128 l 1
640 128 m 1
 768 128 l 1
 768 256 l 1
 640 256 l 1
 640 128 l 1
128 0 m 1
 256 0 l 1
 256 128 l 1
 128 128 l 1
 128 0 l 1
256 0 m 1
 384 0 l 1
 384 128 l 1
 256 128 l 1
 256 0 l 1
384 0 m 1
 512 0 l 1
 512 128 l 1
 384 128 l 1
 384 0 l 1
512 0 m 1
 640 0 l 1
 640 128 l 1
 512 128 l 1
 512 0 l 1
EndSplineSet
Validated: 5
EndChar

StartChar: P
Encoding: 80 80 16
Width: 896
VWidth: 896
Flags: W
LayerCount: 2
Fore
SplineSet
0 768 m 1
 128 768 l 1
 128 896 l 1
 0 896 l 1
 0 768 l 1
128 768 m 1
 256 768 l 1
 256 896 l 1
 128 896 l 1
 128 768 l 1
256 768 m 1
 384 768 l 1
 384 896 l 1
 256 896 l 1
 256 768 l 1
384 768 m 1
 512 768 l 1
 512 896 l 1
 384 896 l 1
 384 768 l 1
512 768 m 1
 640 768 l 1
 640 896 l 1
 512 896 l 1
 512 768 l 1
0 640 m 1
 128 640 l 1
 128 768 l 1
 0 768 l 1
 0 640 l 1
128 640 m 1
 256 640 l 1
 256 768 l 1
 128 768 l 1
 128 640 l 1
512 640 m 1
 640 640 l 1
 640 768 l 1
 512 768 l 1
 512 640 l 1
640 640 m 1
 768 640 l 1
 768 768 l 1
 640 768 l 1
 640 640 l 1
0 512 m 1
 128 512 l 1
 128 640 l 1
 0 640 l 1
 0 512 l 1
128 512 m 1
 256 512 l 1
 256 640 l 1
 128 640 l 1
 128 512 l 1
512 512 m 1
 640 512 l 1
 640 640 l 1
 512 640 l 1
 512 512 l 1
640 512 m 1
 768 512 l 1
 768 640 l 1
 640 640 l 1
 640 512 l 1
0 384 m 1
 128 384 l 1
 128 512 l 1
 0 512 l 1
 0 384 l 1
128 384 m 1
 256 384 l 1
 256 512 l 1
 128 512 l 1
 128 384 l 1
512 384 m 1
 640 384 l 1
 640 512 l 1
 512 512 l 1
 512 384 l 1
640 384 m 1
 768 384 l 1
 768 512 l 1
 640 512 l 1
 640 384 l 1
0 256 m 1
 128 256 l 1
 128 384 l 1
 0 384 l 1
 0 256 l 1
128 256 m 1
 256 256 l 1
 256 384 l 1
 128 384 l 1
 128 256 l 1
256 256 m 1
 384 256 l 1
 384 384 l 1
 256 384 l 1
 256 256 l 1
384 256 m 1
 512 256 l 1
 512 384 l 1
 384 384 l 1
 384 256 l 1
512 256 m 1
 640 256 l 1
 640 384 l 1
 512 384 l 1
 512 256 l 1
0 128 m 1
 128 128 l 1
 128 256 l 1
 0 256 l 1
 0 128 l 1
128 128 m 1
 256 128 l 1
 256 256 l 1
 128 256 l 1
 128 128 l 1
0 0 m 1
 128 0 l 1
 128 128 l 1
 0 128 l 1
 0 0 l 1
128 0 m 1
 256 0 l 1
 256 128 l 1
 128 128 l 1
 128 0 l 1
EndSplineSet
Validated: 5
EndChar

StartChar: Q
Encoding: 81 81 17
Width: 896
Flags: W
LayerCount: 2
Fore
SplineSet
128 768 m 1
 256 768 l 1
 256 896 l 1
 128 896 l 1
 128 768 l 1
256 768 m 1
 384 768 l 1
 384 896 l 1
 256 896 l 1
 256 768 l 1
384 768 m 1
 512 768 l 1
 512 896 l 1
 384 896 l 1
 384 768 l 1
512 768 m 1
 640 768 l 1
 640 896 l 1
 512 896 l 1
 512 768 l 1
0 640 m 1
 128 640 l 1
 128 768 l 1
 0 768 l 1
 0 640 l 1
128 640 m 1
 256 640 l 1
 256 768 l 1
 128 768 l 1
 128 640 l 1
512 640 m 1
 640 640 l 1
 640 768 l 1
 512 768 l 1
 512 640 l 1
640 640 m 1
 768 640 l 1
 768 768 l 1
 640 768 l 1
 640 640 l 1
0 512 m 1
 128 512 l 1
 128 640 l 1
 0 640 l 1
 0 512 l 1
128 512 m 1
 256 512 l 1
 256 640 l 1
 128 640 l 1
 128 512 l 1
512 512 m 1
 640 512 l 1
 640 640 l 1
 512 640 l 1
 512 512 l 1
640 512 m 1
 768 512 l 1
 768 640 l 1
 640 640 l 1
 640 512 l 1
0 384 m 1
 128 384 l 1
 128 512 l 1
 0 512 l 1
 0 384 l 1
128 384 m 1
 256 384 l 1
 256 512 l 1
 128 512 l 1
 128 384 l 1
512 384 m 1
 640 384 l 1
 640 512 l 1
 512 512 l 1
 512 384 l 1
640 384 m 1
 768 384 l 1
 768 512 l 1
 640 512 l 1
 640 384 l 1
0 256 m 1
 128 256 l 1
 128 384 l 1
 0 384 l 1
 0 256 l 1
128 256 m 1
 256 256 l 1
 256 384 l 1
 128 384 l 1
 128 256 l 1
512 256 m 1
 640 256 l 1
 640 384 l 1
 512 384 l 1
 512 256 l 1
640 256 m 1
 768 256 l 1
 768 384 l 1
 640 384 l 1
 640 256 l 1
0 128 m 1
 128 128 l 1
 128 256 l 1
 0 256 l 1
 0 128 l 1
128 128 m 1
 256 128 l 1
 256 256 l 1
 128 256 l 1
 128 128 l 1
384 128 m 1
 512 128 l 1
 512 256 l 1
 384 256 l 1
 384 128 l 1
512 128 m 1
 640 128 l 1
 640 256 l 1
 512 256 l 1
 512 128 l 1
128 0 m 1
 256 0 l 1
 256 128 l 1
 128 128 l 1
 128 0 l 1
256 0 m 1
 384 0 l 1
 384 128 l 1
 256 128 l 1
 256 0 l 1
384 0 m 1
 512 0 l 1
 512 128 l 1
 384 128 l 1
 384 0 l 1
640 0 m 1
 768 0 l 1
 768 128 l 1
 640 128 l 1
 640 0 l 1
EndSplineSet
Validated: 5
EndChar

StartChar: R
Encoding: 82 82 18
Width: 896
Flags: W
LayerCount: 2
Fore
SplineSet
0 768 m 1
 128 768 l 1
 128 896 l 1
 0 896 l 1
 0 768 l 1
128 768 m 1
 256 768 l 1
 256 896 l 1
 128 896 l 1
 128 768 l 1
256 768 m 1
 384 768 l 1
 384 896 l 1
 256 896 l 1
 256 768 l 1
384 768 m 1
 512 768 l 1
 512 896 l 1
 384 896 l 1
 384 768 l 1
512 768 m 1
 640 768 l 1
 640 896 l 1
 512 896 l 1
 512 768 l 1
0 640 m 1
 128 640 l 1
 128 768 l 1
 0 768 l 1
 0 640 l 1
128 640 m 1
 256 640 l 1
 256 768 l 1
 128 768 l 1
 128 640 l 1
512 640 m 1
 640 640 l 1
 640 768 l 1
 512 768 l 1
 512 640 l 1
640 640 m 1
 768 640 l 1
 768 768 l 1
 640 768 l 1
 640 640 l 1
0 512 m 1
 128 512 l 1
 128 640 l 1
 0 640 l 1
 0 512 l 1
128 512 m 1
 256 512 l 1
 256 640 l 1
 128 640 l 1
 128 512 l 1
512 512 m 1
 640 512 l 1
 640 640 l 1
 512 640 l 1
 512 512 l 1
640 512 m 1
 768 512 l 1
 768 640 l 1
 640 640 l 1
 640 512 l 1
0 384 m 1
 128 384 l 1
 128 512 l 1
 0 512 l 1
 0 384 l 1
128 384 m 1
 256 384 l 1
 256 512 l 1
 128 512 l 1
 128 384 l 1
256 384 m 1
 384 384 l 1
 384 512 l 1
 256 512 l 1
 256 384 l 1
384 384 m 1
 512 384 l 1
 512 512 l 1
 384 512 l 1
 384 384 l 1
512 384 m 1
 640 384 l 1
 640 512 l 1
 512 512 l 1
 512 384 l 1
0 256 m 1
 128 256 l 1
 128 384 l 1
 0 384 l 1
 0 256 l 1
128 256 m 1
 256 256 l 1
 256 384 l 1
 128 384 l 1
 128 256 l 1
512 256 m 1
 640 256 l 1
 640 384 l 1
 512 384 l 1
 512 256 l 1
640 256 m 1
 768 256 l 1
 768 384 l 1
 640 384 l 1
 640 256 l 1
0 128 m 1
 128 128 l 1
 128 256 l 1
 0 256 l 1
 0 128 l 1
128 128 m 1
 256 128 l 1
 256 256 l 1
 128 256 l 1
 128 128 l 1
512 128 m 1
 640 128 l 1
 640 256 l 1
 512 256 l 1
 512 128 l 1
640 128 m 1
 768 128 l 1
 768 256 l 1
 640 256 l 1
 640 128 l 1
0 0 m 1
 128 0 l 1
 128 128 l 1
 0 128 l 1
 0 0 l 1
128 0 m 1
 256 0 l 1
 256 128 l 1
 128 128 l 1
 128 0 l 1
512 0 m 1
 640 0 l 1
 640 128 l 1
 512 128 l 1
 512 0 l 1
640 0 m 1
 768 0 l 1
 768 128 l 1
 640 128 l 1
 640 0 l 1
EndSplineSet
Validated: 5
EndChar

StartChar: S
Encoding: 83 83 19
Width: 896
Flags: W
LayerCount: 2
Fore
SplineSet
128 768 m 1
 256 768 l 1
 256 896 l 1
 128 896 l 1
 128 768 l 1
256 768 m 1
 384 768 l 1
 384 896 l 1
 256 896 l 1
 256 768 l 1
384 768 m 1
 512 768 l 1
 512 896 l 1
 384 896 l 1
 384 768 l 1
512 768 m 1
 640 768 l 1
 640 896 l 1
 512 896 l 1
 512 768 l 1
0 640 m 1
 128 640 l 1
 128 768 l 1
 0 768 l 1
 0 640 l 1
128 640 m 1
 256 640 l 1
 256 768 l 1
 128 768 l 1
 128 640 l 1
512 640 m 1
 640 640 l 1
 640 768 l 1
 512 768 l 1
 512 640 l 1
640 640 m 1
 768 640 l 1
 768 768 l 1
 640 768 l 1
 640 640 l 1
0 512 m 1
 128 512 l 1
 128 640 l 1
 0 640 l 1
 0 512 l 1
128 512 m 1
 256 512 l 1
 256 640 l 1
 128 640 l 1
 128 512 l 1
128 384 m 1
 256 384 l 1
 256 512 l 1
 128 512 l 1
 128 384 l 1
256 384 m 1
 384 384 l 1
 384 512 l 1
 256 512 l 1
 256 384 l 1
384 384 m 1
 512 384 l 1
 512 512 l 1
 384 512 l 1
 384 384 l 1
512 384 m 1
 640 384 l 1
 640 512 l 1
 512 512 l 1
 512 384 l 1
512 256 m 1
 640 256 l 1
 640 384 l 1
 512 384 l 1
 512 256 l 1
640 256 m 1
 768 256 l 1
 768 384 l 1
 640 384 l 1
 640 256 l 1
0 128 m 1
 128 128 l 1
 128 256 l 1
 0 256 l 1
 0 128 l 1
128 128 m 1
 256 128 l 1
 256 256 l 1
 128 256 l 1
 128 128 l 1
512 128 m 1
 640 128 l 1
 640 256 l 1
 512 256 l 1
 512 128 l 1
640 128 m 1
 768 128 l 1
 768 256 l 1
 640 256 l 1
 640 128 l 1
128 0 m 1
 256 0 l 1
 256 128 l 1
 128 128 l 1
 128 0 l 1
256 0 m 1
 384 0 l 1
 384 128 l 1
 256 128 l 1
 256 0 l 1
384 0 m 1
 512 0 l 1
 512 128 l 1
 384 128 l 1
 384 0 l 1
512 0 m 1
 640 0 l 1
 640 128 l 1
 512 128 l 1
 512 0 l 1
EndSplineSet
Validated: 5
EndChar

StartChar: T
Encoding: 84 84 20
Width: 896
Flags: W
LayerCount: 2
Fore
SplineSet
0 768 m 1
 128 768 l 1
 128 896 l 1
 0 896 l 1
 0 768 l 1
128 768 m 1
 256 768 l 1
 256 896 l 1
 128 896 l 1
 128 768 l 1
256 768 m 1
 384 768 l 1
 384 896 l 1
 256 896 l 1
 256 768 l 1
384 768 m 1
 512 768 l 1
 512 896 l 1
 384 896 l 1
 384 768 l 1
512 768 m 1
 640 768 l 1
 640 896 l 1
 512 896 l 1
 512 768 l 1
640 768 m 1
 768 768 l 1
 768 896 l 1
 640 896 l 1
 640 768 l 1
256 640 m 1
 384 640 l 1
 384 768 l 1
 256 768 l 1
 256 640 l 1
384 640 m 1
 512 640 l 1
 512 768 l 1
 384 768 l 1
 384 640 l 1
256 512 m 1
 384 512 l 1
 384 640 l 1
 256 640 l 1
 256 512 l 1
384 512 m 1
 512 512 l 1
 512 640 l 1
 384 640 l 1
 384 512 l 1
256 384 m 1
 384 384 l 1
 384 512 l 1
 256 512 l 1
 256 384 l 1
384 384 m 1
 512 384 l 1
 512 512 l 1
 384 512 l 1
 384 384 l 1
256 256 m 1
 384 256 l 1
 384 384 l 1
 256 384 l 1
 256 256 l 1
384 256 m 1
 512 256 l 1
 512 384 l 1
 384 384 l 1
 384 256 l 1
256 128 m 1
 384 128 l 1
 384 256 l 1
 256 256 l 1
 256 128 l 1
384 128 m 1
 512 128 l 1
 512 256 l 1
 384 256 l 1
 384 128 l 1
256 0 m 1
 384 0 l 1
 384 128 l 1
 256 128 l 1
 256 0 l 1
384 0 m 1
 512 0 l 1
 512 128 l 1
 384 128 l 1
 384 0 l 1
EndSplineSet
Validated: 5
EndChar

StartChar: U
Encoding: 85 85 21
Width: 896
Flags: W
LayerCount: 2
Fore
SplineSet
0 768 m 1
 128 768 l 1
 128 896 l 1
 0 896 l 1
 0 768 l 1
128 768 m 1
 256 768 l 1
 256 896 l 1
 128 896 l 1
 128 768 l 1
512 768 m 1
 640 768 l 1
 640 896 l 1
 512 896 l 1
 512 768 l 1
640 768 m 1
 768 768 l 1
 768 896 l 1
 640 896 l 1
 640 768 l 1
0 640 m 1
 128 640 l 1
 128 768 l 1
 0 768 l 1
 0 640 l 1
128 640 m 1
 256 640 l 1
 256 768 l 1
 128 768 l 1
 128 640 l 1
512 640 m 1
 640 640 l 1
 640 768 l 1
 512 768 l 1
 512 640 l 1
640 640 m 1
 768 640 l 1
 768 768 l 1
 640 768 l 1
 640 640 l 1
0 512 m 1
 128 512 l 1
 128 640 l 1
 0 640 l 1
 0 512 l 1
128 512 m 1
 256 512 l 1
 256 640 l 1
 128 640 l 1
 128 512 l 1
512 512 m 1
 640 512 l 1
 640 640 l 1
 512 640 l 1
 512 512 l 1
640 512 m 1
 768 512 l 1
 768 640 l 1
 640 640 l 1
 640 512 l 1
0 384 m 1
 128 384 l 1
 128 512 l 1
 0 512 l 1
 0 384 l 1
128 384 m 1
 256 384 l 1
 256 512 l 1
 128 512 l 1
 128 384 l 1
512 384 m 1
 640 384 l 1
 640 512 l 1
 512 512 l 1
 512 384 l 1
640 384 m 1
 768 384 l 1
 768 512 l 1
 640 512 l 1
 640 384 l 1
0 256 m 1
 128 256 l 1
 128 384 l 1
 0 384 l 1
 0 256 l 1
128 256 m 1
 256 256 l 1
 256 384 l 1
 128 384 l 1
 128 256 l 1
512 256 m 1
 640 256 l 1
 640 384 l 1
 512 384 l 1
 512 256 l 1
640 256 m 1
 768 256 l 1
 768 384 l 1
 640 384 l 1
 640 256 l 1
0 128 m 1
 128 128 l 1
 128 256 l 1
 0 256 l 1
 0 128 l 1
128 128 m 1
 256 128 l 1
 256 256 l 1
 128 256 l 1
 128 128 l 1
512 128 m 1
 640 128 l 1
 640 256 l 1
 512 256 l 1
 512 128 l 1
640 128 m 1
 768 128 l 1
 768 256 l 1
 640 256 l 1
 640 128 l 1
128 0 m 1
 256 0 l 1
 256 128 l 1
 128 128 l 1
 128 0 l 1
256 0 m 1
 384 0 l 1
 384 128 l 1
 256 128 l 1
 256 0 l 1
384 0 m 1
 512 0 l 1
 512 128 l 1
 384 128 l 1
 384 0 l 1
512 0 m 1
 640 0 l 1
 640 128 l 1
 512 128 l 1
 512 0 l 1
EndSplineSet
Validated: 5
EndChar

StartChar: V
Encoding: 86 86 22
Width: 896
Flags: W
LayerCount: 2
Fore
SplineSet
0 768 m 1
 128 768 l 1
 128 896 l 1
 0 896 l 1
 0 768 l 1
128 768 m 1
 256 768 l 1
 256 896 l 1
 128 896 l 1
 128 768 l 1
512 768 m 1
 640 768 l 1
 640 896 l 1
 512 896 l 1
 512 768 l 1
640 768 m 1
 768 768 l 1
 768 896 l 1
 640 896 l 1
 640 768 l 1
0 640 m 1
 128 640 l 1
 128 768 l 1
 0 768 l 1
 0 640 l 1
128 640 m 1
 256 640 l 1
 256 768 l 1
 128 768 l 1
 128 640 l 1
512 640 m 1
 640 640 l 1
 640 768 l 1
 512 768 l 1
 512 640 l 1
640 640 m 1
 768 640 l 1
 768 768 l 1
 640 768 l 1
 640 640 l 1
0 512 m 1
 128 512 l 1
 128 640 l 1
 0 640 l 1
 0 512 l 1
128 512 m 1
 256 512 l 1
 256 640 l 1
 128 640 l 1
 128 512 l 1
512 512 m 1
 640 512 l 1
 640 640 l 1
 512 640 l 1
 512 512 l 1
640 512 m 1
 768 512 l 1
 768 640 l 1
 640 640 l 1
 640 512 l 1
0 384 m 1
 128 384 l 1
 128 512 l 1
 0 512 l 1
 0 384 l 1
128 384 m 1
 256 384 l 1
 256 512 l 1
 128 512 l 1
 128 384 l 1
512 384 m 1
 640 384 l 1
 640 512 l 1
 512 512 l 1
 512 384 l 1
640 384 m 1
 768 384 l 1
 768 512 l 1
 640 512 l 1
 640 384 l 1
0 256 m 1
 128 256 l 1
 128 384 l 1
 0 384 l 1
 0 256 l 1
128 256 m 1
 256 256 l 1
 256 384 l 1
 128 384 l 1
 128 256 l 1
512 256 m 1
 640 256 l 1
 640 384 l 1
 512 384 l 1
 512 256 l 1
640 256 m 1
 768 256 l 1
 768 384 l 1
 640 384 l 1
 640 256 l 1
128 128 m 1
 256 128 l 1
 256 256 l 1
 128 256 l 1
 128 128 l 1
256 128 m 1
 384 128 l 1
 384 256 l 1
 256 256 l 1
 256 128 l 1
384 128 m 1
 512 128 l 1
 512 256 l 1
 384 256 l 1
 384 128 l 1
512 128 m 1
 640 128 l 1
 640 256 l 1
 512 256 l 1
 512 128 l 1
256 0 m 1
 384 0 l 1
 384 128 l 1
 256 128 l 1
 256 0 l 1
384 0 m 1
 512 0 l 1
 512 128 l 1
 384 128 l 1
 384 0 l 1
EndSplineSet
Validated: 5
EndChar

StartChar: W
Encoding: 87 87 23
Width: 1152
Flags: W
LayerCount: 2
Fore
SplineSet
0 768 m 1
 128 768 l 1
 128 896 l 1
 0 896 l 1
 0 768 l 1
128 768 m 1
 256 768 l 1
 256 896 l 1
 128 896 l 1
 128 768 l 1
768 768 m 1
 896 768 l 1
 896 896 l 1
 768 896 l 1
 768 768 l 1
896 768 m 1
 1024 768 l 1
 1024 896 l 1
 896 896 l 1
 896 768 l 1
0 640 m 1
 128 640 l 1
 128 768 l 1
 0 768 l 1
 0 640 l 1
128 640 m 1
 256 640 l 1
 256 768 l 1
 128 768 l 1
 128 640 l 1
768 640 m 1
 896 640 l 1
 896 768 l 1
 768 768 l 1
 768 640 l 1
896 640 m 1
 1024 640 l 1
 1024 768 l 1
 896 768 l 1
 896 640 l 1
0 512 m 1
 128 512 l 1
 128 640 l 1
 0 640 l 1
 0 512 l 1
128 512 m 1
 256 512 l 1
 256 640 l 1
 128 640 l 1
 128 512 l 1
768 512 m 1
 896 512 l 1
 896 640 l 1
 768 640 l 1
 768 512 l 1
896 512 m 1
 1024 512 l 1
 1024 640 l 1
 896 640 l 1
 896 512 l 1
0 384 m 1
 128 384 l 1
 128 512 l 1
 0 512 l 1
 0 384 l 1
128 384 m 1
 256 384 l 1
 256 512 l 1
 128 512 l 1
 128 384 l 1
768 384 m 1
 896 384 l 1
 896 512 l 1
 768 512 l 1
 768 384 l 1
896 384 m 1
 1024 384 l 1
 1024 512 l 1
 896 512 l 1
 896 384 l 1
0 256 m 1
 128 256 l 1
 128 384 l 1
 0 384 l 1
 0 256 l 1
128 256 m 1
 256 256 l 1
 256 384 l 1
 128 384 l 1
 128 256 l 1
384 256 m 1
 512 256 l 1
 512 384 l 1
 384 384 l 1
 384 256 l 1
512 256 m 1
 640 256 l 1
 640 384 l 1
 512 384 l 1
 512 256 l 1
768 256 m 1
 896 256 l 1
 896 384 l 1
 768 384 l 1
 768 256 l 1
896 256 m 1
 1024 256 l 1
 1024 384 l 1
 896 384 l 1
 896 256 l 1
128 128 m 1
 256 128 l 1
 256 256 l 1
 128 256 l 1
 128 128 l 1
384 128 m 1
 512 128 l 1
 512 256 l 1
 384 256 l 1
 384 128 l 1
512 128 m 1
 640 128 l 1
 640 256 l 1
 512 256 l 1
 512 128 l 1
768 128 m 1
 896 128 l 1
 896 256 l 1
 768 256 l 1
 768 128 l 1
128 0 m 1
 256 0 l 1
 256 128 l 1
 128 128 l 1
 128 0 l 1
256 0 m 1
 384 0 l 1
 384 128 l 1
 256 128 l 1
 256 0 l 1
384 0 m 1
 512 0 l 1
 512 128 l 1
 384 128 l 1
 384 0 l 1
512 0 m 1
 640 0 l 1
 640 128 l 1
 512 128 l 1
 512 0 l 1
640 0 m 1
 768 0 l 1
 768 128 l 1
 640 128 l 1
 640 0 l 1
768 0 m 1
 896 0 l 1
 896 128 l 1
 768 128 l 1
 768 0 l 1
EndSplineSet
Validated: 5
EndChar

StartChar: X
Encoding: 88 88 24
Width: 896
Flags: W
LayerCount: 2
Fore
SplineSet
0 768 m 1
 128 768 l 1
 128 896 l 1
 0 896 l 1
 0 768 l 1
128 768 m 1
 256 768 l 1
 256 896 l 1
 128 896 l 1
 128 768 l 1
512 768 m 1
 640 768 l 1
 640 896 l 1
 512 896 l 1
 512 768 l 1
640 768 m 1
 768 768 l 1
 768 896 l 1
 640 896 l 1
 640 768 l 1
0 640 m 1
 128 640 l 1
 128 768 l 1
 0 768 l 1
 0 640 l 1
128 640 m 1
 256 640 l 1
 256 768 l 1
 128 768 l 1
 128 640 l 1
512 640 m 1
 640 640 l 1
 640 768 l 1
 512 768 l 1
 512 640 l 1
640 640 m 1
 768 640 l 1
 768 768 l 1
 640 768 l 1
 640 640 l 1
128 512 m 1
 256 512 l 1
 256 640 l 1
 128 640 l 1
 128 512 l 1
256 512 m 1
 384 512 l 1
 384 640 l 1
 256 640 l 1
 256 512 l 1
384 512 m 1
 512 512 l 1
 512 640 l 1
 384 640 l 1
 384 512 l 1
512 512 m 1
 640 512 l 5
 640 640 l 1
 512 640 l 1
 512 512 l 1
256 384 m 1
 384 384 l 1
 384 512 l 1
 256 512 l 1
 256 384 l 1
384 384 m 1
 512 384 l 1
 512 512 l 1
 384 512 l 1
 384 384 l 1
128 256 m 1
 256 256 l 1
 256 384 l 1
 128 384 l 1
 128 256 l 1
256 256 m 1
 384 256 l 1
 384 384 l 1
 256 384 l 1
 256 256 l 1
384 256 m 1
 512 256 l 1
 512 384 l 1
 384 384 l 1
 384 256 l 1
512 256 m 1
 640 256 l 1
 640 384 l 1
 512 384 l 1
 512 256 l 1
0 128 m 1
 128 128 l 1
 128 256 l 1
 0 256 l 1
 0 128 l 1
128 128 m 1
 256 128 l 1
 256 256 l 1
 128 256 l 1
 128 128 l 1
512 128 m 1
 640 128 l 1
 640 256 l 1
 512 256 l 1
 512 128 l 1
640 128 m 1
 768 128 l 1
 768 256 l 1
 640 256 l 1
 640 128 l 1
0 0 m 1
 128 0 l 1
 128 128 l 1
 0 128 l 1
 0 0 l 1
128 0 m 1
 256 0 l 1
 256 128 l 1
 128 128 l 1
 128 0 l 1
512 0 m 1
 640 0 l 1
 640 128 l 1
 512 128 l 1
 512 0 l 1
640 0 m 1
 768 0 l 1
 768 128 l 1
 640 128 l 1
 640 0 l 1
EndSplineSet
Validated: 5
EndChar

StartChar: Y
Encoding: 89 89 25
Width: 896
Flags: W
LayerCount: 2
Fore
SplineSet
0 768 m 1
 128 768 l 1
 128 896 l 1
 0 896 l 1
 0 768 l 1
128 768 m 1
 256 768 l 1
 256 896 l 1
 128 896 l 1
 128 768 l 1
512 768 m 1
 640 768 l 1
 640 896 l 1
 512 896 l 1
 512 768 l 1
640 768 m 1
 768 768 l 1
 768 896 l 1
 640 896 l 1
 640 768 l 1
0 640 m 1
 128 640 l 1
 128 768 l 1
 0 768 l 1
 0 640 l 1
128 640 m 1
 256 640 l 1
 256 768 l 1
 128 768 l 1
 128 640 l 1
512 640 m 1
 640 640 l 1
 640 768 l 1
 512 768 l 1
 512 640 l 1
640 640 m 1
 768 640 l 1
 768 768 l 1
 640 768 l 1
 640 640 l 1
0 512 m 1
 128 512 l 1
 128 640 l 1
 0 640 l 1
 0 512 l 1
128 512 m 1
 256 512 l 1
 256 640 l 1
 128 640 l 1
 128 512 l 1
512 512 m 1
 640 512 l 1
 640 640 l 1
 512 640 l 1
 512 512 l 1
640 512 m 1
 768 512 l 1
 768 640 l 1
 640 640 l 1
 640 512 l 1
128 384 m 1
 256 384 l 1
 256 512 l 1
 128 512 l 1
 128 384 l 1
256 384 m 1
 384 384 l 1
 384 512 l 1
 256 512 l 1
 256 384 l 1
384 384 m 1
 512 384 l 1
 512 512 l 1
 384 512 l 1
 384 384 l 1
512 384 m 1
 640 384 l 1
 640 512 l 1
 512 512 l 1
 512 384 l 1
640 384 m 1
 768 384 l 1
 768 512 l 1
 640 512 l 1
 640 384 l 1
512 256 m 1
 640 256 l 1
 640 384 l 1
 512 384 l 1
 512 256 l 1
640 256 m 1
 768 256 l 1
 768 384 l 1
 640 384 l 1
 640 256 l 1
512 128 m 1
 640 128 l 1
 640 256 l 1
 512 256 l 1
 512 128 l 1
640 128 m 1
 768 128 l 1
 768 256 l 1
 640 256 l 1
 640 128 l 1
128 0 m 1
 256 0 l 1
 256 128 l 1
 128 128 l 1
 128 0 l 1
256 0 m 1
 384 0 l 1
 384 128 l 1
 256 128 l 1
 256 0 l 1
384 0 m 1
 512 0 l 1
 512 128 l 1
 384 128 l 1
 384 0 l 1
512 0 m 1
 640 0 l 1
 640 128 l 1
 512 128 l 1
 512 0 l 1
EndSplineSet
Validated: 5
EndChar

StartChar: Z
Encoding: 90 90 26
Width: 768
Flags: W
LayerCount: 2
Fore
SplineSet
0 768 m 1
 128 768 l 1
 128 896 l 1
 0 896 l 1
 0 768 l 1
128 768 m 1
 256 768 l 1
 256 896 l 1
 128 896 l 1
 128 768 l 1
256 768 m 1
 384 768 l 1
 384 896 l 1
 256 896 l 1
 256 768 l 1
384 768 m 1
 512 768 l 1
 512 896 l 1
 384 896 l 1
 384 768 l 1
512 768 m 1
 640 768 l 1
 640 896 l 1
 512 896 l 1
 512 768 l 1
384 640 m 1
 512 640 l 1
 512 768 l 1
 384 768 l 1
 384 640 l 1
512 640 m 1
 640 640 l 1
 640 768 l 1
 512 768 l 1
 512 640 l 1
256 512 m 1
 384 512 l 1
 384 640 l 1
 256 640 l 1
 256 512 l 1
384 512 m 1
 512 512 l 1
 512 640 l 1
 384 640 l 1
 384 512 l 1
128 384 m 1
 256 384 l 1
 256 512 l 1
 128 512 l 1
 128 384 l 1
256 384 m 1
 384 384 l 1
 384 512 l 1
 256 512 l 1
 256 384 l 1
0 256 m 1
 128 256 l 1
 128 384 l 1
 0 384 l 1
 0 256 l 1
128 256 m 1
 256 256 l 1
 256 384 l 1
 128 384 l 1
 128 256 l 1
0 128 m 1
 128 128 l 1
 128 256 l 1
 0 256 l 1
 0 128 l 1
128 128 m 1
 256 128 l 1
 256 256 l 1
 128 256 l 1
 128 128 l 1
0 0 m 1
 128 0 l 1
 128 128 l 1
 0 128 l 1
 0 0 l 1
128 0 m 1
 256 0 l 1
 256 128 l 1
 128 128 l 1
 128 0 l 1
256 0 m 1
 384 0 l 1
 384 128 l 1
 256 128 l 1
 256 0 l 1
384 0 m 1
 512 0 l 1
 512 128 l 1
 384 128 l 1
 384 0 l 1
512 0 m 1
 640 0 l 1
 640 128 l 1
 512 128 l 1
 512 0 l 1
EndSplineSet
Validated: 5
EndChar

StartChar: exclam
Encoding: 33 33 27
Width: 384
Flags: W
VStem: 0 256
LayerCount: 2
Fore
SplineSet
0 768 m 1
 128 768 l 1
 128 896 l 1
 0 896 l 1
 0 768 l 1
128 768 m 1
 256 768 l 1
 256 896 l 1
 128 896 l 1
 128 768 l 1
0 640 m 1
 128 640 l 1
 128 768 l 1
 0 768 l 1
 0 640 l 1
128 640 m 1
 256 640 l 1
 256 768 l 1
 128 768 l 1
 128 640 l 1
0 512 m 1
 128 512 l 1
 128 640 l 1
 0 640 l 1
 0 512 l 1
128 512 m 1
 256 512 l 1
 256 640 l 1
 128 640 l 1
 128 512 l 1
0 384 m 1
 128 384 l 1
 128 512 l 1
 0 512 l 1
 0 384 l 1
128 384 m 1
 256 384 l 1
 256 512 l 1
 128 512 l 1
 128 384 l 1
0 256 m 1
 128 256 l 1
 128 384 l 1
 0 384 l 1
 0 256 l 1
128 256 m 1
 256 256 l 1
 256 384 l 1
 128 384 l 1
 128 256 l 1
0 0 m 1
 128 0 l 1
 128 128 l 1
 0 128 l 1
 0 0 l 1
128 0 m 1
 256 0 l 1
 256 128 l 1
 128 128 l 1
 128 0 l 1
EndSplineSet
Validated: 5
EndChar

StartChar: quotedbl
Encoding: 34 34 28
Width: 768
Flags: W
LayerCount: 2
Fore
SplineSet
0 768 m 1
 128 768 l 1
 128 896 l 1
 0 896 l 1
 0 768 l 1
128 768 m 1
 256 768 l 1
 256 896 l 1
 128 896 l 1
 128 768 l 1
384 768 m 1
 512 768 l 1
 512 896 l 1
 384 896 l 1
 384 768 l 1
512 768 m 1
 640 768 l 1
 640 896 l 1
 512 896 l 1
 512 768 l 1
0 640 m 1
 128 640 l 1
 128 768 l 1
 0 768 l 1
 0 640 l 1
128 640 m 1
 256 640 l 1
 256 768 l 1
 128 768 l 1
 128 640 l 1
384 640 m 1
 512 640 l 1
 512 768 l 1
 384 768 l 1
 384 640 l 1
512 640 m 1
 640 640 l 1
 640 768 l 1
 512 768 l 1
 512 640 l 1
EndSplineSet
Validated: 5
EndChar

StartChar: quotesingle
Encoding: 39 39 29
Width: 512
Flags: W
LayerCount: 2
Fore
SplineSet
128 768 m 1
 256 768 l 1
 256 896 l 1
 128 896 l 1
 128 768 l 1
256 768 m 1
 384 768 l 1
 384 896 l 1
 256 896 l 1
 256 768 l 1
128 640 m 1
 256 640 l 1
 256 768 l 1
 128 768 l 1
 128 640 l 1
256 640 m 1
 384 640 l 1
 384 768 l 1
 256 768 l 1
 256 640 l 1
0 512 m 1
 128 512 l 1
 128 640 l 1
 0 640 l 1
 0 512 l 1
128 512 m 1
 256 512 l 1
 256 640 l 1
 128 640 l 1
 128 512 l 1
EndSplineSet
Validated: 5
EndChar

StartChar: parenleft
Encoding: 40 40 30
Width: 640
Flags: W
LayerCount: 2
Fore
SplineSet
256 768 m 1
 384 768 l 1
 384 896 l 1
 256 896 l 1
 256 768 l 1
384 768 m 1
 512 768 l 1
 512 896 l 1
 384 896 l 1
 384 768 l 1
128 640 m 1
 256 640 l 1
 256 768 l 1
 128 768 l 1
 128 640 l 1
256 640 m 1
 384 640 l 1
 384 768 l 1
 256 768 l 1
 256 640 l 1
0 512 m 1
 128 512 l 1
 128 640 l 1
 0 640 l 1
 0 512 l 1
128 512 m 1
 256 512 l 1
 256 640 l 1
 128 640 l 1
 128 512 l 1
0 384 m 1
 128 384 l 1
 128 512 l 1
 0 512 l 1
 0 384 l 1
128 384 m 1
 256 384 l 1
 256 512 l 1
 128 512 l 1
 128 384 l 1
0 256 m 1
 128 256 l 1
 128 384 l 1
 0 384 l 1
 0 256 l 1
128 256 m 1
 256 256 l 1
 256 384 l 1
 128 384 l 1
 128 256 l 1
128 128 m 1
 256 128 l 1
 256 256 l 1
 128 256 l 1
 128 128 l 1
256 128 m 1
 384 128 l 1
 384 256 l 1
 256 256 l 1
 256 128 l 1
256 0 m 1
 384 0 l 1
 384 128 l 1
 256 128 l 1
 256 0 l 1
384 0 m 1
 512 0 l 1
 512 128 l 1
 384 128 l 1
 384 0 l 1
EndSplineSet
Validated: 5
EndChar

StartChar: parenright
Encoding: 41 41 31
Width: 640
Flags: W
LayerCount: 2
Fore
SplineSet
0 768 m 1
 128 768 l 1
 128 896 l 1
 0 896 l 1
 0 768 l 1
128 768 m 1
 256 768 l 1
 256 896 l 1
 128 896 l 1
 128 768 l 1
128 640 m 1
 256 640 l 1
 256 768 l 1
 128 768 l 1
 128 640 l 1
256 640 m 1
 384 640 l 1
 384 768 l 1
 256 768 l 1
 256 640 l 1
256 512 m 1
 384 512 l 1
 384 640 l 1
 256 640 l 1
 256 512 l 1
384 512 m 1
 512 512 l 1
 512 640 l 1
 384 640 l 1
 384 512 l 1
256 384 m 1
 384 384 l 1
 384 512 l 1
 256 512 l 1
 256 384 l 1
384 384 m 1
 512 384 l 1
 512 512 l 1
 384 512 l 1
 384 384 l 1
256 256 m 1
 384 256 l 1
 384 384 l 1
 256 384 l 1
 256 256 l 1
384 256 m 1
 512 256 l 1
 512 384 l 1
 384 384 l 1
 384 256 l 1
128 128 m 1
 256 128 l 1
 256 256 l 1
 128 256 l 1
 128 128 l 1
256 128 m 1
 384 128 l 1
 384 256 l 1
 256 256 l 1
 256 128 l 1
0 0 m 1
 128 0 l 1
 128 128 l 1
 0 128 l 1
 0 0 l 1
128 0 m 1
 256 0 l 1
 256 128 l 1
 128 128 l 1
 128 0 l 1
EndSplineSet
Validated: 5
EndChar

StartChar: asterisk
Encoding: 42 42 32
Width: 768
Flags: W
LayerCount: 2
Fore
SplineSet
0 512 m 5
 128 512 l 5
 128 640 l 5
 0 640 l 5
 0 512 l 5
128 512 m 5
 256 512 l 5
 256 640 l 5
 128 640 l 5
 128 512 l 5
384 512 m 5
 512 512 l 5
 512 640 l 5
 384 640 l 5
 384 512 l 5
512 512 m 5
 640 512 l 5
 640 640 l 5
 512 640 l 5
 512 512 l 5
0 384 m 5
 128 384 l 5
 128 512 l 5
 0 512 l 5
 0 384 l 5
128 384 m 5
 256 384 l 5
 256 512 l 5
 128 512 l 5
 128 384 l 5
384 384 m 5
 512 384 l 5
 512 512 l 5
 384 512 l 5
 384 384 l 5
512 384 m 5
 640 384 l 5
 640 512 l 5
 512 512 l 5
 512 384 l 5
128 256 m 5
 256 256 l 5
 256 384 l 5
 128 384 l 5
 128 256 l 5
256 256 m 5
 384 256 l 5
 384 384 l 5
 256 384 l 5
 256 256 l 5
384 256 m 5
 512 256 l 5
 512 384 l 5
 384 384 l 5
 384 256 l 5
0 128 m 5
 128 128 l 5
 128 256 l 5
 0 256 l 5
 0 128 l 5
128 128 m 5
 256 128 l 5
 256 256 l 5
 128 256 l 5
 128 128 l 5
384 128 m 5
 512 128 l 5
 512 256 l 5
 384 256 l 5
 384 128 l 5
512 128 m 5
 640 128 l 5
 640 256 l 5
 512 256 l 5
 512 128 l 5
0 0 m 5
 128 0 l 5
 128 128 l 5
 0 128 l 5
 0 0 l 5
128 0 m 5
 256 0 l 5
 256 128 l 5
 128 128 l 5
 128 0 l 5
384 0 m 5
 512 0 l 5
 512 128 l 5
 384 128 l 5
 384 0 l 5
512 0 m 5
 640 0 l 5
 640 128 l 5
 512 128 l 5
 512 0 l 5
EndSplineSet
Validated: 5
EndChar

StartChar: plus
Encoding: 43 43 33
Width: 896
Flags: W
LayerCount: 2
Fore
SplineSet
256 640 m 5
 384 640 l 5
 384 768 l 5
 256 768 l 5
 256 640 l 5
384 640 m 5
 512 640 l 5
 512 768 l 5
 384 768 l 5
 384 640 l 5
256 512 m 5
 384 512 l 5
 384 640 l 5
 256 640 l 5
 256 512 l 5
384 512 m 5
 512 512 l 5
 512 640 l 5
 384 640 l 5
 384 512 l 5
0 384 m 5
 128 384 l 5
 128 512 l 5
 0 512 l 5
 0 384 l 5
128 384 m 5
 256 384 l 5
 256 512 l 5
 128 512 l 5
 128 384 l 5
256 384 m 5
 384 384 l 5
 384 512 l 5
 256 512 l 5
 256 384 l 5
384 384 m 5
 512 384 l 5
 512 512 l 5
 384 512 l 5
 384 384 l 5
512 384 m 5
 640 384 l 5
 640 512 l 5
 512 512 l 5
 512 384 l 5
640 384 m 5
 768 384 l 5
 768 512 l 5
 640 512 l 5
 640 384 l 5
0 256 m 5
 128 256 l 5
 128 384 l 5
 0 384 l 5
 0 256 l 5
128 256 m 5
 256 256 l 5
 256 384 l 5
 128 384 l 5
 128 256 l 5
256 256 m 5
 384 256 l 5
 384 384 l 5
 256 384 l 5
 256 256 l 5
384 256 m 5
 512 256 l 5
 512 384 l 5
 384 384 l 5
 384 256 l 5
512 256 m 5
 640 256 l 5
 640 384 l 5
 512 384 l 5
 512 256 l 5
640 256 m 5
 768 256 l 5
 768 384 l 5
 640 384 l 5
 640 256 l 5
256 128 m 5
 384 128 l 5
 384 256 l 5
 256 256 l 5
 256 128 l 5
384 128 m 5
 512 128 l 5
 512 256 l 5
 384 256 l 5
 384 128 l 5
256 0 m 5
 384 0 l 5
 384 128 l 5
 256 128 l 5
 256 0 l 5
384 0 m 5
 512 0 l 5
 512 128 l 5
 384 128 l 5
 384 0 l 5
EndSplineSet
Validated: 5
EndChar

StartChar: comma
Encoding: 44 44 34
Width: 384
Flags: W
VStem: 0 256
LayerCount: 2
Fore
SplineSet
0 128 m 5
 128 128 l 5
 128 256 l 5
 0 256 l 5
 0 128 l 5
128 128 m 5
 256 128 l 5
 256 256 l 5
 128 256 l 5
 128 128 l 5
0 0 m 5
 128 0 l 5
 128 128 l 5
 0 128 l 5
 0 0 l 5
128 0 m 5
 256 0 l 5
 256 128 l 5
 128 128 l 5
 128 0 l 5
128 -128 m 5
 256 -128 l 5
 256 0 l 5
 128 0 l 5
 128 -128 l 5
EndSplineSet
Validated: 5
EndChar

StartChar: hyphen
Encoding: 45 45 35
Width: 640
Flags: W
LayerCount: 2
Fore
SplineSet
0 384 m 5
 128 384 l 5
 128 512 l 5
 0 512 l 5
 0 384 l 5
128 384 m 5
 256 384 l 5
 256 512 l 5
 128 512 l 5
 128 384 l 5
256 384 m 5
 384 384 l 5
 384 512 l 5
 256 512 l 5
 256 384 l 5
384 384 m 5
 512 384 l 5
 512 512 l 5
 384 512 l 5
 384 384 l 5
0 256 m 5
 128 256 l 5
 128 384 l 5
 0 384 l 5
 0 256 l 5
128 256 m 5
 256 256 l 5
 256 384 l 5
 128 384 l 5
 128 256 l 5
256 256 m 5
 384 256 l 5
 384 384 l 5
 256 384 l 5
 256 256 l 5
384 256 m 5
 512 256 l 5
 512 384 l 5
 384 384 l 5
 384 256 l 5
EndSplineSet
Validated: 5
EndChar

StartChar: period
Encoding: 46 46 36
Width: 384
Flags: W
VStem: 0 256
LayerCount: 2
Fore
SplineSet
0 128 m 5
 128 128 l 5
 128 256 l 5
 0 256 l 5
 0 128 l 5
128 128 m 5
 256 128 l 5
 256 256 l 5
 128 256 l 5
 128 128 l 5
0 0 m 5
 128 0 l 5
 128 128 l 5
 0 128 l 5
 0 0 l 5
128 0 m 5
 256 0 l 5
 256 128 l 5
 128 128 l 5
 128 0 l 5
EndSplineSet
Validated: 5
EndChar

StartChar: slash
Encoding: 47 47 37
Width: 896
Flags: W
LayerCount: 2
Fore
SplineSet
512 768 m 1
 640 768 l 1
 640 896 l 1
 512 896 l 1
 512 768 l 1
640 768 m 1
 768 768 l 1
 768 896 l 1
 640 896 l 1
 640 768 l 1
384 640 m 1
 512 640 l 1
 512 768 l 1
 384 768 l 1
 384 640 l 1
512 640 m 1
 640 640 l 1
 640 768 l 1
 512 768 l 1
 512 640 l 1
384 512 m 1
 512 512 l 1
 512 640 l 1
 384 640 l 1
 384 512 l 1
512 512 m 1
 640 512 l 1
 640 640 l 1
 512 640 l 1
 512 512 l 1
256 384 m 1
 384 384 l 1
 384 512 l 1
 256 512 l 1
 256 384 l 1
384 384 m 1
 512 384 l 1
 512 512 l 1
 384 512 l 1
 384 384 l 1
128 256 m 1
 256 256 l 1
 256 384 l 1
 128 384 l 1
 128 256 l 1
256 256 m 1
 384 256 l 1
 384 384 l 1
 256 384 l 1
 256 256 l 1
128 128 m 1
 256 128 l 1
 256 256 l 1
 128 256 l 1
 128 128 l 1
256 128 m 1
 384 128 l 1
 384 256 l 1
 256 256 l 1
 256 128 l 1
0 0 m 1
 128 0 l 1
 128 128 l 1
 0 128 l 1
 0 0 l 1
128 0 m 1
 256 0 l 1
 256 128 l 1
 128 128 l 1
 128 0 l 1
EndSplineSet
Validated: 5
EndChar

StartChar: zero
Encoding: 48 48 38
Width: 896
Flags: W
LayerCount: 2
Fore
SplineSet
128 768 m 1
 256 768 l 1
 256 896 l 1
 128 896 l 1
 128 768 l 1
256 768 m 1
 384 768 l 1
 384 896 l 1
 256 896 l 1
 256 768 l 1
384 768 m 1
 512 768 l 1
 512 896 l 1
 384 896 l 1
 384 768 l 1
512 768 m 1
 640 768 l 1
 640 896 l 1
 512 896 l 1
 512 768 l 1
0 640 m 1
 128 640 l 1
 128 768 l 1
 0 768 l 1
 0 640 l 1
128 640 m 1
 256 640 l 1
 256 768 l 1
 128 768 l 1
 128 640 l 1
512 640 m 1
 640 640 l 1
 640 768 l 1
 512 768 l 1
 512 640 l 1
640 640 m 1
 768 640 l 1
 768 768 l 1
 640 768 l 1
 640 640 l 1
0 512 m 1
 128 512 l 1
 128 640 l 1
 0 640 l 1
 0 512 l 1
128 512 m 1
 256 512 l 1
 256 640 l 1
 128 640 l 1
 128 512 l 1
512 512 m 1
 640 512 l 1
 640 640 l 1
 512 640 l 1
 512 512 l 1
640 512 m 1
 768 512 l 1
 768 640 l 1
 640 640 l 1
 640 512 l 1
0 384 m 1
 128 384 l 1
 128 512 l 1
 0 512 l 1
 0 384 l 1
128 384 m 1
 256 384 l 1
 256 512 l 1
 128 512 l 1
 128 384 l 1
512 384 m 1
 640 384 l 1
 640 512 l 1
 512 512 l 1
 512 384 l 1
640 384 m 1
 768 384 l 1
 768 512 l 1
 640 512 l 1
 640 384 l 1
0 256 m 1
 128 256 l 1
 128 384 l 1
 0 384 l 1
 0 256 l 1
128 256 m 1
 256 256 l 1
 256 384 l 1
 128 384 l 1
 128 256 l 1
512 256 m 1
 640 256 l 1
 640 384 l 1
 512 384 l 1
 512 256 l 1
640 256 m 1
 768 256 l 1
 768 384 l 1
 640 384 l 1
 640 256 l 1
0 128 m 1
 128 128 l 1
 128 256 l 1
 0 256 l 1
 0 128 l 1
128 128 m 1
 256 128 l 1
 256 256 l 1
 128 256 l 1
 128 128 l 1
512 128 m 1
 640 128 l 1
 640 256 l 1
 512 256 l 1
 512 128 l 1
640 128 m 1
 768 128 l 1
 768 256 l 1
 640 256 l 1
 640 128 l 1
128 0 m 1
 256 0 l 1
 256 128 l 1
 128 128 l 1
 128 0 l 1
256 0 m 1
 384 0 l 1
 384 128 l 1
 256 128 l 1
 256 0 l 1
384 0 m 1
 512 0 l 1
 512 128 l 1
 384 128 l 1
 384 0 l 1
512 0 m 1
 640 0 l 1
 640 128 l 1
 512 128 l 1
 512 0 l 1
EndSplineSet
Validated: 5
EndChar

StartChar: one
Encoding: 49 49 39
Width: 512
Flags: W
LayerCount: 2
Fore
SplineSet
128 768 m 1
 256 768 l 1
 256 896 l 1
 128 896 l 1
 128 768 l 1
256 768 m 1
 384 768 l 1
 384 896 l 1
 256 896 l 1
 256 768 l 1
0 640 m 1
 128 640 l 1
 128 768 l 1
 0 768 l 1
 0 640 l 1
128 640 m 1
 256 640 l 1
 256 768 l 1
 128 768 l 1
 128 640 l 1
256 640 m 1
 384 640 l 1
 384 768 l 1
 256 768 l 1
 256 640 l 1
128 512 m 1
 256 512 l 1
 256 640 l 1
 128 640 l 1
 128 512 l 1
256 512 m 1
 384 512 l 1
 384 640 l 1
 256 640 l 1
 256 512 l 1
128 384 m 1
 256 384 l 1
 256 512 l 1
 128 512 l 1
 128 384 l 1
256 384 m 1
 384 384 l 1
 384 512 l 1
 256 512 l 1
 256 384 l 1
128 256 m 1
 256 256 l 1
 256 384 l 1
 128 384 l 1
 128 256 l 1
256 256 m 1
 384 256 l 1
 384 384 l 1
 256 384 l 1
 256 256 l 1
128 128 m 1
 256 128 l 1
 256 256 l 1
 128 256 l 1
 128 128 l 1
256 128 m 1
 384 128 l 1
 384 256 l 1
 256 256 l 1
 256 128 l 1
128 0 m 1
 256 0 l 1
 256 128 l 1
 128 128 l 1
 128 0 l 1
256 0 m 1
 384 0 l 1
 384 128 l 1
 256 128 l 1
 256 0 l 1
EndSplineSet
Validated: 5
EndChar

StartChar: two
Encoding: 50 50 40
Width: 896
Flags: W
LayerCount: 2
Fore
SplineSet
128 768 m 1
 256 768 l 1
 256 896 l 1
 128 896 l 1
 128 768 l 1
256 768 m 1
 384 768 l 1
 384 896 l 1
 256 896 l 1
 256 768 l 1
384 768 m 1
 512 768 l 1
 512 896 l 1
 384 896 l 1
 384 768 l 1
512 768 m 1
 640 768 l 1
 640 896 l 1
 512 896 l 1
 512 768 l 1
0 640 m 1
 128 640 l 1
 128 768 l 1
 0 768 l 1
 0 640 l 1
128 640 m 1
 256 640 l 1
 256 768 l 1
 128 768 l 1
 128 640 l 1
512 640 m 1
 640 640 l 1
 640 768 l 1
 512 768 l 1
 512 640 l 1
640 640 m 1
 768 640 l 1
 768 768 l 1
 640 768 l 1
 640 640 l 1
512 512 m 1
 640 512 l 1
 640 640 l 1
 512 640 l 1
 512 512 l 1
640 512 m 1
 768 512 l 1
 768 640 l 1
 640 640 l 1
 640 512 l 1
384 384 m 1
 512 384 l 1
 512 512 l 1
 384 512 l 1
 384 384 l 1
512 384 m 1
 640 384 l 1
 640 512 l 1
 512 512 l 1
 512 384 l 1
256 256 m 1
 384 256 l 1
 384 384 l 1
 256 384 l 1
 256 256 l 1
384 256 m 1
 512 256 l 1
 512 384 l 1
 384 384 l 1
 384 256 l 1
128 128 m 1
 256 128 l 1
 256 256 l 1
 128 256 l 1
 128 128 l 1
256 128 m 1
 384 128 l 1
 384 256 l 1
 256 256 l 1
 256 128 l 1
0 0 m 1
 128 0 l 1
 128 128 l 1
 0 128 l 1
 0 0 l 1
128 0 m 1
 256 0 l 1
 256 128 l 1
 128 128 l 1
 128 0 l 1
256 0 m 1
 384 0 l 1
 384 128 l 1
 256 128 l 1
 256 0 l 1
384 0 m 1
 512 0 l 1
 512 128 l 1
 384 128 l 1
 384 0 l 1
512 0 m 1
 640 0 l 1
 640 128 l 1
 512 128 l 1
 512 0 l 1
640 0 m 1
 768 0 l 1
 768 128 l 1
 640 128 l 1
 640 0 l 1
EndSplineSet
Validated: 5
EndChar

StartChar: three
Encoding: 51 51 41
Width: 896
Flags: W
LayerCount: 2
Fore
SplineSet
128 768 m 1
 256 768 l 1
 256 896 l 1
 128 896 l 1
 128 768 l 1
256 768 m 1
 384 768 l 1
 384 896 l 1
 256 896 l 1
 256 768 l 1
384 768 m 1
 512 768 l 1
 512 896 l 1
 384 896 l 1
 384 768 l 1
512 768 m 1
 640 768 l 1
 640 896 l 1
 512 896 l 1
 512 768 l 1
0 640 m 1
 128 640 l 1
 128 768 l 1
 0 768 l 1
 0 640 l 1
128 640 m 1
 256 640 l 1
 256 768 l 1
 128 768 l 1
 128 640 l 1
512 640 m 1
 640 640 l 1
 640 768 l 1
 512 768 l 1
 512 640 l 1
640 640 m 1
 768 640 l 1
 768 768 l 1
 640 768 l 1
 640 640 l 1
512 512 m 1
 640 512 l 1
 640 640 l 1
 512 640 l 1
 512 512 l 1
640 512 m 1
 768 512 l 1
 768 640 l 1
 640 640 l 1
 640 512 l 1
256 384 m 1
 384 384 l 1
 384 512 l 1
 256 512 l 1
 256 384 l 1
384 384 m 1
 512 384 l 1
 512 512 l 1
 384 512 l 1
 384 384 l 1
512 384 m 1
 640 384 l 1
 640 512 l 1
 512 512 l 1
 512 384 l 1
512 256 m 1
 640 256 l 1
 640 384 l 1
 512 384 l 1
 512 256 l 1
640 256 m 1
 768 256 l 1
 768 384 l 1
 640 384 l 1
 640 256 l 1
0 128 m 1
 128 128 l 1
 128 256 l 1
 0 256 l 1
 0 128 l 1
128 128 m 1
 256 128 l 1
 256 256 l 1
 128 256 l 1
 128 128 l 1
512 128 m 1
 640 128 l 1
 640 256 l 1
 512 256 l 1
 512 128 l 1
640 128 m 1
 768 128 l 1
 768 256 l 1
 640 256 l 1
 640 128 l 1
128 0 m 1
 256 0 l 1
 256 128 l 1
 128 128 l 1
 128 0 l 1
256 0 m 1
 384 0 l 1
 384 128 l 1
 256 128 l 1
 256 0 l 1
384 0 m 1
 512 0 l 1
 512 128 l 1
 384 128 l 1
 384 0 l 1
512 0 m 1
 640 0 l 1
 640 128 l 1
 512 128 l 1
 512 0 l 1
EndSplineSet
Validated: 5
EndChar

StartChar: four
Encoding: 52 52 42
Width: 896
Flags: W
LayerCount: 2
Fore
SplineSet
384 768 m 1
 512 768 l 1
 512 896 l 1
 384 896 l 1
 384 768 l 1
512 768 m 1
 640 768 l 1
 640 896 l 1
 512 896 l 1
 512 768 l 1
256 640 m 1
 384 640 l 1
 384 768 l 1
 256 768 l 1
 256 640 l 1
384 640 m 1
 512 640 l 1
 512 768 l 1
 384 768 l 1
 384 640 l 1
512 640 m 1
 640 640 l 1
 640 768 l 1
 512 768 l 1
 512 640 l 1
128 512 m 1
 256 512 l 1
 256 640 l 1
 128 640 l 1
 128 512 l 1
256 512 m 1
 384 512 l 1
 384 640 l 1
 256 640 l 1
 256 512 l 1
384 512 m 1
 512 512 l 1
 512 640 l 1
 384 640 l 1
 384 512 l 1
512 512 m 1
 640 512 l 5
 640 640 l 1
 512 640 l 1
 512 512 l 1
0 384 m 1
 128 384 l 1
 128 512 l 1
 0 512 l 1
 0 384 l 1
128 384 m 1
 256 384 l 1
 256 512 l 1
 128 512 l 1
 128 384 l 1
384 384 m 1
 512 384 l 1
 512 512 l 1
 384 512 l 1
 384 384 l 1
512 384 m 1
 640 384 l 1
 640 512 l 1
 512 512 l 1
 512 384 l 1
0 256 m 1
 128 256 l 1
 128 384 l 1
 0 384 l 1
 0 256 l 1
128 256 m 1
 256 256 l 1
 256 384 l 1
 128 384 l 1
 128 256 l 1
256 256 m 1
 384 256 l 1
 384 384 l 1
 256 384 l 1
 256 256 l 1
384 256 m 1
 512 256 l 1
 512 384 l 1
 384 384 l 1
 384 256 l 1
512 256 m 1
 640 256 l 1
 640 384 l 1
 512 384 l 1
 512 256 l 1
640 256 m 1
 768 256 l 1
 768 384 l 1
 640 384 l 1
 640 256 l 1
384 128 m 1
 512 128 l 1
 512 256 l 1
 384 256 l 1
 384 128 l 1
512 128 m 1
 640 128 l 1
 640 256 l 1
 512 256 l 1
 512 128 l 1
384 0 m 1
 512 0 l 1
 512 128 l 1
 384 128 l 1
 384 0 l 1
512 0 m 1
 640 0 l 1
 640 128 l 1
 512 128 l 1
 512 0 l 1
EndSplineSet
Validated: 5
EndChar

StartChar: five
Encoding: 53 53 43
Width: 896
Flags: W
LayerCount: 2
Fore
SplineSet
0 768 m 1
 128 768 l 1
 128 896 l 1
 0 896 l 1
 0 768 l 1
128 768 m 1
 256 768 l 1
 256 896 l 1
 128 896 l 1
 128 768 l 1
256 768 m 1
 384 768 l 1
 384 896 l 1
 256 896 l 1
 256 768 l 1
384 768 m 1
 512 768 l 1
 512 896 l 1
 384 896 l 1
 384 768 l 1
512 768 m 1
 640 768 l 1
 640 896 l 1
 512 896 l 1
 512 768 l 1
640 768 m 1
 768 768 l 1
 768 896 l 1
 640 896 l 1
 640 768 l 1
0 640 m 1
 128 640 l 1
 128 768 l 1
 0 768 l 1
 0 640 l 1
128 640 m 1
 256 640 l 1
 256 768 l 1
 128 768 l 1
 128 640 l 1
0 512 m 1
 128 512 l 1
 128 640 l 1
 0 640 l 1
 0 512 l 1
128 512 m 1
 256 512 l 1
 256 640 l 1
 128 640 l 1
 128 512 l 1
0 384 m 1
 128 384 l 1
 128 512 l 1
 0 512 l 1
 0 384 l 1
128 384 m 1
 256 384 l 1
 256 512 l 1
 128 512 l 1
 128 384 l 1
256 384 m 1
 384 384 l 1
 384 512 l 1
 256 512 l 1
 256 384 l 1
384 384 m 1
 512 384 l 1
 512 512 l 1
 384 512 l 1
 384 384 l 1
512 384 m 1
 640 384 l 1
 640 512 l 1
 512 512 l 1
 512 384 l 1
512 256 m 1
 640 256 l 1
 640 384 l 1
 512 384 l 1
 512 256 l 1
640 256 m 1
 768 256 l 1
 768 384 l 1
 640 384 l 1
 640 256 l 1
0 128 m 1
 128 128 l 1
 128 256 l 1
 0 256 l 1
 0 128 l 1
128 128 m 1
 256 128 l 1
 256 256 l 1
 128 256 l 1
 128 128 l 1
512 128 m 1
 640 128 l 1
 640 256 l 1
 512 256 l 1
 512 128 l 1
640 128 m 1
 768 128 l 1
 768 256 l 1
 640 256 l 1
 640 128 l 1
0 0 m 1
 128 0 l 1
 128 128 l 1
 0 128 l 1
 0 0 l 1
128 0 m 1
 256 0 l 1
 256 128 l 1
 128 128 l 1
 128 0 l 1
256 0 m 1
 384 0 l 1
 384 128 l 1
 256 128 l 1
 256 0 l 1
384 0 m 1
 512 0 l 1
 512 128 l 1
 384 128 l 1
 384 0 l 1
512 0 m 1
 640 0 l 1
 640 128 l 1
 512 128 l 1
 512 0 l 1
EndSplineSet
Validated: 5
EndChar

StartChar: six
Encoding: 54 54 44
Width: 896
Flags: W
LayerCount: 2
Fore
SplineSet
128 768 m 1
 256 768 l 1
 256 896 l 1
 128 896 l 1
 128 768 l 1
256 768 m 1
 384 768 l 1
 384 896 l 1
 256 896 l 1
 256 768 l 1
384 768 m 1
 512 768 l 1
 512 896 l 1
 384 896 l 1
 384 768 l 1
512 768 m 1
 640 768 l 1
 640 896 l 1
 512 896 l 1
 512 768 l 1
0 640 m 1
 128 640 l 1
 128 768 l 1
 0 768 l 1
 0 640 l 1
128 640 m 1
 256 640 l 1
 256 768 l 1
 128 768 l 1
 128 640 l 1
512 640 m 1
 640 640 l 1
 640 768 l 1
 512 768 l 1
 512 640 l 1
640 640 m 1
 768 640 l 1
 768 768 l 1
 640 768 l 1
 640 640 l 1
0 512 m 1
 128 512 l 1
 128 640 l 1
 0 640 l 1
 0 512 l 1
128 512 m 1
 256 512 l 1
 256 640 l 1
 128 640 l 1
 128 512 l 1
0 384 m 1
 128 384 l 1
 128 512 l 1
 0 512 l 1
 0 384 l 1
128 384 m 1
 256 384 l 1
 256 512 l 1
 128 512 l 1
 128 384 l 1
256 384 m 1
 384 384 l 1
 384 512 l 1
 256 512 l 1
 256 384 l 1
384 384 m 1
 512 384 l 1
 512 512 l 1
 384 512 l 1
 384 384 l 1
512 384 m 1
 640 384 l 1
 640 512 l 1
 512 512 l 1
 512 384 l 1
0 256 m 1
 128 256 l 1
 128 384 l 1
 0 384 l 1
 0 256 l 1
128 256 m 1
 256 256 l 1
 256 384 l 1
 128 384 l 1
 128 256 l 1
512 256 m 1
 640 256 l 1
 640 384 l 1
 512 384 l 1
 512 256 l 1
640 256 m 1
 768 256 l 1
 768 384 l 1
 640 384 l 1
 640 256 l 1
0 128 m 1
 128 128 l 1
 128 256 l 1
 0 256 l 1
 0 128 l 1
128 128 m 1
 256 128 l 1
 256 256 l 1
 128 256 l 1
 128 128 l 1
512 128 m 1
 640 128 l 1
 640 256 l 1
 512 256 l 1
 512 128 l 1
640 128 m 1
 768 128 l 1
 768 256 l 1
 640 256 l 1
 640 128 l 1
128 0 m 1
 256 0 l 1
 256 128 l 1
 128 128 l 1
 128 0 l 1
256 0 m 1
 384 0 l 1
 384 128 l 1
 256 128 l 1
 256 0 l 1
384 0 m 1
 512 0 l 1
 512 128 l 1
 384 128 l 1
 384 0 l 1
512 0 m 1
 640 0 l 1
 640 128 l 1
 512 128 l 1
 512 0 l 1
EndSplineSet
Validated: 5
EndChar

StartChar: seven
Encoding: 55 55 45
Width: 768
Flags: W
LayerCount: 2
Fore
SplineSet
0 768 m 1
 128 768 l 1
 128 896 l 1
 0 896 l 1
 0 768 l 1
128 768 m 1
 256 768 l 1
 256 896 l 1
 128 896 l 1
 128 768 l 1
256 768 m 1
 384 768 l 1
 384 896 l 1
 256 896 l 1
 256 768 l 1
384 768 m 1
 512 768 l 1
 512 896 l 1
 384 896 l 1
 384 768 l 1
512 768 m 1
 640 768 l 1
 640 896 l 1
 512 896 l 1
 512 768 l 1
384 640 m 1
 512 640 l 1
 512 768 l 1
 384 768 l 1
 384 640 l 1
512 640 m 1
 640 640 l 1
 640 768 l 1
 512 768 l 1
 512 640 l 1
384 512 m 1
 512 512 l 1
 512 640 l 1
 384 640 l 1
 384 512 l 1
512 512 m 1
 640 512 l 1
 640 640 l 1
 512 640 l 1
 512 512 l 1
256 384 m 1
 384 384 l 1
 384 512 l 1
 256 512 l 1
 256 384 l 1
384 384 m 1
 512 384 l 1
 512 512 l 1
 384 512 l 1
 384 384 l 1
128 256 m 1
 256 256 l 1
 256 384 l 1
 128 384 l 1
 128 256 l 1
256 256 m 1
 384 256 l 1
 384 384 l 1
 256 384 l 1
 256 256 l 1
0 128 m 1
 128 128 l 1
 128 256 l 1
 0 256 l 1
 0 128 l 1
128 128 m 1
 256 128 l 1
 256 256 l 1
 128 256 l 1
 128 128 l 1
0 0 m 1
 128 0 l 1
 128 128 l 1
 0 128 l 1
 0 0 l 1
128 0 m 1
 256 0 l 1
 256 128 l 1
 128 128 l 1
 128 0 l 1
EndSplineSet
Validated: 5
EndChar

StartChar: eight
Encoding: 56 56 46
Width: 896
Flags: W
LayerCount: 2
Fore
SplineSet
128 768 m 5
 256 768 l 1
 256 896 l 1
 128 896 l 1
 128 768 l 5
256 768 m 1
 384 768 l 1
 384 896 l 1
 256 896 l 1
 256 768 l 1
384 768 m 1
 512 768 l 1
 512 896 l 1
 384 896 l 1
 384 768 l 1
512 768 m 1
 640 768 l 1
 640 896 l 1
 512 896 l 1
 512 768 l 1
0 640 m 1
 128 640 l 1
 128 768 l 1
 0 768 l 1
 0 640 l 1
128 640 m 1
 256 640 l 1
 256 768 l 1
 128 768 l 1
 128 640 l 1
512 640 m 1
 640 640 l 1
 640 768 l 1
 512 768 l 1
 512 640 l 1
640 640 m 1
 768 640 l 1
 768 768 l 1
 640 768 l 1
 640 640 l 1
0 512 m 1
 128 512 l 1
 128 640 l 1
 0 640 l 1
 0 512 l 1
128 512 m 1
 256 512 l 1
 256 640 l 1
 128 640 l 1
 128 512 l 1
512 512 m 1
 640 512 l 1
 640 640 l 1
 512 640 l 1
 512 512 l 1
640 512 m 1
 768 512 l 1
 768 640 l 1
 640 640 l 1
 640 512 l 1
128 384 m 1
 256 384 l 1
 256 512 l 1
 128 512 l 1
 128 384 l 1
256 384 m 1
 384 384 l 1
 384 512 l 1
 256 512 l 1
 256 384 l 1
384 384 m 1
 512 384 l 1
 512 512 l 1
 384 512 l 1
 384 384 l 1
512 384 m 1
 640 384 l 1
 640 512 l 1
 512 512 l 1
 512 384 l 1
0 256 m 1
 128 256 l 1
 128 384 l 1
 0 384 l 1
 0 256 l 1
128 256 m 1
 256 256 l 1
 256 384 l 1
 128 384 l 1
 128 256 l 1
512 256 m 1
 640 256 l 1
 640 384 l 1
 512 384 l 1
 512 256 l 1
640 256 m 1
 768 256 l 1
 768 384 l 1
 640 384 l 1
 640 256 l 1
0 128 m 1
 128 128 l 1
 128 256 l 1
 0 256 l 1
 0 128 l 1
128 128 m 1
 256 128 l 1
 256 256 l 1
 128 256 l 1
 128 128 l 1
512 128 m 1
 640 128 l 1
 640 256 l 1
 512 256 l 1
 512 128 l 1
640 128 m 1
 768 128 l 1
 768 256 l 1
 640 256 l 1
 640 128 l 1
128 0 m 1
 256 0 l 1
 256 128 l 1
 128 128 l 1
 128 0 l 1
256 0 m 1
 384 0 l 1
 384 128 l 1
 256 128 l 1
 256 0 l 1
384 0 m 1
 512 0 l 1
 512 128 l 1
 384 128 l 1
 384 0 l 1
512 0 m 1
 640 0 l 1
 640 128 l 1
 512 128 l 1
 512 0 l 1
EndSplineSet
Validated: 5
EndChar

StartChar: nine
Encoding: 57 57 47
Width: 896
Flags: W
LayerCount: 2
Fore
SplineSet
128 768 m 1
 256 768 l 1
 256 896 l 1
 128 896 l 1
 128 768 l 1
256 768 m 1
 384 768 l 1
 384 896 l 1
 256 896 l 1
 256 768 l 1
384 768 m 1
 512 768 l 1
 512 896 l 1
 384 896 l 1
 384 768 l 1
512 768 m 1
 640 768 l 1
 640 896 l 1
 512 896 l 1
 512 768 l 1
0 640 m 1
 128 640 l 1
 128 768 l 1
 0 768 l 1
 0 640 l 1
128 640 m 1
 256 640 l 1
 256 768 l 1
 128 768 l 1
 128 640 l 1
512 640 m 1
 640 640 l 1
 640 768 l 1
 512 768 l 1
 512 640 l 1
640 640 m 1
 768 640 l 1
 768 768 l 1
 640 768 l 1
 640 640 l 1
0 512 m 1
 128 512 l 1
 128 640 l 1
 0 640 l 1
 0 512 l 1
128 512 m 1
 256 512 l 1
 256 640 l 1
 128 640 l 1
 128 512 l 1
512 512 m 1
 640 512 l 1
 640 640 l 1
 512 640 l 1
 512 512 l 1
640 512 m 1
 768 512 l 1
 768 640 l 1
 640 640 l 1
 640 512 l 1
128 384 m 1
 256 384 l 1
 256 512 l 1
 128 512 l 1
 128 384 l 1
256 384 m 1
 384 384 l 1
 384 512 l 1
 256 512 l 1
 256 384 l 1
384 384 m 1
 512 384 l 1
 512 512 l 1
 384 512 l 1
 384 384 l 1
512 384 m 1
 640 384 l 1
 640 512 l 1
 512 512 l 1
 512 384 l 1
640 384 m 1
 768 384 l 1
 768 512 l 1
 640 512 l 1
 640 384 l 1
512 256 m 1
 640 256 l 1
 640 384 l 1
 512 384 l 1
 512 256 l 1
640 256 m 1
 768 256 l 1
 768 384 l 1
 640 384 l 1
 640 256 l 1
0 128 m 1
 128 128 l 1
 128 256 l 1
 0 256 l 1
 0 128 l 1
128 128 m 1
 256 128 l 1
 256 256 l 1
 128 256 l 1
 128 128 l 1
512 128 m 1
 640 128 l 1
 640 256 l 1
 512 256 l 1
 512 128 l 1
640 128 m 1
 768 128 l 1
 768 256 l 1
 640 256 l 1
 640 128 l 1
128 0 m 1
 256 0 l 1
 256 128 l 1
 128 128 l 1
 128 0 l 1
256 0 m 1
 384 0 l 1
 384 128 l 1
 256 128 l 1
 256 0 l 1
384 0 m 1
 512 0 l 1
 512 128 l 1
 384 128 l 1
 384 0 l 1
512 0 m 1
 640 0 l 1
 640 128 l 1
 512 128 l 1
 512 0 l 1
EndSplineSet
Validated: 5
EndChar

StartChar: colon
Encoding: 58 58 48
Width: 384
Flags: W
VStem: 0 256
LayerCount: 2
Fore
SplineSet
0 512 m 5
 128 512 l 5
 128 640 l 5
 0 640 l 5
 0 512 l 5
128 512 m 5
 256 512 l 5
 256 640 l 5
 128 640 l 5
 128 512 l 5
0 384 m 5
 128 384 l 5
 128 512 l 5
 0 512 l 5
 0 384 l 5
128 384 m 5
 256 384 l 5
 256 512 l 5
 128 512 l 5
 128 384 l 5
0 128 m 5
 128 128 l 5
 128 256 l 5
 0 256 l 5
 0 128 l 5
128 128 m 5
 256 128 l 5
 256 256 l 5
 128 256 l 5
 128 128 l 5
0 0 m 5
 128 0 l 5
 128 128 l 5
 0 128 l 5
 0 0 l 5
128 0 m 5
 256 0 l 5
 256 128 l 5
 128 128 l 5
 128 0 l 5
EndSplineSet
Validated: 5
EndChar

StartChar: semicolon
Encoding: 59 59 49
Width: 384
Flags: W
VStem: 0 256
LayerCount: 2
Fore
SplineSet
0 512 m 5
 128 512 l 5
 128 640 l 5
 0 640 l 5
 0 512 l 5
128 512 m 5
 256 512 l 5
 256 640 l 5
 128 640 l 5
 128 512 l 5
0 384 m 5
 128 384 l 5
 128 512 l 5
 0 512 l 5
 0 384 l 5
128 384 m 5
 256 384 l 5
 256 512 l 5
 128 512 l 5
 128 384 l 5
0 128 m 5
 128 128 l 5
 128 256 l 5
 0 256 l 5
 0 128 l 5
128 128 m 5
 256 128 l 5
 256 256 l 5
 128 256 l 5
 128 128 l 5
0 0 m 5
 128 0 l 5
 128 128 l 5
 0 128 l 5
 0 0 l 5
128 0 m 5
 256 0 l 5
 256 128 l 5
 128 128 l 5
 128 0 l 5
128 -128 m 5
 256 -128 l 5
 256 0 l 5
 128 0 l 5
 128 -128 l 5
EndSplineSet
Validated: 5
EndChar

StartChar: less
Encoding: 60 60 50
Width: 640
Flags: W
LayerCount: 2
Fore
SplineSet
256 512 m 5
 384 512 l 5
 384 640 l 5
 256 640 l 5
 256 512 l 5
384 512 m 5
 512 512 l 5
 512 640 l 5
 384 640 l 5
 384 512 l 5
128 384 m 5
 256 384 l 5
 256 512 l 5
 128 512 l 5
 128 384 l 5
256 384 m 5
 384 384 l 5
 384 512 l 5
 256 512 l 5
 256 384 l 5
0 256 m 5
 128 256 l 5
 128 384 l 5
 0 384 l 5
 0 256 l 5
128 256 m 5
 256 256 l 5
 256 384 l 5
 128 384 l 5
 128 256 l 5
128 128 m 5
 256 128 l 5
 256 256 l 5
 128 256 l 5
 128 128 l 5
256 128 m 5
 384 128 l 5
 384 256 l 5
 256 256 l 5
 256 128 l 5
256 0 m 5
 384 0 l 5
 384 128 l 5
 256 128 l 5
 256 0 l 5
384 0 m 5
 512 0 l 5
 512 128 l 5
 384 128 l 5
 384 0 l 5
EndSplineSet
Validated: 5
EndChar

StartChar: equal
Encoding: 61 61 51
Width: 768
Flags: W
LayerCount: 2
Fore
SplineSet
0 512 m 5
 128 512 l 5
 128 640 l 5
 0 640 l 5
 0 512 l 5
128 512 m 5
 256 512 l 5
 256 640 l 5
 128 640 l 5
 128 512 l 5
256 512 m 5
 384 512 l 5
 384 640 l 5
 256 640 l 5
 256 512 l 5
384 512 m 5
 512 512 l 5
 512 640 l 5
 384 640 l 5
 384 512 l 5
512 512 m 5
 640 512 l 5
 640 640 l 5
 512 640 l 5
 512 512 l 5
0 384 m 5
 128 384 l 5
 128 512 l 5
 0 512 l 5
 0 384 l 5
128 384 m 5
 256 384 l 5
 256 512 l 5
 128 512 l 5
 128 384 l 5
256 384 m 5
 384 384 l 5
 384 512 l 5
 256 512 l 5
 256 384 l 5
384 384 m 5
 512 384 l 5
 512 512 l 5
 384 512 l 5
 384 384 l 5
512 384 m 5
 640 384 l 5
 640 512 l 5
 512 512 l 5
 512 384 l 5
0 128 m 5
 128 128 l 5
 128 256 l 5
 0 256 l 5
 0 128 l 5
128 128 m 5
 256 128 l 5
 256 256 l 5
 128 256 l 5
 128 128 l 5
256 128 m 5
 384 128 l 5
 384 256 l 5
 256 256 l 5
 256 128 l 5
384 128 m 5
 512 128 l 5
 512 256 l 5
 384 256 l 5
 384 128 l 5
512 128 m 5
 640 128 l 5
 640 256 l 5
 512 256 l 5
 512 128 l 5
0 0 m 5
 128 0 l 5
 128 128 l 5
 0 128 l 5
 0 0 l 5
128 0 m 5
 256 0 l 5
 256 128 l 5
 128 128 l 5
 128 0 l 5
256 0 m 5
 384 0 l 5
 384 128 l 5
 256 128 l 5
 256 0 l 5
384 0 m 5
 512 0 l 5
 512 128 l 5
 384 128 l 5
 384 0 l 5
512 0 m 5
 640 0 l 5
 640 128 l 5
 512 128 l 5
 512 0 l 5
EndSplineSet
Validated: 5
EndChar

StartChar: greater
Encoding: 62 62 52
Width: 640
Flags: W
LayerCount: 2
Fore
SplineSet
0 512 m 5
 128 512 l 5
 128 640 l 5
 0 640 l 5
 0 512 l 5
128 512 m 5
 256 512 l 5
 256 640 l 5
 128 640 l 5
 128 512 l 5
128 384 m 5
 256 384 l 5
 256 512 l 5
 128 512 l 5
 128 384 l 5
256 384 m 5
 384 384 l 5
 384 512 l 5
 256 512 l 5
 256 384 l 5
256 256 m 5
 384 256 l 5
 384 384 l 5
 256 384 l 5
 256 256 l 5
384 256 m 5
 512 256 l 5
 512 384 l 5
 384 384 l 5
 384 256 l 5
128 128 m 5
 256 128 l 5
 256 256 l 5
 128 256 l 5
 128 128 l 5
256 128 m 5
 384 128 l 5
 384 256 l 5
 256 256 l 5
 256 128 l 5
0 0 m 5
 128 0 l 5
 128 128 l 5
 0 128 l 5
 0 0 l 5
128 0 m 5
 256 0 l 5
 256 128 l 5
 128 128 l 5
 128 0 l 5
EndSplineSet
Validated: 5
EndChar

StartChar: question
Encoding: 63 63 53
Width: 896
Flags: W
LayerCount: 2
Fore
SplineSet
128 768 m 1
 256 768 l 1
 256 896 l 1
 128 896 l 1
 128 768 l 1
256 768 m 1
 384 768 l 1
 384 896 l 1
 256 896 l 1
 256 768 l 1
384 768 m 1
 512 768 l 1
 512 896 l 1
 384 896 l 1
 384 768 l 1
512 768 m 1
 640 768 l 1
 640 896 l 1
 512 896 l 1
 512 768 l 1
0 640 m 1
 128 640 l 1
 128 768 l 1
 0 768 l 1
 0 640 l 1
128 640 m 1
 256 640 l 1
 256 768 l 1
 128 768 l 1
 128 640 l 1
512 640 m 1
 640 640 l 1
 640 768 l 1
 512 768 l 1
 512 640 l 1
640 640 m 1
 768 640 l 1
 768 768 l 1
 640 768 l 1
 640 640 l 1
512 512 m 1
 640 512 l 1
 640 640 l 1
 512 640 l 1
 512 512 l 1
640 512 m 1
 768 512 l 1
 768 640 l 1
 640 640 l 1
 640 512 l 1
256 384 m 1
 384 384 l 1
 384 512 l 1
 256 512 l 1
 256 384 l 1
384 384 m 1
 512 384 l 1
 512 512 l 1
 384 512 l 1
 384 384 l 1
512 384 m 1
 640 384 l 1
 640 512 l 1
 512 512 l 1
 512 384 l 1
256 256 m 1
 384 256 l 1
 384 384 l 1
 256 384 l 1
 256 256 l 1
384 256 m 1
 512 256 l 1
 512 384 l 1
 384 384 l 1
 384 256 l 1
256 0 m 1
 384 0 l 1
 384 128 l 1
 256 128 l 1
 256 0 l 1
384 0 m 1
 512 0 l 1
 512 128 l 1
 384 128 l 1
 384 0 l 1
EndSplineSet
Validated: 5
EndChar

StartChar: bracketleft
Encoding: 91 91 54
Width: 640
Flags: W
LayerCount: 2
Fore
SplineSet
0 768 m 1
 128 768 l 1
 128 896 l 1
 0 896 l 1
 0 768 l 1
128 768 m 1
 256 768 l 1
 256 896 l 1
 128 896 l 1
 128 768 l 1
256 768 m 1
 384 768 l 1
 384 896 l 1
 256 896 l 1
 256 768 l 1
384 768 m 1
 512 768 l 1
 512 896 l 1
 384 896 l 1
 384 768 l 1
0 640 m 1
 128 640 l 1
 128 768 l 1
 0 768 l 1
 0 640 l 1
128 640 m 1
 256 640 l 1
 256 768 l 1
 128 768 l 1
 128 640 l 1
0 512 m 1
 128 512 l 1
 128 640 l 1
 0 640 l 1
 0 512 l 1
128 512 m 1
 256 512 l 1
 256 640 l 1
 128 640 l 1
 128 512 l 1
0 384 m 1
 128 384 l 1
 128 512 l 1
 0 512 l 1
 0 384 l 1
128 384 m 1
 256 384 l 1
 256 512 l 1
 128 512 l 1
 128 384 l 1
0 256 m 1
 128 256 l 1
 128 384 l 1
 0 384 l 1
 0 256 l 1
128 256 m 1
 256 256 l 1
 256 384 l 1
 128 384 l 1
 128 256 l 1
0 128 m 1
 128 128 l 1
 128 256 l 1
 0 256 l 1
 0 128 l 1
128 128 m 1
 256 128 l 1
 256 256 l 1
 128 256 l 1
 128 128 l 1
0 0 m 1
 128 0 l 1
 128 128 l 1
 0 128 l 1
 0 0 l 1
128 0 m 1
 256 0 l 1
 256 128 l 1
 128 128 l 1
 128 0 l 1
256 0 m 1
 384 0 l 1
 384 128 l 1
 256 128 l 1
 256 0 l 1
384 0 m 1
 512 0 l 1
 512 128 l 1
 384 128 l 1
 384 0 l 1
EndSplineSet
Validated: 5
EndChar

StartChar: bracketright
Encoding: 93 93 55
Width: 640
Flags: W
LayerCount: 2
Fore
SplineSet
0 768 m 1
 128 768 l 1
 128 896 l 1
 0 896 l 1
 0 768 l 1
128 768 m 1
 256 768 l 1
 256 896 l 1
 128 896 l 1
 128 768 l 1
256 768 m 1
 384 768 l 1
 384 896 l 1
 256 896 l 1
 256 768 l 1
384 768 m 1
 512 768 l 1
 512 896 l 1
 384 896 l 1
 384 768 l 1
256 640 m 1
 384 640 l 1
 384 768 l 1
 256 768 l 1
 256 640 l 1
384 640 m 1
 512 640 l 1
 512 768 l 1
 384 768 l 1
 384 640 l 1
256 512 m 1
 384 512 l 1
 384 640 l 1
 256 640 l 1
 256 512 l 1
384 512 m 1
 512 512 l 1
 512 640 l 1
 384 640 l 1
 384 512 l 1
256 384 m 1
 384 384 l 1
 384 512 l 1
 256 512 l 1
 256 384 l 1
384 384 m 1
 512 384 l 1
 512 512 l 1
 384 512 l 1
 384 384 l 1
256 256 m 1
 384 256 l 1
 384 384 l 1
 256 384 l 1
 256 256 l 1
384 256 m 1
 512 256 l 1
 512 384 l 1
 384 384 l 1
 384 256 l 1
256 128 m 1
 384 128 l 1
 384 256 l 1
 256 256 l 1
 256 128 l 1
384 128 m 1
 512 128 l 1
 512 256 l 1
 384 256 l 1
 384 128 l 1
0 0 m 1
 128 0 l 1
 128 128 l 1
 0 128 l 1
 0 0 l 1
128 0 m 1
 256 0 l 1
 256 128 l 1
 128 128 l 1
 128 0 l 1
256 0 m 1
 384 0 l 1
 384 128 l 1
 256 128 l 1
 256 0 l 1
384 0 m 1
 512 0 l 1
 512 128 l 1
 384 128 l 1
 384 0 l 1
EndSplineSet
Validated: 5
EndChar

StartChar: underscore
Encoding: 95 95 56
Width: 1024
Flags: W
HStem: 0 128
LayerCount: 2
Fore
SplineSet
0 0 m 5
 128 0 l 5
 128 128 l 5
 0 128 l 5
 0 0 l 5
128 0 m 5
 256 0 l 5
 256 128 l 5
 128 128 l 5
 128 0 l 5
256 0 m 5
 384 0 l 5
 384 128 l 5
 256 128 l 5
 256 0 l 5
384 0 m 5
 512 0 l 5
 512 128 l 5
 384 128 l 5
 384 0 l 5
512 0 m 5
 640 0 l 5
 640 128 l 5
 512 128 l 5
 512 0 l 5
640 0 m 5
 768 0 l 5
 768 128 l 5
 640 128 l 5
 640 0 l 5
EndSplineSet
Validated: 5
EndChar

StartChar: braceleft
Encoding: 123 123 57
Width: 640
Flags: W
LayerCount: 2
Fore
SplineSet
256 768 m 1
 384 768 l 1
 384 896 l 1
 256 896 l 1
 256 768 l 1
384 768 m 1
 512 768 l 1
 512 896 l 1
 384 896 l 1
 384 768 l 1
128 640 m 1
 256 640 l 1
 256 768 l 1
 128 768 l 1
 128 640 l 1
256 640 m 1
 384 640 l 1
 384 768 l 1
 256 768 l 1
 256 640 l 1
128 512 m 1
 256 512 l 1
 256 640 l 1
 128 640 l 1
 128 512 l 1
256 512 m 1
 384 512 l 1
 384 640 l 1
 256 640 l 1
 256 512 l 1
0 384 m 1
 128 384 l 1
 128 512 l 1
 0 512 l 1
 0 384 l 1
128 384 m 1
 256 384 l 1
 256 512 l 1
 128 512 l 1
 128 384 l 1
128 256 m 1
 256 256 l 1
 256 384 l 1
 128 384 l 1
 128 256 l 1
256 256 m 1
 384 256 l 1
 384 384 l 1
 256 384 l 1
 256 256 l 1
128 128 m 1
 256 128 l 1
 256 256 l 1
 128 256 l 1
 128 128 l 1
256 128 m 1
 384 128 l 1
 384 256 l 1
 256 256 l 1
 256 128 l 1
256 0 m 1
 384 0 l 1
 384 128 l 1
 256 128 l 1
 256 0 l 1
384 0 m 1
 512 0 l 1
 512 128 l 1
 384 128 l 1
 384 0 l 1
EndSplineSet
Validated: 5
EndChar

StartChar: braceright
Encoding: 125 125 58
Width: 640
Flags: W
LayerCount: 2
Fore
SplineSet
0 768 m 1
 128 768 l 1
 128 896 l 1
 0 896 l 1
 0 768 l 1
128 768 m 1
 256 768 l 1
 256 896 l 1
 128 896 l 1
 128 768 l 1
128 640 m 1
 256 640 l 1
 256 768 l 1
 128 768 l 1
 128 640 l 1
256 640 m 1
 384 640 l 1
 384 768 l 1
 256 768 l 1
 256 640 l 1
128 512 m 1
 256 512 l 1
 256 640 l 1
 128 640 l 1
 128 512 l 1
256 512 m 1
 384 512 l 1
 384 640 l 1
 256 640 l 1
 256 512 l 1
256 384 m 1
 384 384 l 1
 384 512 l 1
 256 512 l 1
 256 384 l 1
384 384 m 1
 512 384 l 1
 512 512 l 1
 384 512 l 1
 384 384 l 1
128 256 m 1
 256 256 l 1
 256 384 l 1
 128 384 l 1
 128 256 l 1
256 256 m 1
 384 256 l 1
 384 384 l 1
 256 384 l 1
 256 256 l 1
128 128 m 1
 256 128 l 1
 256 256 l 1
 128 256 l 1
 128 128 l 1
256 128 m 1
 384 128 l 1
 384 256 l 1
 256 256 l 1
 256 128 l 1
0 0 m 1
 128 0 l 1
 128 128 l 1
 0 128 l 1
 0 0 l 1
128 0 m 1
 256 0 l 1
 256 128 l 1
 128 128 l 1
 128 0 l 1
EndSplineSet
Validated: 5
EndChar

StartChar: m
Encoding: 109 109 59
Width: 768
VWidth: 896
Flags: W
LayerCount: 2
Fore
SplineSet
0 768 m 1
 128 768 l 1
 128 896 l 1
 0 896 l 1
 0 768 l 1
512 768 m 1
 640 768 l 1
 640 896 l 1
 512 896 l 1
 512 768 l 1
0 640 m 1
 128 640 l 1
 128 768 l 1
 0 768 l 1
 0 640 l 1
128 640 m 1
 256 640 l 1
 256 768 l 1
 128 768 l 1
 128 640 l 1
384 640 m 1
 512 640 l 1
 512 768 l 1
 384 768 l 1
 384 640 l 1
512 640 m 1
 640 640 l 1
 640 768 l 1
 512 768 l 1
 512 640 l 1
0 512 m 1
 128 512 l 1
 128 640 l 1
 0 640 l 1
 0 512 l 1
128 512 m 1
 256 512 l 1
 256 640 l 1
 128 640 l 1
 128 512 l 1
256 512 m 1
 384 512 l 1
 384 640 l 1
 256 640 l 1
 256 512 l 1
384 512 m 1
 512 512 l 1
 512 640 l 1
 384 640 l 1
 384 512 l 1
512 512 m 1
 640 512 l 1
 640 640 l 1
 512 640 l 1
 512 512 l 1
0 384 m 1
 128 384 l 1
 128 512 l 1
 0 512 l 1
 0 384 l 1
128 384 m 1
 256 384 l 1
 256 512 l 1
 128 512 l 1
 128 384 l 1
256 384 m 1
 384 384 l 1
 384 512 l 1
 256 512 l 1
 256 384 l 1
384 384 m 1
 512 384 l 1
 512 512 l 1
 384 512 l 1
 384 384 l 1
512 384 m 1
 640 384 l 1
 640 512 l 1
 512 512 l 1
 512 384 l 1
0 256 m 1
 128 256 l 1
 128 384 l 1
 0 384 l 1
 0 256 l 1
128 256 m 1
 256 256 l 1
 256 384 l 1
 128 384 l 1
 128 256 l 1
256 256 m 1
 384 256 l 1
 384 384 l 1
 256 384 l 1
 256 256 l 1
384 256 m 1
 512 256 l 1
 512 384 l 1
 384 384 l 1
 384 256 l 1
512 256 m 1
 640 256 l 1
 640 384 l 1
 512 384 l 1
 512 256 l 1
0 128 m 1
 128 128 l 1
 128 256 l 1
 0 256 l 1
 0 128 l 1
128 128 m 1
 256 128 l 1
 256 256 l 1
 128 256 l 1
 128 128 l 1
384 128 m 1
 512 128 l 1
 512 256 l 1
 384 256 l 1
 384 128 l 1
512 128 m 1
 640 128 l 1
 640 256 l 1
 512 256 l 1
 512 128 l 1
0 0 m 1
 128 0 l 1
 128 128 l 1
 0 128 l 1
 0 0 l 1
128 0 m 1
 256 0 l 1
 256 128 l 1
 128 128 l 1
 128 0 l 1
384 0 m 1
 512 0 l 1
 512 128 l 1
 384 128 l 1
 384 0 l 1
512 0 m 1
 640 0 l 1
 640 128 l 1
 512 128 l 1
 512 0 l 1
EndSplineSet
Validated: 5
EndChar

StartChar: l
Encoding: 108 108 60
Width: 640
Flags: W
LayerCount: 2
Fore
SplineSet
0 768 m 1
 128 768 l 1
 128 896 l 1
 0 896 l 1
 0 768 l 1
128 768 m 1
 256 768 l 1
 256 896 l 1
 128 896 l 1
 128 768 l 1
0 640 m 1
 128 640 l 1
 128 768 l 1
 0 768 l 1
 0 640 l 1
128 640 m 1
 256 640 l 1
 256 768 l 1
 128 768 l 1
 128 640 l 1
0 512 m 1
 128 512 l 1
 128 640 l 1
 0 640 l 1
 0 512 l 1
128 512 m 1
 256 512 l 1
 256 640 l 1
 128 640 l 1
 128 512 l 1
0 384 m 1
 128 384 l 1
 128 512 l 1
 0 512 l 1
 0 384 l 1
128 384 m 1
 256 384 l 1
 256 512 l 1
 128 512 l 1
 128 384 l 1
0 256 m 1
 128 256 l 1
 128 384 l 1
 0 384 l 1
 0 256 l 1
128 256 m 1
 256 256 l 1
 256 384 l 1
 128 384 l 1
 128 256 l 1
0 128 m 1
 128 128 l 1
 128 256 l 1
 0 256 l 1
 0 128 l 1
128 128 m 1
 256 128 l 1
 256 256 l 1
 128 256 l 1
 128 128 l 1
0 0 m 1
 128 0 l 1
 128 128 l 1
 0 128 l 1
 0 0 l 1
128 0 m 1
 256 0 l 1
 256 128 l 1
 128 128 l 1
 128 0 l 1
256 0 m 1
 384 0 l 1
 384 128 l 1
 256 128 l 1
 256 0 l 1
384 0 m 1
 512 0 l 1
 512 128 l 1
 384 128 l 1
 384 0 l 1
EndSplineSet
Validated: 5
EndChar

StartChar: a
Encoding: 97 97 61
Width: 768
Flags: W
LayerCount: 2
Fore
SplineSet
128 768 m 1
 256 768 l 1
 256 896 l 1
 128 896 l 1
 128 768 l 1
256 768 m 1
 384 768 l 1
 384 896 l 1
 256 896 l 1
 256 768 l 1
384 768 m 1
 512 768 l 1
 512 896 l 1
 384 896 l 1
 384 768 l 1
0 640 m 1
 128 640 l 1
 128 768 l 1
 0 768 l 1
 0 640 l 1
128 640 m 1
 256 640 l 1
 256 768 l 1
 128 768 l 1
 128 640 l 1
384 640 m 1
 512 640 l 1
 512 768 l 1
 384 768 l 1
 384 640 l 1
512 640 m 1
 640 640 l 1
 640 768 l 1
 512 768 l 1
 512 640 l 1
0 512 m 1
 128 512 l 1
 128 640 l 1
 0 640 l 1
 0 512 l 1
128 512 m 1
 256 512 l 1
 256 640 l 1
 128 640 l 1
 128 512 l 1
384 512 m 1
 512 512 l 1
 512 640 l 1
 384 640 l 1
 384 512 l 1
512 512 m 1
 640 512 l 1
 640 640 l 1
 512 640 l 1
 512 512 l 1
0 384 m 1
 128 384 l 1
 128 512 l 1
 0 512 l 1
 0 384 l 1
128 384 m 1
 256 384 l 1
 256 512 l 1
 128 512 l 1
 128 384 l 1
384 384 m 1
 512 384 l 1
 512 512 l 1
 384 512 l 1
 384 384 l 1
512 384 m 1
 640 384 l 1
 640 512 l 1
 512 512 l 1
 512 384 l 1
0 256 m 1
 128 256 l 1
 128 384 l 1
 0 384 l 1
 0 256 l 1
128 256 m 1
 256 256 l 1
 256 384 l 1
 128 384 l 1
 128 256 l 1
256 256 m 1
 384 256 l 1
 384 384 l 1
 256 384 l 1
 256 256 l 1
384 256 m 1
 512 256 l 1
 512 384 l 1
 384 384 l 1
 384 256 l 1
512 256 m 1
 640 256 l 1
 640 384 l 1
 512 384 l 1
 512 256 l 1
0 128 m 1
 128 128 l 1
 128 256 l 1
 0 256 l 1
 0 128 l 1
128 128 m 1
 256 128 l 1
 256 256 l 1
 128 256 l 1
 128 128 l 1
384 128 m 1
 512 128 l 1
 512 256 l 1
 384 256 l 1
 384 128 l 1
512 128 m 1
 640 128 l 1
 640 256 l 1
 512 256 l 1
 512 128 l 1
0 0 m 1
 128 0 l 1
 128 128 l 1
 0 128 l 1
 0 0 l 1
128 0 m 1
 256 0 l 1
 256 128 l 1
 128 128 l 1
 128 0 l 1
384 0 m 1
 512 0 l 1
 512 128 l 1
 384 128 l 1
 384 0 l 1
512 0 m 1
 640 0 l 1
 640 128 l 1
 512 128 l 1
 512 0 l 1
EndSplineSet
Validated: 5
EndChar

StartChar: b
Encoding: 98 98 62
Width: 768
Flags: W
LayerCount: 2
Fore
SplineSet
0 768 m 1
 128 768 l 1
 128 896 l 1
 0 896 l 1
 0 768 l 1
128 768 m 1
 256 768 l 1
 256 896 l 1
 128 896 l 1
 128 768 l 1
256 768 m 1
 384 768 l 1
 384 896 l 1
 256 896 l 1
 256 768 l 1
384 768 m 1
 512 768 l 1
 512 896 l 1
 384 896 l 1
 384 768 l 1
0 640 m 1
 128 640 l 1
 128 768 l 1
 0 768 l 1
 0 640 l 1
128 640 m 1
 256 640 l 1
 256 768 l 1
 128 768 l 1
 128 640 l 1
384 640 m 1
 512 640 l 1
 512 768 l 1
 384 768 l 1
 384 640 l 1
512 640 m 1
 640 640 l 1
 640 768 l 1
 512 768 l 1
 512 640 l 1
0 512 m 1
 128 512 l 1
 128 640 l 1
 0 640 l 1
 0 512 l 1
128 512 m 1
 256 512 l 1
 256 640 l 1
 128 640 l 1
 128 512 l 1
384 512 m 1
 512 512 l 1
 512 640 l 1
 384 640 l 1
 384 512 l 1
512 512 m 1
 640 512 l 1
 640 640 l 1
 512 640 l 1
 512 512 l 1
0 384 m 1
 128 384 l 1
 128 512 l 1
 0 512 l 1
 0 384 l 1
128 384 m 1
 256 384 l 1
 256 512 l 1
 128 512 l 1
 128 384 l 1
256 384 m 1
 384 384 l 1
 384 512 l 1
 256 512 l 1
 256 384 l 1
384 384 m 1
 512 384 l 1
 512 512 l 1
 384 512 l 1
 384 384 l 1
0 256 m 1
 128 256 l 1
 128 384 l 1
 0 384 l 1
 0 256 l 1
128 256 m 1
 256 256 l 1
 256 384 l 1
 128 384 l 1
 128 256 l 1
384 256 m 1
 512 256 l 1
 512 384 l 1
 384 384 l 1
 384 256 l 1
512 256 m 1
 640 256 l 1
 640 384 l 1
 512 384 l 1
 512 256 l 1
0 128 m 1
 128 128 l 1
 128 256 l 1
 0 256 l 1
 0 128 l 1
128 128 m 1
 256 128 l 1
 256 256 l 1
 128 256 l 1
 128 128 l 1
384 128 m 1
 512 128 l 1
 512 256 l 1
 384 256 l 1
 384 128 l 1
512 128 m 1
 640 128 l 1
 640 256 l 1
 512 256 l 1
 512 128 l 1
0 0 m 1
 128 0 l 1
 128 128 l 1
 0 128 l 1
 0 0 l 1
128 0 m 1
 256 0 l 1
 256 128 l 1
 128 128 l 1
 128 0 l 1
256 0 m 1
 384 0 l 1
 384 128 l 1
 256 128 l 1
 256 0 l 1
384 0 m 1
 512 0 l 1
 512 128 l 1
 384 128 l 1
 384 0 l 1
EndSplineSet
Validated: 5
EndChar

StartChar: c
Encoding: 99 99 63
Width: 768
Flags: W
LayerCount: 2
Fore
SplineSet
128 768 m 1
 256 768 l 1
 256 896 l 1
 128 896 l 1
 128 768 l 1
256 768 m 1
 384 768 l 1
 384 896 l 1
 256 896 l 1
 256 768 l 1
384 768 m 1
 512 768 l 1
 512 896 l 1
 384 896 l 1
 384 768 l 1
0 640 m 1
 128 640 l 1
 128 768 l 1
 0 768 l 1
 0 640 l 1
128 640 m 1
 256 640 l 1
 256 768 l 1
 128 768 l 1
 128 640 l 1
384 640 m 1
 512 640 l 1
 512 768 l 1
 384 768 l 1
 384 640 l 1
512 640 m 1
 640 640 l 1
 640 768 l 1
 512 768 l 1
 512 640 l 1
0 512 m 1
 128 512 l 1
 128 640 l 1
 0 640 l 1
 0 512 l 1
128 512 m 1
 256 512 l 1
 256 640 l 1
 128 640 l 1
 128 512 l 1
0 384 m 1
 128 384 l 1
 128 512 l 1
 0 512 l 1
 0 384 l 1
128 384 m 1
 256 384 l 1
 256 512 l 1
 128 512 l 1
 128 384 l 1
0 256 m 1
 128 256 l 1
 128 384 l 1
 0 384 l 1
 0 256 l 1
128 256 m 1
 256 256 l 1
 256 384 l 1
 128 384 l 1
 128 256 l 1
0 128 m 1
 128 128 l 1
 128 256 l 1
 0 256 l 1
 0 128 l 1
128 128 m 1
 256 128 l 1
 256 256 l 1
 128 256 l 1
 128 128 l 1
384 128 m 1
 512 128 l 1
 512 256 l 1
 384 256 l 1
 384 128 l 1
512 128 m 1
 640 128 l 1
 640 256 l 1
 512 256 l 1
 512 128 l 1
128 0 m 1
 256 0 l 1
 256 128 l 1
 128 128 l 1
 128 0 l 1
256 0 m 1
 384 0 l 1
 384 128 l 1
 256 128 l 1
 256 0 l 1
384 0 m 1
 512 0 l 1
 512 128 l 1
 384 128 l 1
 384 0 l 1
EndSplineSet
Validated: 5
EndChar

StartChar: d
Encoding: 100 100 64
Width: 768
Flags: W
LayerCount: 2
Fore
SplineSet
0 768 m 1
 128 768 l 1
 128 896 l 1
 0 896 l 1
 0 768 l 1
128 768 m 1
 256 768 l 1
 256 896 l 1
 128 896 l 1
 128 768 l 1
256 768 m 1
 384 768 l 1
 384 896 l 1
 256 896 l 1
 256 768 l 1
384 768 m 1
 512 768 l 1
 512 896 l 1
 384 896 l 1
 384 768 l 1
0 640 m 1
 128 640 l 1
 128 768 l 1
 0 768 l 1
 0 640 l 1
128 640 m 1
 256 640 l 1
 256 768 l 1
 128 768 l 1
 128 640 l 1
384 640 m 1
 512 640 l 1
 512 768 l 1
 384 768 l 1
 384 640 l 1
512 640 m 1
 640 640 l 1
 640 768 l 1
 512 768 l 1
 512 640 l 1
0 512 m 1
 128 512 l 1
 128 640 l 1
 0 640 l 1
 0 512 l 1
128 512 m 1
 256 512 l 1
 256 640 l 1
 128 640 l 1
 128 512 l 1
384 512 m 1
 512 512 l 1
 512 640 l 1
 384 640 l 1
 384 512 l 1
512 512 m 1
 640 512 l 1
 640 640 l 1
 512 640 l 1
 512 512 l 1
0 384 m 1
 128 384 l 1
 128 512 l 1
 0 512 l 1
 0 384 l 1
128 384 m 1
 256 384 l 1
 256 512 l 1
 128 512 l 1
 128 384 l 1
384 384 m 1
 512 384 l 1
 512 512 l 1
 384 512 l 1
 384 384 l 1
512 384 m 1
 640 384 l 1
 640 512 l 1
 512 512 l 1
 512 384 l 1
0 256 m 1
 128 256 l 1
 128 384 l 1
 0 384 l 1
 0 256 l 1
128 256 m 1
 256 256 l 1
 256 384 l 1
 128 384 l 1
 128 256 l 1
384 256 m 1
 512 256 l 1
 512 384 l 1
 384 384 l 1
 384 256 l 1
512 256 m 1
 640 256 l 1
 640 384 l 1
 512 384 l 1
 512 256 l 1
0 128 m 1
 128 128 l 1
 128 256 l 1
 0 256 l 1
 0 128 l 1
128 128 m 1
 256 128 l 1
 256 256 l 1
 128 256 l 1
 128 128 l 1
384 128 m 1
 512 128 l 1
 512 256 l 1
 384 256 l 1
 384 128 l 1
512 128 m 1
 640 128 l 1
 640 256 l 1
 512 256 l 1
 512 128 l 1
0 0 m 1
 128 0 l 1
 128 128 l 1
 0 128 l 1
 0 0 l 1
128 0 m 1
 256 0 l 1
 256 128 l 1
 128 128 l 1
 128 0 l 1
256 0 m 1
 384 0 l 1
 384 128 l 1
 256 128 l 1
 256 0 l 1
384 0 m 1
 512 0 l 1
 512 128 l 1
 384 128 l 1
 384 0 l 1
EndSplineSet
Validated: 5
EndChar

StartChar: e
Encoding: 101 101 65
Width: 640
Flags: W
LayerCount: 2
Fore
SplineSet
0 768 m 1
 128 768 l 1
 128 896 l 1
 0 896 l 1
 0 768 l 1
128 768 m 1
 256 768 l 1
 256 896 l 1
 128 896 l 1
 128 768 l 1
256 768 m 1
 384 768 l 1
 384 896 l 1
 256 896 l 1
 256 768 l 1
384 768 m 1
 512 768 l 1
 512 896 l 1
 384 896 l 1
 384 768 l 1
0 640 m 1
 128 640 l 1
 128 768 l 1
 0 768 l 1
 0 640 l 1
128 640 m 1
 256 640 l 1
 256 768 l 1
 128 768 l 1
 128 640 l 1
0 512 m 1
 128 512 l 1
 128 640 l 1
 0 640 l 1
 0 512 l 1
128 512 m 1
 256 512 l 1
 256 640 l 1
 128 640 l 1
 128 512 l 1
0 384 m 1
 128 384 l 1
 128 512 l 1
 0 512 l 1
 0 384 l 1
128 384 m 1
 256 384 l 1
 256 512 l 1
 128 512 l 1
 128 384 l 1
256 384 m 1
 384 384 l 1
 384 512 l 1
 256 512 l 1
 256 384 l 1
0 256 m 1
 128 256 l 1
 128 384 l 1
 0 384 l 1
 0 256 l 1
128 256 m 1
 256 256 l 1
 256 384 l 1
 128 384 l 1
 128 256 l 1
0 128 m 1
 128 128 l 1
 128 256 l 1
 0 256 l 1
 0 128 l 1
128 128 m 1
 256 128 l 1
 256 256 l 1
 128 256 l 1
 128 128 l 1
0 0 m 1
 128 0 l 1
 128 128 l 1
 0 128 l 1
 0 0 l 1
128 0 m 1
 256 0 l 1
 256 128 l 1
 128 128 l 1
 128 0 l 1
256 0 m 1
 384 0 l 1
 384 128 l 1
 256 128 l 1
 256 0 l 1
384 0 m 1
 512 0 l 1
 512 128 l 1
 384 128 l 1
 384 0 l 1
EndSplineSet
Validated: 5
EndChar

StartChar: f
Encoding: 102 102 66
Width: 640
Flags: W
LayerCount: 2
Fore
SplineSet
0 768 m 1
 128 768 l 1
 128 896 l 1
 0 896 l 1
 0 768 l 1
128 768 m 1
 256 768 l 1
 256 896 l 1
 128 896 l 1
 128 768 l 1
256 768 m 1
 384 768 l 1
 384 896 l 1
 256 896 l 1
 256 768 l 1
384 768 m 1
 512 768 l 1
 512 896 l 1
 384 896 l 1
 384 768 l 1
0 640 m 1
 128 640 l 1
 128 768 l 1
 0 768 l 1
 0 640 l 1
128 640 m 1
 256 640 l 1
 256 768 l 1
 128 768 l 1
 128 640 l 1
0 512 m 1
 128 512 l 1
 128 640 l 1
 0 640 l 1
 0 512 l 1
128 512 m 1
 256 512 l 1
 256 640 l 1
 128 640 l 1
 128 512 l 1
0 384 m 1
 128 384 l 1
 128 512 l 1
 0 512 l 1
 0 384 l 1
128 384 m 1
 256 384 l 1
 256 512 l 1
 128 512 l 1
 128 384 l 1
256 384 m 1
 384 384 l 1
 384 512 l 1
 256 512 l 1
 256 384 l 1
0 256 m 1
 128 256 l 1
 128 384 l 1
 0 384 l 1
 0 256 l 1
128 256 m 1
 256 256 l 1
 256 384 l 1
 128 384 l 1
 128 256 l 1
0 128 m 1
 128 128 l 1
 128 256 l 1
 0 256 l 1
 0 128 l 1
128 128 m 1
 256 128 l 1
 256 256 l 1
 128 256 l 1
 128 128 l 1
0 0 m 1
 128 0 l 1
 128 128 l 1
 0 128 l 1
 0 0 l 1
128 0 m 1
 256 0 l 1
 256 128 l 1
 128 128 l 1
 128 0 l 1
EndSplineSet
Validated: 5
EndChar

StartChar: g
Encoding: 103 103 67
Width: 768
Flags: W
LayerCount: 2
Fore
SplineSet
128 768 m 1
 256 768 l 1
 256 896 l 1
 128 896 l 1
 128 768 l 1
256 768 m 1
 384 768 l 1
 384 896 l 1
 256 896 l 1
 256 768 l 1
384 768 m 1
 512 768 l 1
 512 896 l 1
 384 896 l 1
 384 768 l 1
0 640 m 1
 128 640 l 1
 128 768 l 1
 0 768 l 1
 0 640 l 1
128 640 m 1
 256 640 l 1
 256 768 l 1
 128 768 l 1
 128 640 l 1
384 640 m 1
 512 640 l 1
 512 768 l 1
 384 768 l 1
 384 640 l 1
512 640 m 1
 640 640 l 1
 640 768 l 1
 512 768 l 1
 512 640 l 1
0 512 m 1
 128 512 l 1
 128 640 l 1
 0 640 l 1
 0 512 l 1
128 512 m 1
 256 512 l 1
 256 640 l 1
 128 640 l 1
 128 512 l 1
0 384 m 1
 128 384 l 1
 128 512 l 1
 0 512 l 1
 0 384 l 1
128 384 m 1
 256 384 l 1
 256 512 l 1
 128 512 l 1
 128 384 l 1
384 384 m 1
 512 384 l 1
 512 512 l 1
 384 512 l 1
 384 384 l 1
512 384 m 1
 640 384 l 1
 640 512 l 1
 512 512 l 1
 512 384 l 1
0 256 m 1
 128 256 l 1
 128 384 l 1
 0 384 l 1
 0 256 l 1
128 256 m 1
 256 256 l 1
 256 384 l 1
 128 384 l 1
 128 256 l 1
384 256 m 1
 512 256 l 1
 512 384 l 1
 384 384 l 1
 384 256 l 1
512 256 m 1
 640 256 l 1
 640 384 l 1
 512 384 l 1
 512 256 l 1
0 128 m 1
 128 128 l 1
 128 256 l 1
 0 256 l 1
 0 128 l 1
128 128 m 1
 256 128 l 1
 256 256 l 1
 128 256 l 1
 128 128 l 1
384 128 m 1
 512 128 l 1
 512 256 l 1
 384 256 l 1
 384 128 l 1
512 128 m 1
 640 128 l 1
 640 256 l 1
 512 256 l 1
 512 128 l 1
128 0 m 1
 256 0 l 1
 256 128 l 1
 128 128 l 1
 128 0 l 1
256 0 m 1
 384 0 l 1
 384 128 l 1
 256 128 l 1
 256 0 l 1
384 0 m 1
 512 0 l 1
 512 128 l 1
 384 128 l 1
 384 0 l 1
EndSplineSet
Validated: 5
EndChar

StartChar: h
Encoding: 104 104 68
Width: 768
Flags: W
LayerCount: 2
Fore
SplineSet
0 768 m 1
 128 768 l 1
 128 896 l 1
 0 896 l 1
 0 768 l 1
128 768 m 1
 256 768 l 1
 256 896 l 1
 128 896 l 1
 128 768 l 1
384 768 m 1
 512 768 l 1
 512 896 l 1
 384 896 l 1
 384 768 l 1
512 768 m 1
 640 768 l 1
 640 896 l 1
 512 896 l 1
 512 768 l 1
0 640 m 1
 128 640 l 1
 128 768 l 1
 0 768 l 1
 0 640 l 1
128 640 m 1
 256 640 l 1
 256 768 l 1
 128 768 l 1
 128 640 l 1
384 640 m 1
 512 640 l 1
 512 768 l 1
 384 768 l 1
 384 640 l 1
512 640 m 1
 640 640 l 1
 640 768 l 1
 512 768 l 1
 512 640 l 1
0 512 m 1
 128 512 l 1
 128 640 l 1
 0 640 l 1
 0 512 l 1
128 512 m 1
 256 512 l 1
 256 640 l 1
 128 640 l 1
 128 512 l 1
384 512 m 1
 512 512 l 1
 512 640 l 1
 384 640 l 1
 384 512 l 1
512 512 m 1
 640 512 l 1
 640 640 l 1
 512 640 l 1
 512 512 l 1
0 384 m 1
 128 384 l 1
 128 512 l 1
 0 512 l 1
 0 384 l 1
128 384 m 1
 256 384 l 1
 256 512 l 1
 128 512 l 1
 128 384 l 1
256 384 m 1
 384 384 l 1
 384 512 l 1
 256 512 l 1
 256 384 l 1
384 384 m 1
 512 384 l 1
 512 512 l 1
 384 512 l 1
 384 384 l 1
512 384 m 1
 640 384 l 1
 640 512 l 1
 512 512 l 1
 512 384 l 1
0 256 m 1
 128 256 l 1
 128 384 l 1
 0 384 l 1
 0 256 l 1
128 256 m 1
 256 256 l 1
 256 384 l 1
 128 384 l 1
 128 256 l 1
384 256 m 1
 512 256 l 1
 512 384 l 1
 384 384 l 1
 384 256 l 1
512 256 m 1
 640 256 l 1
 640 384 l 1
 512 384 l 1
 512 256 l 1
0 128 m 1
 128 128 l 1
 128 256 l 1
 0 256 l 1
 0 128 l 1
128 128 m 1
 256 128 l 1
 256 256 l 1
 128 256 l 1
 128 128 l 1
384 128 m 1
 512 128 l 1
 512 256 l 1
 384 256 l 1
 384 128 l 1
512 128 m 1
 640 128 l 1
 640 256 l 1
 512 256 l 1
 512 128 l 1
0 0 m 1
 128 0 l 1
 128 128 l 1
 0 128 l 1
 0 0 l 1
128 0 m 1
 256 0 l 1
 256 128 l 1
 128 128 l 1
 128 0 l 1
384 0 m 1
 512 0 l 1
 512 128 l 1
 384 128 l 1
 384 0 l 1
512 0 m 1
 640 0 l 1
 640 128 l 1
 512 128 l 1
 512 0 l 1
EndSplineSet
Validated: 5
EndChar

StartChar: i
Encoding: 105 105 69
Width: 384
Flags: W
VStem: 0 256
LayerCount: 2
Fore
SplineSet
0 768 m 1
 128 768 l 1
 128 896 l 1
 0 896 l 1
 0 768 l 1
128 768 m 1
 256 768 l 1
 256 896 l 1
 128 896 l 1
 128 768 l 1
0 640 m 1
 128 640 l 1
 128 768 l 1
 0 768 l 1
 0 640 l 1
128 640 m 1
 256 640 l 1
 256 768 l 1
 128 768 l 1
 128 640 l 1
0 512 m 1
 128 512 l 1
 128 640 l 1
 0 640 l 1
 0 512 l 1
128 512 m 1
 256 512 l 1
 256 640 l 1
 128 640 l 1
 128 512 l 1
0 384 m 1
 128 384 l 1
 128 512 l 1
 0 512 l 1
 0 384 l 1
128 384 m 1
 256 384 l 1
 256 512 l 1
 128 512 l 1
 128 384 l 1
0 256 m 1
 128 256 l 1
 128 384 l 1
 0 384 l 1
 0 256 l 1
128 256 m 1
 256 256 l 1
 256 384 l 1
 128 384 l 1
 128 256 l 1
0 128 m 1
 128 128 l 1
 128 256 l 1
 0 256 l 1
 0 128 l 1
128 128 m 1
 256 128 l 1
 256 256 l 1
 128 256 l 1
 128 128 l 1
0 0 m 1
 128 0 l 1
 128 128 l 1
 0 128 l 1
 0 0 l 1
128 0 m 1
 256 0 l 1
 256 128 l 1
 128 128 l 1
 128 0 l 1
EndSplineSet
Validated: 5
EndChar

StartChar: j
Encoding: 106 106 70
Width: 768
Flags: W
LayerCount: 2
Fore
SplineSet
384 768 m 1
 512 768 l 1
 512 896 l 1
 384 896 l 1
 384 768 l 1
512 768 m 1
 640 768 l 1
 640 896 l 1
 512 896 l 1
 512 768 l 1
384 640 m 1
 512 640 l 1
 512 768 l 1
 384 768 l 1
 384 640 l 1
512 640 m 1
 640 640 l 1
 640 768 l 1
 512 768 l 1
 512 640 l 1
384 512 m 1
 512 512 l 1
 512 640 l 1
 384 640 l 1
 384 512 l 1
512 512 m 1
 640 512 l 1
 640 640 l 1
 512 640 l 1
 512 512 l 1
384 384 m 1
 512 384 l 1
 512 512 l 1
 384 512 l 1
 384 384 l 1
512 384 m 1
 640 384 l 1
 640 512 l 1
 512 512 l 1
 512 384 l 1
384 256 m 1
 512 256 l 1
 512 384 l 1
 384 384 l 1
 384 256 l 1
512 256 m 1
 640 256 l 1
 640 384 l 1
 512 384 l 1
 512 256 l 1
0 128 m 1
 128 128 l 1
 128 256 l 1
 0 256 l 1
 0 128 l 1
128 128 m 1
 256 128 l 1
 256 256 l 1
 128 256 l 1
 128 128 l 1
384 128 m 1
 512 128 l 1
 512 256 l 1
 384 256 l 1
 384 128 l 1
512 128 m 1
 640 128 l 1
 640 256 l 1
 512 256 l 1
 512 128 l 1
128 0 m 1
 256 0 l 1
 256 128 l 1
 128 128 l 1
 128 0 l 1
256 0 m 1
 384 0 l 1
 384 128 l 1
 256 128 l 1
 256 0 l 1
384 0 m 1
 512 0 l 1
 512 128 l 1
 384 128 l 1
 384 0 l 1
EndSplineSet
Validated: 5
EndChar

StartChar: k
Encoding: 107 107 71
Width: 768
Flags: W
LayerCount: 2
Fore
SplineSet
0 768 m 1
 128 768 l 1
 128 896 l 1
 0 896 l 1
 0 768 l 1
128 768 m 1
 256 768 l 1
 256 896 l 1
 128 896 l 1
 128 768 l 1
384 768 m 1
 512 768 l 1
 512 896 l 1
 384 896 l 1
 384 768 l 1
512 768 m 1
 640 768 l 1
 640 896 l 1
 512 896 l 1
 512 768 l 1
0 640 m 1
 128 640 l 1
 128 768 l 1
 0 768 l 1
 0 640 l 1
128 640 m 1
 256 640 l 1
 256 768 l 1
 128 768 l 1
 128 640 l 1
256 640 m 1
 384 640 l 1
 384 768 l 1
 256 768 l 1
 256 640 l 1
384 640 m 1
 512 640 l 1
 512 768 l 1
 384 768 l 1
 384 640 l 1
0 512 m 1
 128 512 l 1
 128 640 l 1
 0 640 l 1
 0 512 l 1
128 512 m 1
 256 512 l 1
 256 640 l 1
 128 640 l 1
 128 512 l 1
256 512 m 1
 384 512 l 1
 384 640 l 1
 256 640 l 1
 256 512 l 1
0 384 m 1
 128 384 l 1
 128 512 l 1
 0 512 l 1
 0 384 l 1
128 384 m 1
 256 384 l 1
 256 512 l 1
 128 512 l 1
 128 384 l 1
0 256 m 1
 128 256 l 1
 128 384 l 1
 0 384 l 1
 0 256 l 1
128 256 m 1
 256 256 l 1
 256 384 l 1
 128 384 l 1
 128 256 l 1
256 256 m 1
 384 256 l 1
 384 384 l 1
 256 384 l 1
 256 256 l 1
0 128 m 1
 128 128 l 1
 128 256 l 1
 0 256 l 1
 0 128 l 1
128 128 m 1
 256 128 l 1
 256 256 l 1
 128 256 l 1
 128 128 l 1
256 128 m 1
 384 128 l 1
 384 256 l 1
 256 256 l 1
 256 128 l 1
384 128 m 1
 512 128 l 1
 512 256 l 1
 384 256 l 1
 384 128 l 1
0 0 m 1
 128 0 l 1
 128 128 l 1
 0 128 l 1
 0 0 l 1
128 0 m 1
 256 0 l 1
 256 128 l 1
 128 128 l 1
 128 0 l 1
384 0 m 1
 512 0 l 1
 512 128 l 1
 384 128 l 1
 384 0 l 1
512 0 m 1
 640 0 l 1
 640 128 l 1
 512 128 l 1
 512 0 l 1
EndSplineSet
Validated: 5
EndChar

StartChar: n
Encoding: 110 110 72
Width: 768
Flags: W
LayerCount: 2
Fore
SplineSet
0 768 m 1
 128 768 l 1
 128 896 l 1
 0 896 l 1
 0 768 l 1
384 768 m 1
 512 768 l 1
 512 896 l 1
 384 896 l 1
 384 768 l 1
512 768 m 1
 640 768 l 1
 640 896 l 1
 512 896 l 1
 512 768 l 1
0 640 m 1
 128 640 l 1
 128 768 l 1
 0 768 l 1
 0 640 l 1
128 640 m 1
 256 640 l 1
 256 768 l 1
 128 768 l 1
 128 640 l 1
384 640 m 1
 512 640 l 1
 512 768 l 1
 384 768 l 1
 384 640 l 1
512 640 m 1
 640 640 l 1
 640 768 l 1
 512 768 l 1
 512 640 l 1
0 512 m 1
 128 512 l 1
 128 640 l 1
 0 640 l 1
 0 512 l 1
128 512 m 1
 256 512 l 1
 256 640 l 1
 128 640 l 1
 128 512 l 1
256 512 m 1
 384 512 l 1
 384 640 l 1
 256 640 l 1
 256 512 l 1
384 512 m 1
 512 512 l 1
 512 640 l 1
 384 640 l 1
 384 512 l 1
512 512 m 1
 640 512 l 1
 640 640 l 1
 512 640 l 1
 512 512 l 1
0 384 m 1
 128 384 l 1
 128 512 l 1
 0 512 l 1
 0 384 l 1
128 384 m 1
 256 384 l 1
 256 512 l 1
 128 512 l 1
 128 384 l 1
256 384 m 1
 384 384 l 1
 384 512 l 1
 256 512 l 1
 256 384 l 1
384 384 m 1
 512 384 l 1
 512 512 l 1
 384 512 l 1
 384 384 l 1
512 384 m 1
 640 384 l 1
 640 512 l 1
 512 512 l 1
 512 384 l 1
0 256 m 1
 128 256 l 1
 128 384 l 1
 0 384 l 1
 0 256 l 1
128 256 m 1
 256 256 l 1
 256 384 l 1
 128 384 l 1
 128 256 l 1
256 256 m 1
 384 256 l 1
 384 384 l 1
 256 384 l 1
 256 256 l 1
384 256 m 1
 512 256 l 1
 512 384 l 1
 384 384 l 1
 384 256 l 1
512 256 m 1
 640 256 l 1
 640 384 l 1
 512 384 l 1
 512 256 l 1
0 128 m 1
 128 128 l 1
 128 256 l 1
 0 256 l 1
 0 128 l 1
128 128 m 1
 256 128 l 1
 256 256 l 1
 128 256 l 1
 128 128 l 1
384 128 m 1
 512 128 l 1
 512 256 l 1
 384 256 l 1
 384 128 l 1
512 128 m 1
 640 128 l 1
 640 256 l 1
 512 256 l 1
 512 128 l 1
0 0 m 1
 128 0 l 1
 128 128 l 1
 0 128 l 1
 0 0 l 1
128 0 m 1
 256 0 l 1
 256 128 l 1
 128 128 l 1
 128 0 l 1
512 0 m 1
 640 0 l 1
 640 128 l 1
 512 128 l 1
 512 0 l 1
EndSplineSet
Validated: 5
EndChar

StartChar: o
Encoding: 111 111 73
Width: 768
Flags: W
LayerCount: 2
Fore
SplineSet
128 768 m 1
 256 768 l 1
 256 896 l 1
 128 896 l 1
 128 768 l 1
256 768 m 1
 384 768 l 1
 384 896 l 1
 256 896 l 1
 256 768 l 1
384 768 m 1
 512 768 l 1
 512 896 l 1
 384 896 l 1
 384 768 l 1
0 640 m 1
 128 640 l 1
 128 768 l 1
 0 768 l 1
 0 640 l 1
128 640 m 1
 256 640 l 1
 256 768 l 1
 128 768 l 1
 128 640 l 1
384 640 m 1
 512 640 l 1
 512 768 l 1
 384 768 l 1
 384 640 l 1
512 640 m 1
 640 640 l 1
 640 768 l 1
 512 768 l 1
 512 640 l 1
0 512 m 1
 128 512 l 1
 128 640 l 1
 0 640 l 1
 0 512 l 1
128 512 m 1
 256 512 l 1
 256 640 l 1
 128 640 l 1
 128 512 l 1
384 512 m 1
 512 512 l 1
 512 640 l 1
 384 640 l 1
 384 512 l 1
512 512 m 1
 640 512 l 1
 640 640 l 1
 512 640 l 1
 512 512 l 1
0 384 m 1
 128 384 l 1
 128 512 l 1
 0 512 l 1
 0 384 l 1
128 384 m 1
 256 384 l 1
 256 512 l 1
 128 512 l 1
 128 384 l 1
384 384 m 1
 512 384 l 1
 512 512 l 1
 384 512 l 1
 384 384 l 1
512 384 m 1
 640 384 l 1
 640 512 l 1
 512 512 l 1
 512 384 l 1
0 256 m 1
 128 256 l 1
 128 384 l 1
 0 384 l 1
 0 256 l 1
128 256 m 1
 256 256 l 1
 256 384 l 1
 128 384 l 1
 128 256 l 1
384 256 m 1
 512 256 l 1
 512 384 l 1
 384 384 l 1
 384 256 l 1
512 256 m 1
 640 256 l 1
 640 384 l 1
 512 384 l 1
 512 256 l 1
0 128 m 1
 128 128 l 1
 128 256 l 1
 0 256 l 1
 0 128 l 1
128 128 m 1
 256 128 l 1
 256 256 l 1
 128 256 l 1
 128 128 l 1
384 128 m 1
 512 128 l 1
 512 256 l 1
 384 256 l 1
 384 128 l 1
512 128 m 1
 640 128 l 1
 640 256 l 1
 512 256 l 1
 512 128 l 1
128 0 m 1
 256 0 l 1
 256 128 l 1
 128 128 l 1
 128 0 l 1
256 0 m 1
 384 0 l 1
 384 128 l 1
 256 128 l 1
 256 0 l 1
384 0 m 1
 512 0 l 1
 512 128 l 1
 384 128 l 1
 384 0 l 1
EndSplineSet
Validated: 5
EndChar

StartChar: p
Encoding: 112 112 74
Width: 768
Flags: W
LayerCount: 2
Fore
SplineSet
0 768 m 1
 128 768 l 1
 128 896 l 1
 0 896 l 1
 0 768 l 1
128 768 m 1
 256 768 l 1
 256 896 l 1
 128 896 l 1
 128 768 l 1
256 768 m 1
 384 768 l 1
 384 896 l 1
 256 896 l 1
 256 768 l 1
384 768 m 1
 512 768 l 1
 512 896 l 1
 384 896 l 1
 384 768 l 1
0 640 m 1
 128 640 l 1
 128 768 l 1
 0 768 l 1
 0 640 l 1
128 640 m 1
 256 640 l 1
 256 768 l 1
 128 768 l 1
 128 640 l 1
384 640 m 1
 512 640 l 1
 512 768 l 1
 384 768 l 1
 384 640 l 1
512 640 m 1
 640 640 l 1
 640 768 l 1
 512 768 l 1
 512 640 l 1
0 512 m 1
 128 512 l 1
 128 640 l 1
 0 640 l 1
 0 512 l 1
128 512 m 1
 256 512 l 1
 256 640 l 1
 128 640 l 1
 128 512 l 1
384 512 m 1
 512 512 l 1
 512 640 l 1
 384 640 l 1
 384 512 l 1
512 512 m 1
 640 512 l 1
 640 640 l 1
 512 640 l 1
 512 512 l 1
0 384 m 1
 128 384 l 1
 128 512 l 1
 0 512 l 1
 0 384 l 1
128 384 m 1
 256 384 l 1
 256 512 l 1
 128 512 l 1
 128 384 l 1
384 384 m 1
 512 384 l 1
 512 512 l 1
 384 512 l 1
 384 384 l 1
512 384 m 1
 640 384 l 1
 640 512 l 1
 512 512 l 1
 512 384 l 1
0 256 m 1
 128 256 l 1
 128 384 l 1
 0 384 l 1
 0 256 l 1
128 256 m 1
 256 256 l 1
 256 384 l 1
 128 384 l 1
 128 256 l 1
256 256 m 1
 384 256 l 1
 384 384 l 1
 256 384 l 1
 256 256 l 1
384 256 m 1
 512 256 l 1
 512 384 l 1
 384 384 l 1
 384 256 l 1
0 128 m 1
 128 128 l 1
 128 256 l 1
 0 256 l 1
 0 128 l 1
128 128 m 1
 256 128 l 1
 256 256 l 1
 128 256 l 1
 128 128 l 1
0 0 m 1
 128 0 l 1
 128 128 l 1
 0 128 l 1
 0 0 l 1
128 0 m 1
 256 0 l 1
 256 128 l 1
 128 128 l 1
 128 0 l 1
EndSplineSet
Validated: 5
EndChar

StartChar: q
Encoding: 113 113 75
Width: 768
Flags: W
LayerCount: 2
Fore
SplineSet
128 768 m 1
 256 768 l 1
 256 896 l 1
 128 896 l 1
 128 768 l 1
256 768 m 1
 384 768 l 1
 384 896 l 1
 256 896 l 1
 256 768 l 1
384 768 m 1
 512 768 l 1
 512 896 l 1
 384 896 l 1
 384 768 l 1
0 640 m 1
 128 640 l 1
 128 768 l 1
 0 768 l 1
 0 640 l 1
128 640 m 1
 256 640 l 1
 256 768 l 1
 128 768 l 1
 128 640 l 1
384 640 m 1
 512 640 l 1
 512 768 l 1
 384 768 l 1
 384 640 l 1
512 640 m 1
 640 640 l 1
 640 768 l 1
 512 768 l 1
 512 640 l 1
0 512 m 1
 128 512 l 1
 128 640 l 1
 0 640 l 1
 0 512 l 1
128 512 m 1
 256 512 l 1
 256 640 l 1
 128 640 l 1
 128 512 l 1
384 512 m 1
 512 512 l 1
 512 640 l 1
 384 640 l 1
 384 512 l 1
512 512 m 1
 640 512 l 1
 640 640 l 1
 512 640 l 1
 512 512 l 1
0 384 m 1
 128 384 l 1
 128 512 l 1
 0 512 l 1
 0 384 l 1
128 384 m 1
 256 384 l 1
 256 512 l 1
 128 512 l 1
 128 384 l 1
384 384 m 1
 512 384 l 1
 512 512 l 1
 384 512 l 1
 384 384 l 1
512 384 m 1
 640 384 l 1
 640 512 l 1
 512 512 l 1
 512 384 l 1
0 256 m 1
 128 256 l 1
 128 384 l 1
 0 384 l 1
 0 256 l 1
128 256 m 1
 256 256 l 1
 256 384 l 1
 128 384 l 1
 128 256 l 1
384 256 m 1
 512 256 l 1
 512 384 l 1
 384 384 l 1
 384 256 l 1
512 256 m 1
 640 256 l 1
 640 384 l 1
 512 384 l 1
 512 256 l 1
0 128 m 1
 128 128 l 1
 128 256 l 1
 0 256 l 1
 0 128 l 1
128 128 m 1
 256 128 l 1
 256 256 l 1
 128 256 l 1
 128 128 l 1
384 128 m 1
 512 128 l 1
 512 256 l 1
 384 256 l 1
 384 128 l 1
128 0 m 1
 256 0 l 1
 256 128 l 1
 128 128 l 1
 128 0 l 1
256 0 m 1
 384 0 l 1
 384 128 l 1
 256 128 l 1
 256 0 l 1
512 0 m 1
 640 0 l 1
 640 128 l 1
 512 128 l 1
 512 0 l 1
EndSplineSet
Validated: 5
EndChar

StartChar: r
Encoding: 114 114 76
Width: 768
Flags: W
LayerCount: 2
Fore
SplineSet
0 768 m 1
 128 768 l 1
 128 896 l 1
 0 896 l 1
 0 768 l 1
128 768 m 1
 256 768 l 1
 256 896 l 1
 128 896 l 1
 128 768 l 1
256 768 m 1
 384 768 l 1
 384 896 l 1
 256 896 l 1
 256 768 l 1
384 768 m 1
 512 768 l 1
 512 896 l 1
 384 896 l 1
 384 768 l 1
0 640 m 1
 128 640 l 1
 128 768 l 1
 0 768 l 1
 0 640 l 1
128 640 m 1
 256 640 l 1
 256 768 l 1
 128 768 l 1
 128 640 l 1
384 640 m 1
 512 640 l 1
 512 768 l 1
 384 768 l 1
 384 640 l 1
512 640 m 1
 640 640 l 1
 640 768 l 1
 512 768 l 1
 512 640 l 1
0 512 m 1
 128 512 l 1
 128 640 l 1
 0 640 l 1
 0 512 l 1
128 512 m 1
 256 512 l 1
 256 640 l 1
 128 640 l 1
 128 512 l 1
384 512 m 1
 512 512 l 1
 512 640 l 1
 384 640 l 1
 384 512 l 1
512 512 m 1
 640 512 l 1
 640 640 l 1
 512 640 l 1
 512 512 l 1
0 384 m 1
 128 384 l 1
 128 512 l 1
 0 512 l 1
 0 384 l 1
128 384 m 1
 256 384 l 1
 256 512 l 1
 128 512 l 1
 128 384 l 1
256 384 m 1
 384 384 l 1
 384 512 l 1
 256 512 l 1
 256 384 l 1
384 384 m 1
 512 384 l 1
 512 512 l 1
 384 512 l 1
 384 384 l 1
0 256 m 1
 128 256 l 1
 128 384 l 1
 0 384 l 1
 0 256 l 1
128 256 m 1
 256 256 l 1
 256 384 l 1
 128 384 l 1
 128 256 l 1
384 256 m 1
 512 256 l 1
 512 384 l 1
 384 384 l 1
 384 256 l 1
512 256 m 1
 640 256 l 1
 640 384 l 1
 512 384 l 1
 512 256 l 1
0 128 m 1
 128 128 l 1
 128 256 l 1
 0 256 l 1
 0 128 l 1
128 128 m 1
 256 128 l 1
 256 256 l 1
 128 256 l 1
 128 128 l 1
384 128 m 1
 512 128 l 1
 512 256 l 1
 384 256 l 1
 384 128 l 1
512 128 m 1
 640 128 l 1
 640 256 l 1
 512 256 l 1
 512 128 l 1
0 0 m 1
 128 0 l 1
 128 128 l 1
 0 128 l 1
 0 0 l 1
128 0 m 1
 256 0 l 1
 256 128 l 1
 128 128 l 1
 128 0 l 1
384 0 m 1
 512 0 l 1
 512 128 l 1
 384 128 l 1
 384 0 l 1
512 0 m 1
 640 0 l 1
 640 128 l 1
 512 128 l 1
 512 0 l 1
EndSplineSet
Validated: 5
EndChar

StartChar: s
Encoding: 115 115 77
Width: 768
Flags: W
LayerCount: 2
Fore
SplineSet
128 768 m 1
 256 768 l 1
 256 896 l 1
 128 896 l 1
 128 768 l 1
256 768 m 1
 384 768 l 1
 384 896 l 1
 256 896 l 1
 256 768 l 1
384 768 m 1
 512 768 l 1
 512 896 l 1
 384 896 l 1
 384 768 l 1
0 640 m 1
 128 640 l 1
 128 768 l 1
 0 768 l 1
 0 640 l 1
128 640 m 1
 256 640 l 1
 256 768 l 1
 128 768 l 1
 128 640 l 1
384 640 m 1
 512 640 l 1
 512 768 l 1
 384 768 l 1
 384 640 l 1
512 640 m 1
 640 640 l 1
 640 768 l 1
 512 768 l 1
 512 640 l 1
0 512 m 1
 128 512 l 1
 128 640 l 1
 0 640 l 1
 0 512 l 1
128 512 m 1
 256 512 l 1
 256 640 l 1
 128 640 l 1
 128 512 l 1
128 384 m 1
 256 384 l 1
 256 512 l 1
 128 512 l 1
 128 384 l 1
256 384 m 1
 384 384 l 1
 384 512 l 1
 256 512 l 1
 256 384 l 1
384 384 m 1
 512 384 l 1
 512 512 l 1
 384 512 l 1
 384 384 l 1
384 256 m 1
 512 256 l 1
 512 384 l 1
 384 384 l 1
 384 256 l 1
512 256 m 1
 640 256 l 1
 640 384 l 1
 512 384 l 1
 512 256 l 1
0 128 m 1
 128 128 l 1
 128 256 l 1
 0 256 l 1
 0 128 l 1
128 128 m 1
 256 128 l 1
 256 256 l 1
 128 256 l 1
 128 128 l 1
384 128 m 1
 512 128 l 1
 512 256 l 1
 384 256 l 1
 384 128 l 1
512 128 m 1
 640 128 l 1
 640 256 l 1
 512 256 l 1
 512 128 l 1
128 0 m 1
 256 0 l 1
 256 128 l 1
 128 128 l 1
 128 0 l 1
256 0 m 1
 384 0 l 1
 384 128 l 1
 256 128 l 1
 256 0 l 1
384 0 m 1
 512 0 l 1
 512 128 l 1
 384 128 l 1
 384 0 l 1
EndSplineSet
Validated: 5
EndChar

StartChar: t
Encoding: 116 116 78
Width: 640
Flags: W
LayerCount: 2
Fore
SplineSet
0 768 m 1
 128 768 l 1
 128 896 l 1
 0 896 l 1
 0 768 l 1
128 768 m 1
 256 768 l 1
 256 896 l 1
 128 896 l 1
 128 768 l 1
256 768 m 1
 384 768 l 1
 384 896 l 1
 256 896 l 1
 256 768 l 1
384 768 m 1
 512 768 l 1
 512 896 l 1
 384 896 l 1
 384 768 l 1
128 640 m 1
 256 640 l 1
 256 768 l 1
 128 768 l 1
 128 640 l 1
256 640 m 1
 384 640 l 1
 384 768 l 1
 256 768 l 1
 256 640 l 1
128 512 m 1
 256 512 l 1
 256 640 l 1
 128 640 l 1
 128 512 l 1
256 512 m 1
 384 512 l 1
 384 640 l 1
 256 640 l 1
 256 512 l 1
128 384 m 1
 256 384 l 1
 256 512 l 1
 128 512 l 1
 128 384 l 1
256 384 m 1
 384 384 l 1
 384 512 l 1
 256 512 l 1
 256 384 l 1
128 256 m 1
 256 256 l 1
 256 384 l 1
 128 384 l 1
 128 256 l 1
256 256 m 1
 384 256 l 1
 384 384 l 1
 256 384 l 1
 256 256 l 1
128 128 m 1
 256 128 l 1
 256 256 l 1
 128 256 l 1
 128 128 l 1
256 128 m 1
 384 128 l 1
 384 256 l 1
 256 256 l 1
 256 128 l 1
128 0 m 1
 256 0 l 1
 256 128 l 1
 128 128 l 1
 128 0 l 1
256 0 m 1
 384 0 l 1
 384 128 l 1
 256 128 l 1
 256 0 l 1
EndSplineSet
Validated: 5
EndChar

StartChar: u
Encoding: 117 117 79
Width: 768
Flags: W
LayerCount: 2
Fore
SplineSet
0 768 m 1
 128 768 l 1
 128 896 l 1
 0 896 l 1
 0 768 l 1
128 768 m 1
 256 768 l 1
 256 896 l 1
 128 896 l 1
 128 768 l 1
384 768 m 1
 512 768 l 1
 512 896 l 1
 384 896 l 1
 384 768 l 1
512 768 m 1
 640 768 l 1
 640 896 l 1
 512 896 l 1
 512 768 l 1
0 640 m 1
 128 640 l 1
 128 768 l 1
 0 768 l 1
 0 640 l 1
128 640 m 1
 256 640 l 1
 256 768 l 1
 128 768 l 1
 128 640 l 1
384 640 m 1
 512 640 l 1
 512 768 l 1
 384 768 l 1
 384 640 l 1
512 640 m 1
 640 640 l 1
 640 768 l 1
 512 768 l 1
 512 640 l 1
0 512 m 1
 128 512 l 1
 128 640 l 1
 0 640 l 1
 0 512 l 1
128 512 m 1
 256 512 l 1
 256 640 l 1
 128 640 l 1
 128 512 l 1
384 512 m 1
 512 512 l 1
 512 640 l 1
 384 640 l 1
 384 512 l 1
512 512 m 1
 640 512 l 1
 640 640 l 1
 512 640 l 1
 512 512 l 1
0 384 m 1
 128 384 l 1
 128 512 l 1
 0 512 l 1
 0 384 l 1
128 384 m 1
 256 384 l 1
 256 512 l 1
 128 512 l 1
 128 384 l 1
384 384 m 1
 512 384 l 1
 512 512 l 1
 384 512 l 1
 384 384 l 1
512 384 m 1
 640 384 l 1
 640 512 l 1
 512 512 l 1
 512 384 l 1
0 256 m 1
 128 256 l 1
 128 384 l 1
 0 384 l 1
 0 256 l 1
128 256 m 1
 256 256 l 1
 256 384 l 1
 128 384 l 1
 128 256 l 1
384 256 m 1
 512 256 l 1
 512 384 l 1
 384 384 l 1
 384 256 l 1
512 256 m 1
 640 256 l 1
 640 384 l 1
 512 384 l 1
 512 256 l 1
0 128 m 1
 128 128 l 1
 128 256 l 1
 0 256 l 1
 0 128 l 1
128 128 m 1
 256 128 l 1
 256 256 l 1
 128 256 l 1
 128 128 l 1
384 128 m 1
 512 128 l 1
 512 256 l 1
 384 256 l 1
 384 128 l 1
512 128 m 1
 640 128 l 1
 640 256 l 1
 512 256 l 1
 512 128 l 1
128 0 m 1
 256 0 l 1
 256 128 l 1
 128 128 l 1
 128 0 l 1
256 0 m 1
 384 0 l 1
 384 128 l 1
 256 128 l 1
 256 0 l 1
384 0 m 1
 512 0 l 1
 512 128 l 1
 384 128 l 1
 384 0 l 1
EndSplineSet
Validated: 5
EndChar

StartChar: v
Encoding: 118 118 80
Width: 768
Flags: W
LayerCount: 2
Fore
SplineSet
0 768 m 1
 128 768 l 1
 128 896 l 1
 0 896 l 1
 0 768 l 1
128 768 m 1
 256 768 l 1
 256 896 l 1
 128 896 l 1
 128 768 l 1
384 768 m 1
 512 768 l 1
 512 896 l 1
 384 896 l 1
 384 768 l 1
512 768 m 1
 640 768 l 1
 640 896 l 1
 512 896 l 1
 512 768 l 1
0 640 m 1
 128 640 l 1
 128 768 l 1
 0 768 l 1
 0 640 l 1
128 640 m 1
 256 640 l 1
 256 768 l 1
 128 768 l 1
 128 640 l 1
384 640 m 1
 512 640 l 1
 512 768 l 1
 384 768 l 1
 384 640 l 1
512 640 m 1
 640 640 l 1
 640 768 l 1
 512 768 l 1
 512 640 l 1
0 512 m 1
 128 512 l 1
 128 640 l 1
 0 640 l 1
 0 512 l 1
128 512 m 1
 256 512 l 1
 256 640 l 1
 128 640 l 1
 128 512 l 1
384 512 m 1
 512 512 l 1
 512 640 l 1
 384 640 l 1
 384 512 l 1
512 512 m 1
 640 512 l 1
 640 640 l 1
 512 640 l 1
 512 512 l 1
0 384 m 1
 128 384 l 1
 128 512 l 1
 0 512 l 1
 0 384 l 1
128 384 m 1
 256 384 l 1
 256 512 l 1
 128 512 l 1
 128 384 l 1
384 384 m 1
 512 384 l 1
 512 512 l 1
 384 512 l 1
 384 384 l 1
512 384 m 1
 640 384 l 1
 640 512 l 1
 512 512 l 1
 512 384 l 1
0 256 m 1
 128 256 l 1
 128 384 l 1
 0 384 l 1
 0 256 l 1
128 256 m 1
 256 256 l 1
 256 384 l 1
 128 384 l 1
 128 256 l 1
384 256 m 1
 512 256 l 1
 512 384 l 1
 384 384 l 1
 384 256 l 1
512 256 m 1
 640 256 l 1
 640 384 l 1
 512 384 l 1
 512 256 l 1
128 128 m 1
 256 128 l 1
 256 256 l 1
 128 256 l 1
 128 128 l 1
384 128 m 1
 512 128 l 1
 512 256 l 1
 384 256 l 1
 384 128 l 1
128 0 m 1
 256 0 l 1
 256 128 l 1
 128 128 l 1
 128 0 l 1
256 0 m 1
 384 0 l 1
 384 128 l 1
 256 128 l 1
 256 0 l 1
384 0 m 1
 512 0 l 1
 512 128 l 1
 384 128 l 1
 384 0 l 1
EndSplineSet
Validated: 5
EndChar

StartChar: w
Encoding: 119 119 81
Width: 1024
Flags: W
LayerCount: 2
Fore
SplineSet
0 768 m 1
 128 768 l 1
 128 896 l 1
 0 896 l 1
 0 768 l 1
128 768 m 1
 256 768 l 1
 256 896 l 1
 128 896 l 1
 128 768 l 1
640 768 m 1
 768 768 l 1
 768 896 l 1
 640 896 l 1
 640 768 l 1
768 768 m 1
 896 768 l 1
 896 896 l 1
 768 896 l 1
 768 768 l 1
0 640 m 1
 128 640 l 1
 128 768 l 1
 0 768 l 1
 0 640 l 1
128 640 m 1
 256 640 l 1
 256 768 l 1
 128 768 l 1
 128 640 l 1
640 640 m 1
 768 640 l 1
 768 768 l 1
 640 768 l 1
 640 640 l 1
768 640 m 1
 896 640 l 1
 896 768 l 1
 768 768 l 1
 768 640 l 1
0 512 m 1
 128 512 l 1
 128 640 l 1
 0 640 l 1
 0 512 l 1
128 512 m 1
 256 512 l 1
 256 640 l 1
 128 640 l 1
 128 512 l 1
640 512 m 1
 768 512 l 1
 768 640 l 1
 640 640 l 1
 640 512 l 1
768 512 m 1
 896 512 l 1
 896 640 l 1
 768 640 l 1
 768 512 l 1
0 384 m 1
 128 384 l 1
 128 512 l 1
 0 512 l 1
 0 384 l 1
128 384 m 1
 256 384 l 1
 256 512 l 1
 128 512 l 1
 128 384 l 1
640 384 m 1
 768 384 l 1
 768 512 l 1
 640 512 l 1
 640 384 l 1
768 384 m 1
 896 384 l 1
 896 512 l 1
 768 512 l 1
 768 384 l 1
0 256 m 1
 128 256 l 1
 128 384 l 1
 0 384 l 1
 0 256 l 1
128 256 m 1
 256 256 l 1
 256 384 l 1
 128 384 l 1
 128 256 l 1
384 256 m 1
 512 256 l 1
 512 384 l 1
 384 384 l 1
 384 256 l 1
640 256 m 1
 768 256 l 1
 768 384 l 1
 640 384 l 1
 640 256 l 1
768 256 m 1
 896 256 l 1
 896 384 l 1
 768 384 l 1
 768 256 l 1
128 128 m 1
 256 128 l 1
 256 256 l 1
 128 256 l 1
 128 128 l 1
384 128 m 1
 512 128 l 1
 512 256 l 1
 384 256 l 1
 384 128 l 1
640 128 m 1
 768 128 l 1
 768 256 l 1
 640 256 l 1
 640 128 l 1
128 0 m 1
 256 0 l 1
 256 128 l 1
 128 128 l 1
 128 0 l 1
256 0 m 1
 384 0 l 1
 384 128 l 1
 256 128 l 1
 256 0 l 1
384 0 m 1
 512 0 l 1
 512 128 l 1
 384 128 l 1
 384 0 l 1
512 0 m 1
 640 0 l 1
 640 128 l 1
 512 128 l 1
 512 0 l 1
640 0 m 1
 768 0 l 1
 768 128 l 1
 640 128 l 1
 640 0 l 1
EndSplineSet
Validated: 5
EndChar

StartChar: x
Encoding: 120 120 82
Width: 768
Flags: W
LayerCount: 2
Fore
SplineSet
0 768 m 1
 128 768 l 1
 128 896 l 1
 0 896 l 1
 0 768 l 1
128 768 m 1
 256 768 l 1
 256 896 l 1
 128 896 l 1
 128 768 l 1
384 768 m 1
 512 768 l 1
 512 896 l 1
 384 896 l 1
 384 768 l 1
512 768 m 1
 640 768 l 1
 640 896 l 1
 512 896 l 1
 512 768 l 1
0 640 m 1
 128 640 l 1
 128 768 l 1
 0 768 l 1
 0 640 l 1
128 640 m 1
 256 640 l 1
 256 768 l 1
 128 768 l 1
 128 640 l 1
384 640 m 1
 512 640 l 1
 512 768 l 1
 384 768 l 1
 384 640 l 1
512 640 m 1
 640 640 l 1
 640 768 l 1
 512 768 l 1
 512 640 l 1
0 512 m 1
 128 512 l 1
 128 640 l 1
 0 640 l 1
 0 512 l 1
128 512 m 1
 256 512 l 1
 256 640 l 1
 128 640 l 1
 128 512 l 1
384 512 m 1
 512 512 l 1
 512 640 l 1
 384 640 l 1
 384 512 l 1
512 512 m 1
 640 512 l 1
 640 640 l 1
 512 640 l 1
 512 512 l 1
128 384 m 1
 256 384 l 1
 256 512 l 1
 128 512 l 1
 128 384 l 1
256 384 m 1
 384 384 l 1
 384 512 l 1
 256 512 l 1
 256 384 l 1
384 384 m 1
 512 384 l 1
 512 512 l 1
 384 512 l 1
 384 384 l 1
0 256 m 1
 128 256 l 1
 128 384 l 1
 0 384 l 1
 0 256 l 1
128 256 m 1
 256 256 l 1
 256 384 l 1
 128 384 l 1
 128 256 l 1
384 256 m 1
 512 256 l 1
 512 384 l 1
 384 384 l 1
 384 256 l 1
512 256 m 1
 640 256 l 1
 640 384 l 1
 512 384 l 1
 512 256 l 1
0 128 m 1
 128 128 l 1
 128 256 l 1
 0 256 l 1
 0 128 l 1
128 128 m 1
 256 128 l 1
 256 256 l 1
 128 256 l 1
 128 128 l 1
384 128 m 1
 512 128 l 1
 512 256 l 1
 384 256 l 1
 384 128 l 1
512 128 m 1
 640 128 l 1
 640 256 l 1
 512 256 l 1
 512 128 l 1
0 0 m 1
 128 0 l 1
 128 128 l 1
 0 128 l 1
 0 0 l 1
128 0 m 1
 256 0 l 1
 256 128 l 1
 128 128 l 1
 128 0 l 1
384 0 m 1
 512 0 l 1
 512 128 l 1
 384 128 l 1
 384 0 l 1
512 0 m 1
 640 0 l 1
 640 128 l 1
 512 128 l 1
 512 0 l 1
EndSplineSet
Validated: 5
EndChar

StartChar: y
Encoding: 121 121 83
Width: 768
Flags: W
LayerCount: 2
Fore
SplineSet
0 768 m 1
 128 768 l 1
 128 896 l 1
 0 896 l 1
 0 768 l 1
128 768 m 1
 256 768 l 1
 256 896 l 1
 128 896 l 1
 128 768 l 1
384 768 m 1
 512 768 l 1
 512 896 l 1
 384 896 l 1
 384 768 l 1
512 768 m 1
 640 768 l 1
 640 896 l 1
 512 896 l 1
 512 768 l 1
0 640 m 1
 128 640 l 1
 128 768 l 1
 0 768 l 1
 0 640 l 1
128 640 m 1
 256 640 l 1
 256 768 l 1
 128 768 l 1
 128 640 l 1
384 640 m 1
 512 640 l 1
 512 768 l 1
 384 768 l 1
 384 640 l 1
512 640 m 1
 640 640 l 1
 640 768 l 1
 512 768 l 1
 512 640 l 1
0 512 m 1
 128 512 l 1
 128 640 l 1
 0 640 l 1
 0 512 l 1
128 512 m 1
 256 512 l 1
 256 640 l 1
 128 640 l 1
 128 512 l 1
384 512 m 1
 512 512 l 1
 512 640 l 1
 384 640 l 1
 384 512 l 1
512 512 m 1
 640 512 l 1
 640 640 l 1
 512 640 l 1
 512 512 l 1
128 384 m 1
 256 384 l 1
 256 512 l 1
 128 512 l 1
 128 384 l 1
256 384 m 1
 384 384 l 1
 384 512 l 1
 256 512 l 1
 256 384 l 1
384 384 m 1
 512 384 l 1
 512 512 l 1
 384 512 l 1
 384 384 l 1
512 384 m 1
 640 384 l 1
 640 512 l 1
 512 512 l 1
 512 384 l 1
384 256 m 1
 512 256 l 1
 512 384 l 1
 384 384 l 1
 384 256 l 1
512 256 m 1
 640 256 l 1
 640 384 l 1
 512 384 l 1
 512 256 l 1
384 128 m 1
 512 128 l 1
 512 256 l 1
 384 256 l 1
 384 128 l 1
512 128 m 1
 640 128 l 1
 640 256 l 1
 512 256 l 1
 512 128 l 1
0 0 m 1
 128 0 l 1
 128 128 l 1
 0 128 l 1
 0 0 l 1
128 0 m 1
 256 0 l 1
 256 128 l 1
 128 128 l 1
 128 0 l 1
256 0 m 1
 384 0 l 1
 384 128 l 1
 256 128 l 1
 256 0 l 1
384 0 m 1
 512 0 l 1
 512 128 l 1
 384 128 l 1
 384 0 l 1
EndSplineSet
Validated: 5
EndChar

StartChar: z
Encoding: 122 122 84
Width: 640
Flags: W
LayerCount: 2
Fore
SplineSet
0 768 m 1
 128 768 l 1
 128 896 l 1
 0 896 l 1
 0 768 l 1
128 768 m 1
 256 768 l 1
 256 896 l 1
 128 896 l 1
 128 768 l 1
256 768 m 1
 384 768 l 1
 384 896 l 1
 256 896 l 1
 256 768 l 1
384 768 m 1
 512 768 l 1
 512 896 l 1
 384 896 l 1
 384 768 l 1
256 640 m 1
 384 640 l 1
 384 768 l 1
 256 768 l 1
 256 640 l 1
384 640 m 1
 512 640 l 1
 512 768 l 1
 384 768 l 1
 384 640 l 1
128 512 m 1
 256 512 l 1
 256 640 l 1
 128 640 l 1
 128 512 l 1
256 512 m 1
 384 512 l 1
 384 640 l 1
 256 640 l 1
 256 512 l 1
128 384 m 1
 256 384 l 1
 256 512 l 1
 128 512 l 1
 128 384 l 1
256 384 m 1
 384 384 l 1
 384 512 l 1
 256 512 l 1
 256 384 l 1
0 256 m 1
 128 256 l 1
 128 384 l 1
 0 384 l 1
 0 256 l 1
128 256 m 1
 256 256 l 1
 256 384 l 1
 128 384 l 1
 128 256 l 1
0 128 m 1
 128 128 l 1
 128 256 l 1
 0 256 l 1
 0 128 l 1
128 128 m 1
 256 128 l 1
 256 256 l 1
 128 256 l 1
 128 128 l 1
0 0 m 1
 128 0 l 1
 128 128 l 1
 0 128 l 1
 0 0 l 1
128 0 m 1
 256 0 l 1
 256 128 l 1
 128 128 l 1
 128 0 l 1
256 0 m 1
 384 0 l 1
 384 128 l 1
 256 128 l 1
 256 0 l 1
384 0 m 1
 512 0 l 1
 512 128 l 1
 384 128 l 1
 384 0 l 1
EndSplineSet
Validated: 5
EndChar

StartChar: uni0410
Encoding: 1040 1040 85
Width: 768
VWidth: -32768
Flags: W
LayerCount: 2
Fore
SplineSet
128 768 m 1
 256 768 l 1
 256 896 l 1
 128 896 l 1
 128 768 l 1
256 768 m 1
 384 768 l 1
 384 896 l 1
 256 896 l 1
 256 768 l 1
384 768 m 1
 512 768 l 1
 512 896 l 1
 384 896 l 1
 384 768 l 1
512 768 m 1
 640 768 l 1
 640 896 l 1
 512 896 l 1
 512 768 l 1
0 640 m 1
 128 640 l 1
 128 768 l 1
 0 768 l 1
 0 640 l 1
128 640 m 1
 256 640 l 1
 256 768 l 1
 128 768 l 1
 128 640 l 1
512 640 m 1
 640 640 l 1
 640 768 l 1
 512 768 l 1
 512 640 l 1
640 640 m 1
 768 640 l 1
 768 768 l 1
 640 768 l 1
 640 640 l 1
0 512 m 1
 128 512 l 1
 128 640 l 1
 0 640 l 1
 0 512 l 1
128 512 m 1
 256 512 l 1
 256 640 l 1
 128 640 l 1
 128 512 l 1
512 512 m 1
 640 512 l 1
 640 640 l 1
 512 640 l 1
 512 512 l 1
640 512 m 1
 768 512 l 1
 768 640 l 1
 640 640 l 1
 640 512 l 1
0 384 m 1
 128 384 l 1
 128 512 l 1
 0 512 l 1
 0 384 l 1
128 384 m 1
 256 384 l 1
 256 512 l 1
 128 512 l 1
 128 384 l 1
512 384 m 1
 640 384 l 1
 640 512 l 1
 512 512 l 1
 512 384 l 1
640 384 m 1
 768 384 l 1
 768 512 l 1
 640 512 l 1
 640 384 l 1
0 256 m 1
 128 256 l 1
 128 384 l 1
 0 384 l 1
 0 256 l 1
128 256 m 1
 256 256 l 1
 256 384 l 1
 128 384 l 1
 128 256 l 1
256 256 m 1
 384 256 l 1
 384 384 l 1
 256 384 l 1
 256 256 l 1
384 256 m 1
 512 256 l 1
 512 384 l 1
 384 384 l 1
 384 256 l 1
512 256 m 1
 640 256 l 1
 640 384 l 1
 512 384 l 1
 512 256 l 1
640 256 m 1
 768 256 l 1
 768 384 l 1
 640 384 l 1
 640 256 l 1
0 128 m 1
 128 128 l 1
 128 256 l 1
 0 256 l 1
 0 128 l 1
128 128 m 1
 256 128 l 1
 256 256 l 1
 128 256 l 1
 128 128 l 1
512 128 m 1
 640 128 l 1
 640 256 l 1
 512 256 l 1
 512 128 l 1
640 128 m 1
 768 128 l 1
 768 256 l 1
 640 256 l 1
 640 128 l 1
0 0 m 1
 128 0 l 1
 128 128 l 1
 0 128 l 1
 0 0 l 1
128 0 m 1
 256 0 l 1
 256 128 l 1
 128 128 l 1
 128 0 l 1
512 0 m 1
 640 0 l 1
 640 128 l 1
 512 128 l 1
 512 0 l 1
640 0 m 1
 768 0 l 1
 768 128 l 1
 640 128 l 1
 640 0 l 1
EndSplineSet
Validated: 5
EndChar

StartChar: uni0412
Encoding: 1042 1042 86
Width: 768
VWidth: 896
Flags: W
LayerCount: 2
Fore
SplineSet
0 768 m 1
 128 768 l 1
 128 896 l 1
 0 896 l 1
 0 768 l 1
128 768 m 1
 256 768 l 1
 256 896 l 1
 128 896 l 1
 128 768 l 1
256 768 m 1
 384 768 l 1
 384 896 l 1
 256 896 l 1
 256 768 l 1
384 768 m 1
 512 768 l 1
 512 896 l 1
 384 896 l 1
 384 768 l 1
512 768 m 1
 640 768 l 1
 640 896 l 1
 512 896 l 1
 512 768 l 1
0 640 m 1
 128 640 l 1
 128 768 l 1
 0 768 l 1
 0 640 l 1
128 640 m 1
 256 640 l 1
 256 768 l 1
 128 768 l 1
 128 640 l 1
512 640 m 1
 640 640 l 1
 640 768 l 1
 512 768 l 1
 512 640 l 1
640 640 m 1
 768 640 l 1
 768 768 l 1
 640 768 l 1
 640 640 l 1
0 512 m 1
 128 512 l 1
 128 640 l 1
 0 640 l 1
 0 512 l 1
128 512 m 1
 256 512 l 1
 256 640 l 1
 128 640 l 1
 128 512 l 1
512 512 m 1
 640 512 l 1
 640 640 l 1
 512 640 l 1
 512 512 l 1
640 512 m 1
 768 512 l 1
 768 640 l 1
 640 640 l 1
 640 512 l 1
0 384 m 1
 128 384 l 1
 128 512 l 1
 0 512 l 1
 0 384 l 1
128 384 m 1
 256 384 l 1
 256 512 l 1
 128 512 l 1
 128 384 l 1
256 384 m 1
 384 384 l 1
 384 512 l 1
 256 512 l 1
 256 384 l 1
384 384 m 1
 512 384 l 1
 512 512 l 1
 384 512 l 1
 384 384 l 1
512 384 m 1
 640 384 l 1
 640 512 l 1
 512 512 l 1
 512 384 l 1
0 256 m 1
 128 256 l 1
 128 384 l 1
 0 384 l 1
 0 256 l 1
128 256 m 1
 256 256 l 1
 256 384 l 1
 128 384 l 1
 128 256 l 1
512 256 m 1
 640 256 l 1
 640 384 l 1
 512 384 l 1
 512 256 l 1
640 256 m 1
 768 256 l 1
 768 384 l 1
 640 384 l 1
 640 256 l 1
0 128 m 1
 128 128 l 1
 128 256 l 1
 0 256 l 1
 0 128 l 1
128 128 m 1
 256 128 l 1
 256 256 l 1
 128 256 l 1
 128 128 l 1
512 128 m 1
 640 128 l 1
 640 256 l 1
 512 256 l 1
 512 128 l 1
640 128 m 1
 768 128 l 1
 768 256 l 1
 640 256 l 1
 640 128 l 1
0 0 m 1
 128 0 l 1
 128 128 l 1
 0 128 l 1
 0 0 l 1
128 0 m 1
 256 0 l 1
 256 128 l 1
 128 128 l 1
 128 0 l 1
256 0 m 1
 384 0 l 1
 384 128 l 1
 256 128 l 1
 256 0 l 1
384 0 m 1
 512 0 l 1
 512 128 l 1
 384 128 l 1
 384 0 l 1
512 0 m 1
 640 0 l 1
 640 128 l 1
 512 128 l 1
 512 0 l 1
EndSplineSet
Validated: 5
EndChar

StartChar: uni0421
Encoding: 1057 1057 87
Width: 768
VWidth: 896
Flags: W
LayerCount: 2
Fore
SplineSet
128 768 m 1
 256 768 l 1
 256 896 l 1
 128 896 l 1
 128 768 l 1
256 768 m 1
 384 768 l 1
 384 896 l 1
 256 896 l 1
 256 768 l 1
384 768 m 1
 512 768 l 1
 512 896 l 1
 384 896 l 1
 384 768 l 1
512 768 m 1
 640 768 l 1
 640 896 l 1
 512 896 l 1
 512 768 l 1
0 640 m 1
 128 640 l 1
 128 768 l 1
 0 768 l 1
 0 640 l 1
128 640 m 1
 256 640 l 1
 256 768 l 1
 128 768 l 1
 128 640 l 1
512 640 m 1
 640 640 l 1
 640 768 l 1
 512 768 l 1
 512 640 l 1
640 640 m 1
 768 640 l 1
 768 768 l 1
 640 768 l 1
 640 640 l 1
0 512 m 1
 128 512 l 1
 128 640 l 1
 0 640 l 1
 0 512 l 1
128 512 m 1
 256 512 l 1
 256 640 l 1
 128 640 l 1
 128 512 l 1
0 384 m 1
 128 384 l 1
 128 512 l 1
 0 512 l 1
 0 384 l 1
128 384 m 1
 256 384 l 1
 256 512 l 1
 128 512 l 1
 128 384 l 1
0 256 m 1
 128 256 l 1
 128 384 l 1
 0 384 l 1
 0 256 l 1
128 256 m 1
 256 256 l 1
 256 384 l 1
 128 384 l 1
 128 256 l 1
0 128 m 1
 128 128 l 1
 128 256 l 1
 0 256 l 1
 0 128 l 1
128 128 m 1
 256 128 l 1
 256 256 l 1
 128 256 l 1
 128 128 l 1
512 128 m 1
 640 128 l 1
 640 256 l 1
 512 256 l 1
 512 128 l 1
640 128 m 1
 768 128 l 1
 768 256 l 1
 640 256 l 1
 640 128 l 1
128 0 m 1
 256 0 l 1
 256 128 l 1
 128 128 l 1
 128 0 l 1
256 0 m 1
 384 0 l 1
 384 128 l 1
 256 128 l 1
 256 0 l 1
384 0 m 1
 512 0 l 1
 512 128 l 1
 384 128 l 1
 384 0 l 1
512 0 m 1
 640 0 l 1
 640 128 l 1
 512 128 l 1
 512 0 l 1
EndSplineSet
Validated: 5
EndChar

StartChar: uni0415
Encoding: 1045 1045 88
Width: 640
VWidth: 896
Flags: W
LayerCount: 2
Fore
SplineSet
0 768 m 1
 128 768 l 1
 128 896 l 1
 0 896 l 1
 0 768 l 1
128 768 m 1
 256 768 l 1
 256 896 l 1
 128 896 l 1
 128 768 l 1
256 768 m 1
 384 768 l 1
 384 896 l 1
 256 896 l 1
 256 768 l 1
384 768 m 1
 512 768 l 1
 512 896 l 1
 384 896 l 1
 384 768 l 1
512 768 m 1
 640 768 l 1
 640 896 l 1
 512 896 l 1
 512 768 l 1
0 640 m 1
 128 640 l 1
 128 768 l 1
 0 768 l 1
 0 640 l 1
128 640 m 1
 256 640 l 1
 256 768 l 1
 128 768 l 1
 128 640 l 1
0 512 m 1
 128 512 l 1
 128 640 l 1
 0 640 l 1
 0 512 l 1
128 512 m 1
 256 512 l 1
 256 640 l 1
 128 640 l 1
 128 512 l 1
0 384 m 1
 128 384 l 1
 128 512 l 1
 0 512 l 1
 0 384 l 1
128 384 m 1
 256 384 l 1
 256 512 l 1
 128 512 l 1
 128 384 l 1
256 384 m 1
 384 384 l 1
 384 512 l 1
 256 512 l 1
 256 384 l 1
384 384 m 1
 512 384 l 1
 512 512 l 1
 384 512 l 1
 384 384 l 1
0 256 m 1
 128 256 l 1
 128 384 l 1
 0 384 l 1
 0 256 l 1
128 256 m 1
 256 256 l 1
 256 384 l 1
 128 384 l 1
 128 256 l 1
0 128 m 1
 128 128 l 1
 128 256 l 1
 0 256 l 1
 0 128 l 1
128 128 m 1
 256 128 l 1
 256 256 l 1
 128 256 l 1
 128 128 l 1
0 0 m 1
 128 0 l 1
 128 128 l 1
 0 128 l 1
 0 0 l 1
128 0 m 1
 256 0 l 1
 256 128 l 1
 128 128 l 1
 128 0 l 1
256 0 m 1
 384 0 l 1
 384 128 l 1
 256 128 l 1
 256 0 l 1
384 0 m 1
 512 0 l 1
 512 128 l 1
 384 128 l 1
 384 0 l 1
512 0 m 1
 640 0 l 1
 640 128 l 1
 512 128 l 1
 512 0 l 1
EndSplineSet
Validated: 5
EndChar

StartChar: uni041D
Encoding: 1053 1053 89
Width: 768
VWidth: 896
Flags: W
LayerCount: 2
Fore
SplineSet
0 768 m 5
 128 768 l 5
 128 896 l 5
 0 896 l 5
 0 768 l 5
128 768 m 5
 256 768 l 5
 256 896 l 5
 128 896 l 5
 128 768 l 5
512 768 m 5
 640 768 l 5
 640 896 l 5
 512 896 l 5
 512 768 l 5
640 768 m 5
 768 768 l 5
 768 896 l 5
 640 896 l 5
 640 768 l 5
0 640 m 5
 128 640 l 5
 128 768 l 5
 0 768 l 5
 0 640 l 5
128 640 m 5
 256 640 l 5
 256 768 l 5
 128 768 l 5
 128 640 l 5
512 640 m 5
 640 640 l 5
 640 768 l 5
 512 768 l 5
 512 640 l 5
640 640 m 5
 768 640 l 5
 768 768 l 5
 640 768 l 5
 640 640 l 5
0 512 m 5
 128 512 l 5
 128 640 l 5
 0 640 l 5
 0 512 l 5
128 512 m 5
 256 512 l 5
 256 640 l 5
 128 640 l 5
 128 512 l 5
512 512 m 5
 640 512 l 5
 640 640 l 5
 512 640 l 5
 512 512 l 5
640 512 m 5
 768 512 l 5
 768 640 l 5
 640 640 l 5
 640 512 l 5
0 384 m 5
 128 384 l 5
 128 512 l 5
 0 512 l 5
 0 384 l 5
128 384 m 5
 256 384 l 5
 256 512 l 5
 128 512 l 5
 128 384 l 5
256 384 m 5
 384 384 l 5
 384 512 l 5
 256 512 l 5
 256 384 l 5
384 384 m 5
 512 384 l 5
 512 512 l 5
 384 512 l 5
 384 384 l 5
512 384 m 5
 640 384 l 5
 640 512 l 5
 512 512 l 5
 512 384 l 5
640 384 m 5
 768 384 l 5
 768 512 l 5
 640 512 l 5
 640 384 l 5
0 256 m 5
 128 256 l 5
 128 384 l 5
 0 384 l 5
 0 256 l 5
128 256 m 5
 256 256 l 5
 256 384 l 5
 128 384 l 5
 128 256 l 5
512 256 m 5
 640 256 l 5
 640 384 l 5
 512 384 l 5
 512 256 l 5
640 256 m 5
 768 256 l 5
 768 384 l 5
 640 384 l 5
 640 256 l 5
0 128 m 5
 128 128 l 5
 128 256 l 5
 0 256 l 5
 0 128 l 5
128 128 m 5
 256 128 l 5
 256 256 l 5
 128 256 l 5
 128 128 l 5
512 128 m 5
 640 128 l 5
 640 256 l 5
 512 256 l 5
 512 128 l 5
640 128 m 5
 768 128 l 5
 768 256 l 5
 640 256 l 5
 640 128 l 5
0 0 m 5
 128 0 l 5
 128 128 l 5
 0 128 l 5
 0 0 l 5
128 0 m 5
 256 0 l 5
 256 128 l 5
 128 128 l 5
 128 0 l 5
512 0 m 5
 640 0 l 5
 640 128 l 5
 512 128 l 5
 512 0 l 5
640 0 m 5
 768 0 l 5
 768 128 l 5
 640 128 l 5
 640 0 l 5
EndSplineSet
Validated: 5
EndChar

StartChar: uni041A
Encoding: 1050 1050 90
Width: 768
VWidth: 896
Flags: W
LayerCount: 2
Fore
SplineSet
0 768 m 1
 128 768 l 1
 128 896 l 1
 0 896 l 1
 0 768 l 1
128 768 m 1
 256 768 l 1
 256 896 l 1
 128 896 l 1
 128 768 l 1
512 768 m 1
 640 768 l 1
 640 896 l 1
 512 896 l 1
 512 768 l 1
640 768 m 1
 768 768 l 1
 768 896 l 1
 640 896 l 1
 640 768 l 1
0 640 m 1
 128 640 l 1
 128 768 l 1
 0 768 l 1
 0 640 l 1
128 640 m 1
 256 640 l 1
 256 768 l 1
 128 768 l 1
 128 640 l 1
384 640 m 1
 512 640 l 1
 512 768 l 1
 384 768 l 1
 384 640 l 1
512 640 m 1
 640 640 l 1
 640 768 l 1
 512 768 l 1
 512 640 l 1
0 512 m 1
 128 512 l 1
 128 640 l 1
 0 640 l 1
 0 512 l 1
128 512 m 1
 256 512 l 1
 256 640 l 1
 128 640 l 1
 128 512 l 1
256 512 m 1
 384 512 l 1
 384 640 l 1
 256 640 l 1
 256 512 l 1
384 512 m 1
 512 512 l 1
 512 640 l 1
 384 640 l 1
 384 512 l 1
0 384 m 1
 128 384 l 1
 128 512 l 1
 0 512 l 1
 0 384 l 1
128 384 m 1
 256 384 l 1
 256 512 l 1
 128 512 l 1
 128 384 l 1
256 384 m 1
 384 384 l 1
 384 512 l 1
 256 512 l 1
 256 384 l 1
0 256 m 1
 128 256 l 1
 128 384 l 1
 0 384 l 1
 0 256 l 1
128 256 m 1
 256 256 l 1
 256 384 l 1
 128 384 l 1
 128 256 l 1
256 256 m 1
 384 256 l 1
 384 384 l 1
 256 384 l 1
 256 256 l 1
384 256 m 1
 512 256 l 1
 512 384 l 1
 384 384 l 1
 384 256 l 1
0 128 m 1
 128 128 l 1
 128 256 l 1
 0 256 l 1
 0 128 l 1
128 128 m 1
 256 128 l 1
 256 256 l 1
 128 256 l 1
 128 128 l 1
384 128 m 1
 512 128 l 1
 512 256 l 1
 384 256 l 1
 384 128 l 1
512 128 m 1
 640 128 l 1
 640 256 l 1
 512 256 l 1
 512 128 l 1
0 0 m 1
 128 0 l 1
 128 128 l 1
 0 128 l 1
 0 0 l 1
128 0 m 1
 256 0 l 1
 256 128 l 1
 128 128 l 1
 128 0 l 1
512 0 m 1
 640 0 l 1
 640 128 l 1
 512 128 l 1
 512 0 l 1
640 0 m 1
 768 0 l 1
 768 128 l 1
 640 128 l 1
 640 0 l 1
EndSplineSet
Validated: 5
EndChar

StartChar: uni041C
Encoding: 1052 1052 91
Width: 1024
VWidth: 896
Flags: W
LayerCount: 2
Fore
SplineSet
0 768 m 1
 128 768 l 1
 128 896 l 1
 0 896 l 1
 0 768 l 1
768 768 m 1
 896 768 l 1
 896 896 l 1
 768 896 l 1
 768 768 l 1
0 640 m 1
 128 640 l 1
 128 768 l 1
 0 768 l 1
 0 640 l 1
128 640 m 1
 256 640 l 1
 256 768 l 1
 128 768 l 1
 128 640 l 1
640 640 m 1
 768 640 l 1
 768 768 l 1
 640 768 l 1
 640 640 l 1
768 640 m 1
 896 640 l 1
 896 768 l 1
 768 768 l 1
 768 640 l 1
0 512 m 1
 128 512 l 1
 128 640 l 1
 0 640 l 1
 0 512 l 1
128 512 m 1
 256 512 l 1
 256 640 l 1
 128 640 l 1
 128 512 l 1
256 512 m 1
 384 512 l 1
 384 640 l 1
 256 640 l 1
 256 512 l 1
512 512 m 1
 640 512 l 1
 640 640 l 1
 512 640 l 1
 512 512 l 1
640 512 m 1
 768 512 l 1
 768 640 l 1
 640 640 l 1
 640 512 l 1
768 512 m 1
 896 512 l 1
 896 640 l 1
 768 640 l 1
 768 512 l 1
0 384 m 1
 128 384 l 1
 128 512 l 1
 0 512 l 1
 0 384 l 1
128 384 m 1
 256 384 l 1
 256 512 l 1
 128 512 l 1
 128 384 l 1
256 384 m 1
 384 384 l 1
 384 512 l 1
 256 512 l 1
 256 384 l 1
384 384 m 1
 512 384 l 1
 512 512 l 1
 384 512 l 1
 384 384 l 1
512 384 m 1
 640 384 l 1
 640 512 l 1
 512 512 l 1
 512 384 l 1
640 384 m 1
 768 384 l 1
 768 512 l 1
 640 512 l 1
 640 384 l 1
768 384 m 1
 896 384 l 1
 896 512 l 1
 768 512 l 1
 768 384 l 1
0 256 m 1
 128 256 l 1
 128 384 l 1
 0 384 l 1
 0 256 l 1
128 256 m 1
 256 256 l 1
 256 384 l 1
 128 384 l 1
 128 256 l 1
384 256 m 1
 512 256 l 1
 512 384 l 1
 384 384 l 1
 384 256 l 1
640 256 m 1
 768 256 l 1
 768 384 l 1
 640 384 l 1
 640 256 l 1
768 256 m 1
 896 256 l 1
 896 384 l 1
 768 384 l 1
 768 256 l 1
0 128 m 1
 128 128 l 1
 128 256 l 1
 0 256 l 1
 0 128 l 1
128 128 m 1
 256 128 l 1
 256 256 l 1
 128 256 l 1
 128 128 l 1
640 128 m 1
 768 128 l 1
 768 256 l 1
 640 256 l 1
 640 128 l 1
768 128 m 1
 896 128 l 1
 896 256 l 1
 768 256 l 1
 768 128 l 1
0 0 m 1
 128 0 l 1
 128 128 l 1
 0 128 l 1
 0 0 l 1
128 0 m 1
 256 0 l 1
 256 128 l 1
 128 128 l 1
 128 0 l 1
640 0 m 1
 768 0 l 1
 768 128 l 1
 640 128 l 1
 640 0 l 1
768 0 m 1
 896 0 l 1
 896 128 l 1
 768 128 l 1
 768 0 l 1
EndSplineSet
Validated: 5
EndChar

StartChar: uni041E
Encoding: 1054 1054 92
Width: 768
VWidth: 896
Flags: W
LayerCount: 2
Fore
SplineSet
128 768 m 1
 256 768 l 1
 256 896 l 1
 128 896 l 1
 128 768 l 1
256 768 m 1
 384 768 l 1
 384 896 l 1
 256 896 l 1
 256 768 l 1
384 768 m 1
 512 768 l 1
 512 896 l 1
 384 896 l 1
 384 768 l 1
512 768 m 1
 640 768 l 1
 640 896 l 1
 512 896 l 1
 512 768 l 1
0 640 m 1
 128 640 l 1
 128 768 l 1
 0 768 l 1
 0 640 l 1
128 640 m 1
 256 640 l 1
 256 768 l 1
 128 768 l 1
 128 640 l 1
512 640 m 1
 640 640 l 1
 640 768 l 1
 512 768 l 1
 512 640 l 1
640 640 m 1
 768 640 l 1
 768 768 l 1
 640 768 l 1
 640 640 l 1
0 512 m 1
 128 512 l 1
 128 640 l 1
 0 640 l 1
 0 512 l 1
128 512 m 1
 256 512 l 1
 256 640 l 1
 128 640 l 1
 128 512 l 1
512 512 m 1
 640 512 l 1
 640 640 l 1
 512 640 l 1
 512 512 l 1
640 512 m 1
 768 512 l 1
 768 640 l 1
 640 640 l 1
 640 512 l 1
0 384 m 1
 128 384 l 1
 128 512 l 1
 0 512 l 1
 0 384 l 1
128 384 m 1
 256 384 l 1
 256 512 l 1
 128 512 l 1
 128 384 l 1
512 384 m 1
 640 384 l 1
 640 512 l 1
 512 512 l 1
 512 384 l 1
640 384 m 1
 768 384 l 1
 768 512 l 1
 640 512 l 1
 640 384 l 1
0 256 m 1
 128 256 l 1
 128 384 l 1
 0 384 l 1
 0 256 l 1
128 256 m 1
 256 256 l 1
 256 384 l 1
 128 384 l 1
 128 256 l 1
512 256 m 1
 640 256 l 1
 640 384 l 1
 512 384 l 1
 512 256 l 1
640 256 m 1
 768 256 l 1
 768 384 l 1
 640 384 l 1
 640 256 l 1
0 128 m 1
 128 128 l 1
 128 256 l 1
 0 256 l 1
 0 128 l 1
128 128 m 1
 256 128 l 1
 256 256 l 1
 128 256 l 1
 128 128 l 1
512 128 m 1
 640 128 l 1
 640 256 l 1
 512 256 l 1
 512 128 l 1
640 128 m 1
 768 128 l 1
 768 256 l 1
 640 256 l 1
 640 128 l 1
128 0 m 1
 256 0 l 1
 256 128 l 1
 128 128 l 1
 128 0 l 1
256 0 m 1
 384 0 l 1
 384 128 l 1
 256 128 l 1
 256 0 l 1
384 0 m 1
 512 0 l 1
 512 128 l 1
 384 128 l 1
 384 0 l 1
512 0 m 1
 640 0 l 1
 640 128 l 1
 512 128 l 1
 512 0 l 1
EndSplineSet
Validated: 5
EndChar

StartChar: uni0420
Encoding: 1056 1056 93
Width: 896
VWidth: 896
Flags: W
LayerCount: 2
Fore
SplineSet
0 768 m 1
 128 768 l 1
 128 896 l 1
 0 896 l 1
 0 768 l 1
128 768 m 1
 256 768 l 1
 256 896 l 1
 128 896 l 1
 128 768 l 1
256 768 m 1
 384 768 l 1
 384 896 l 1
 256 896 l 1
 256 768 l 1
384 768 m 1
 512 768 l 1
 512 896 l 1
 384 896 l 1
 384 768 l 1
512 768 m 1
 640 768 l 1
 640 896 l 1
 512 896 l 1
 512 768 l 1
0 640 m 1
 128 640 l 1
 128 768 l 1
 0 768 l 1
 0 640 l 1
128 640 m 1
 256 640 l 1
 256 768 l 1
 128 768 l 1
 128 640 l 1
512 640 m 1
 640 640 l 1
 640 768 l 1
 512 768 l 1
 512 640 l 1
640 640 m 1
 768 640 l 1
 768 768 l 1
 640 768 l 1
 640 640 l 1
0 512 m 1
 128 512 l 1
 128 640 l 1
 0 640 l 1
 0 512 l 1
128 512 m 1
 256 512 l 1
 256 640 l 1
 128 640 l 1
 128 512 l 1
512 512 m 1
 640 512 l 1
 640 640 l 1
 512 640 l 1
 512 512 l 1
640 512 m 1
 768 512 l 1
 768 640 l 1
 640 640 l 1
 640 512 l 1
0 384 m 1
 128 384 l 1
 128 512 l 1
 0 512 l 1
 0 384 l 1
128 384 m 1
 256 384 l 1
 256 512 l 1
 128 512 l 1
 128 384 l 1
512 384 m 1
 640 384 l 1
 640 512 l 1
 512 512 l 1
 512 384 l 1
640 384 m 1
 768 384 l 1
 768 512 l 1
 640 512 l 1
 640 384 l 1
0 256 m 1
 128 256 l 1
 128 384 l 1
 0 384 l 1
 0 256 l 1
128 256 m 1
 256 256 l 1
 256 384 l 1
 128 384 l 1
 128 256 l 1
256 256 m 1
 384 256 l 1
 384 384 l 1
 256 384 l 1
 256 256 l 1
384 256 m 1
 512 256 l 1
 512 384 l 1
 384 384 l 1
 384 256 l 1
512 256 m 1
 640 256 l 1
 640 384 l 1
 512 384 l 1
 512 256 l 1
0 128 m 1
 128 128 l 1
 128 256 l 1
 0 256 l 1
 0 128 l 1
128 128 m 1
 256 128 l 1
 256 256 l 1
 128 256 l 1
 128 128 l 1
0 0 m 1
 128 0 l 1
 128 128 l 1
 0 128 l 1
 0 0 l 1
128 0 m 1
 256 0 l 1
 256 128 l 1
 128 128 l 1
 128 0 l 1
EndSplineSet
Validated: 5
EndChar

StartChar: uni0422
Encoding: 1058 1058 94
Width: 896
Flags: W
LayerCount: 2
Fore
SplineSet
0 768 m 1
 128 768 l 1
 128 896 l 1
 0 896 l 1
 0 768 l 1
128 768 m 1
 256 768 l 1
 256 896 l 1
 128 896 l 1
 128 768 l 1
256 768 m 1
 384 768 l 1
 384 896 l 1
 256 896 l 1
 256 768 l 1
384 768 m 1
 512 768 l 1
 512 896 l 1
 384 896 l 1
 384 768 l 1
512 768 m 1
 640 768 l 1
 640 896 l 1
 512 896 l 1
 512 768 l 1
640 768 m 1
 768 768 l 1
 768 896 l 1
 640 896 l 1
 640 768 l 1
256 640 m 1
 384 640 l 1
 384 768 l 1
 256 768 l 1
 256 640 l 1
384 640 m 1
 512 640 l 1
 512 768 l 1
 384 768 l 1
 384 640 l 1
256 512 m 1
 384 512 l 1
 384 640 l 1
 256 640 l 1
 256 512 l 1
384 512 m 1
 512 512 l 1
 512 640 l 1
 384 640 l 1
 384 512 l 1
256 384 m 1
 384 384 l 1
 384 512 l 1
 256 512 l 1
 256 384 l 1
384 384 m 1
 512 384 l 1
 512 512 l 1
 384 512 l 1
 384 384 l 1
256 256 m 1
 384 256 l 1
 384 384 l 1
 256 384 l 1
 256 256 l 1
384 256 m 1
 512 256 l 1
 512 384 l 1
 384 384 l 1
 384 256 l 1
256 128 m 1
 384 128 l 1
 384 256 l 1
 256 256 l 1
 256 128 l 1
384 128 m 1
 512 128 l 1
 512 256 l 1
 384 256 l 1
 384 128 l 1
256 0 m 1
 384 0 l 1
 384 128 l 1
 256 128 l 1
 256 0 l 1
384 0 m 1
 512 0 l 1
 512 128 l 1
 384 128 l 1
 384 0 l 1
EndSplineSet
Validated: 5
EndChar

StartChar: uni0425
Encoding: 1061 1061 95
Width: 896
Flags: W
LayerCount: 2
Fore
SplineSet
0 768 m 1
 128 768 l 1
 128 896 l 1
 0 896 l 1
 0 768 l 1
128 768 m 1
 256 768 l 1
 256 896 l 1
 128 896 l 1
 128 768 l 1
512 768 m 1
 640 768 l 1
 640 896 l 1
 512 896 l 1
 512 768 l 1
640 768 m 1
 768 768 l 1
 768 896 l 1
 640 896 l 1
 640 768 l 1
0 640 m 1
 128 640 l 1
 128 768 l 1
 0 768 l 1
 0 640 l 1
128 640 m 1
 256 640 l 1
 256 768 l 1
 128 768 l 1
 128 640 l 1
512 640 m 1
 640 640 l 1
 640 768 l 1
 512 768 l 1
 512 640 l 1
640 640 m 1
 768 640 l 1
 768 768 l 1
 640 768 l 1
 640 640 l 1
128 512 m 1
 256 512 l 1
 256 640 l 1
 128 640 l 1
 128 512 l 1
256 512 m 1
 384 512 l 1
 384 640 l 1
 256 640 l 1
 256 512 l 1
384 512 m 1
 512 512 l 1
 512 640 l 1
 384 640 l 1
 384 512 l 1
512 512 m 1
 640 512 l 5
 640 640 l 1
 512 640 l 1
 512 512 l 1
256 384 m 1
 384 384 l 1
 384 512 l 1
 256 512 l 1
 256 384 l 1
384 384 m 1
 512 384 l 1
 512 512 l 1
 384 512 l 1
 384 384 l 1
128 256 m 1
 256 256 l 1
 256 384 l 1
 128 384 l 1
 128 256 l 1
256 256 m 1
 384 256 l 1
 384 384 l 1
 256 384 l 1
 256 256 l 1
384 256 m 1
 512 256 l 1
 512 384 l 1
 384 384 l 1
 384 256 l 1
512 256 m 1
 640 256 l 1
 640 384 l 1
 512 384 l 1
 512 256 l 1
0 128 m 1
 128 128 l 1
 128 256 l 1
 0 256 l 1
 0 128 l 1
128 128 m 1
 256 128 l 1
 256 256 l 1
 128 256 l 1
 128 128 l 1
512 128 m 1
 640 128 l 1
 640 256 l 1
 512 256 l 1
 512 128 l 1
640 128 m 1
 768 128 l 1
 768 256 l 1
 640 256 l 1
 640 128 l 1
0 0 m 1
 128 0 l 1
 128 128 l 1
 0 128 l 1
 0 0 l 1
128 0 m 1
 256 0 l 1
 256 128 l 1
 128 128 l 1
 128 0 l 1
512 0 m 1
 640 0 l 1
 640 128 l 1
 512 128 l 1
 512 0 l 1
640 0 m 1
 768 0 l 1
 768 128 l 1
 640 128 l 1
 640 0 l 1
EndSplineSet
Validated: 5
EndChar

StartChar: uni0430
Encoding: 1072 1072 96
Width: 768
Flags: W
LayerCount: 2
Fore
SplineSet
128 768 m 1
 256 768 l 1
 256 896 l 1
 128 896 l 1
 128 768 l 1
256 768 m 1
 384 768 l 1
 384 896 l 1
 256 896 l 1
 256 768 l 1
384 768 m 1
 512 768 l 1
 512 896 l 1
 384 896 l 1
 384 768 l 1
0 640 m 1
 128 640 l 1
 128 768 l 1
 0 768 l 1
 0 640 l 1
128 640 m 1
 256 640 l 1
 256 768 l 1
 128 768 l 1
 128 640 l 1
384 640 m 1
 512 640 l 1
 512 768 l 1
 384 768 l 1
 384 640 l 1
512 640 m 1
 640 640 l 1
 640 768 l 1
 512 768 l 1
 512 640 l 1
0 512 m 1
 128 512 l 1
 128 640 l 1
 0 640 l 1
 0 512 l 1
128 512 m 1
 256 512 l 1
 256 640 l 1
 128 640 l 1
 128 512 l 1
384 512 m 1
 512 512 l 1
 512 640 l 1
 384 640 l 1
 384 512 l 1
512 512 m 1
 640 512 l 1
 640 640 l 1
 512 640 l 1
 512 512 l 1
0 384 m 1
 128 384 l 1
 128 512 l 1
 0 512 l 1
 0 384 l 1
128 384 m 1
 256 384 l 1
 256 512 l 1
 128 512 l 1
 128 384 l 1
384 384 m 1
 512 384 l 1
 512 512 l 1
 384 512 l 1
 384 384 l 1
512 384 m 1
 640 384 l 1
 640 512 l 1
 512 512 l 1
 512 384 l 1
0 256 m 1
 128 256 l 1
 128 384 l 1
 0 384 l 1
 0 256 l 1
128 256 m 1
 256 256 l 1
 256 384 l 1
 128 384 l 1
 128 256 l 1
256 256 m 1
 384 256 l 1
 384 384 l 1
 256 384 l 1
 256 256 l 1
384 256 m 1
 512 256 l 1
 512 384 l 1
 384 384 l 1
 384 256 l 1
512 256 m 1
 640 256 l 1
 640 384 l 1
 512 384 l 1
 512 256 l 1
0 128 m 1
 128 128 l 1
 128 256 l 1
 0 256 l 1
 0 128 l 1
128 128 m 1
 256 128 l 1
 256 256 l 1
 128 256 l 1
 128 128 l 1
384 128 m 1
 512 128 l 1
 512 256 l 1
 384 256 l 1
 384 128 l 1
512 128 m 1
 640 128 l 1
 640 256 l 1
 512 256 l 1
 512 128 l 1
0 0 m 1
 128 0 l 1
 128 128 l 1
 0 128 l 1
 0 0 l 1
128 0 m 1
 256 0 l 1
 256 128 l 1
 128 128 l 1
 128 0 l 1
384 0 m 1
 512 0 l 1
 512 128 l 1
 384 128 l 1
 384 0 l 1
512 0 m 1
 640 0 l 1
 640 128 l 1
 512 128 l 1
 512 0 l 1
EndSplineSet
Validated: 5
EndChar

StartChar: uni0432
Encoding: 1074 1074 97
Width: 768
Flags: W
LayerCount: 2
Fore
SplineSet
0 768 m 1
 128 768 l 1
 128 896 l 1
 0 896 l 1
 0 768 l 1
128 768 m 1
 256 768 l 1
 256 896 l 1
 128 896 l 1
 128 768 l 1
256 768 m 1
 384 768 l 1
 384 896 l 1
 256 896 l 1
 256 768 l 1
384 768 m 1
 512 768 l 1
 512 896 l 1
 384 896 l 1
 384 768 l 1
0 640 m 1
 128 640 l 1
 128 768 l 1
 0 768 l 1
 0 640 l 1
128 640 m 1
 256 640 l 1
 256 768 l 1
 128 768 l 1
 128 640 l 1
384 640 m 1
 512 640 l 1
 512 768 l 1
 384 768 l 1
 384 640 l 1
512 640 m 1
 640 640 l 1
 640 768 l 1
 512 768 l 1
 512 640 l 1
0 512 m 1
 128 512 l 1
 128 640 l 1
 0 640 l 1
 0 512 l 1
128 512 m 1
 256 512 l 1
 256 640 l 1
 128 640 l 1
 128 512 l 1
384 512 m 1
 512 512 l 1
 512 640 l 1
 384 640 l 1
 384 512 l 1
512 512 m 1
 640 512 l 1
 640 640 l 1
 512 640 l 1
 512 512 l 1
0 384 m 1
 128 384 l 1
 128 512 l 1
 0 512 l 1
 0 384 l 1
128 384 m 1
 256 384 l 1
 256 512 l 1
 128 512 l 1
 128 384 l 1
256 384 m 1
 384 384 l 1
 384 512 l 1
 256 512 l 1
 256 384 l 1
384 384 m 1
 512 384 l 1
 512 512 l 1
 384 512 l 1
 384 384 l 1
0 256 m 1
 128 256 l 1
 128 384 l 1
 0 384 l 1
 0 256 l 1
128 256 m 1
 256 256 l 1
 256 384 l 1
 128 384 l 1
 128 256 l 1
384 256 m 1
 512 256 l 1
 512 384 l 1
 384 384 l 1
 384 256 l 1
512 256 m 1
 640 256 l 1
 640 384 l 1
 512 384 l 1
 512 256 l 1
0 128 m 1
 128 128 l 1
 128 256 l 1
 0 256 l 1
 0 128 l 1
128 128 m 1
 256 128 l 1
 256 256 l 1
 128 256 l 1
 128 128 l 1
384 128 m 1
 512 128 l 1
 512 256 l 1
 384 256 l 1
 384 128 l 1
512 128 m 1
 640 128 l 1
 640 256 l 1
 512 256 l 1
 512 128 l 1
0 0 m 1
 128 0 l 1
 128 128 l 1
 0 128 l 1
 0 0 l 1
128 0 m 1
 256 0 l 1
 256 128 l 1
 128 128 l 1
 128 0 l 1
256 0 m 1
 384 0 l 1
 384 128 l 1
 256 128 l 1
 256 0 l 1
384 0 m 1
 512 0 l 1
 512 128 l 1
 384 128 l 1
 384 0 l 1
EndSplineSet
Validated: 5
EndChar

StartChar: uni0441
Encoding: 1089 1089 98
Width: 768
Flags: W
LayerCount: 2
Fore
SplineSet
128 768 m 1
 256 768 l 1
 256 896 l 1
 128 896 l 1
 128 768 l 1
256 768 m 1
 384 768 l 1
 384 896 l 1
 256 896 l 1
 256 768 l 1
384 768 m 1
 512 768 l 1
 512 896 l 1
 384 896 l 1
 384 768 l 1
0 640 m 1
 128 640 l 1
 128 768 l 1
 0 768 l 1
 0 640 l 1
128 640 m 1
 256 640 l 1
 256 768 l 1
 128 768 l 1
 128 640 l 1
384 640 m 1
 512 640 l 1
 512 768 l 1
 384 768 l 1
 384 640 l 1
512 640 m 1
 640 640 l 1
 640 768 l 1
 512 768 l 1
 512 640 l 1
0 512 m 1
 128 512 l 1
 128 640 l 1
 0 640 l 1
 0 512 l 1
128 512 m 1
 256 512 l 1
 256 640 l 1
 128 640 l 1
 128 512 l 1
0 384 m 1
 128 384 l 1
 128 512 l 1
 0 512 l 1
 0 384 l 1
128 384 m 1
 256 384 l 1
 256 512 l 1
 128 512 l 1
 128 384 l 1
0 256 m 1
 128 256 l 1
 128 384 l 1
 0 384 l 1
 0 256 l 1
128 256 m 1
 256 256 l 1
 256 384 l 1
 128 384 l 1
 128 256 l 1
0 128 m 1
 128 128 l 1
 128 256 l 1
 0 256 l 1
 0 128 l 1
128 128 m 1
 256 128 l 1
 256 256 l 1
 128 256 l 1
 128 128 l 1
384 128 m 1
 512 128 l 1
 512 256 l 1
 384 256 l 1
 384 128 l 1
512 128 m 1
 640 128 l 1
 640 256 l 1
 512 256 l 1
 512 128 l 1
128 0 m 1
 256 0 l 1
 256 128 l 1
 128 128 l 1
 128 0 l 1
256 0 m 1
 384 0 l 1
 384 128 l 1
 256 128 l 1
 256 0 l 1
384 0 m 1
 512 0 l 1
 512 128 l 1
 384 128 l 1
 384 0 l 1
EndSplineSet
Validated: 5
EndChar

StartChar: uni043D
Encoding: 1085 1085 99
Width: 768
Flags: W
LayerCount: 2
Fore
SplineSet
0 768 m 1
 128 768 l 1
 128 896 l 1
 0 896 l 1
 0 768 l 1
128 768 m 1
 256 768 l 1
 256 896 l 1
 128 896 l 1
 128 768 l 1
384 768 m 1
 512 768 l 1
 512 896 l 1
 384 896 l 1
 384 768 l 1
512 768 m 1
 640 768 l 1
 640 896 l 1
 512 896 l 1
 512 768 l 1
0 640 m 1
 128 640 l 1
 128 768 l 1
 0 768 l 1
 0 640 l 1
128 640 m 1
 256 640 l 1
 256 768 l 1
 128 768 l 1
 128 640 l 1
384 640 m 1
 512 640 l 1
 512 768 l 1
 384 768 l 1
 384 640 l 1
512 640 m 1
 640 640 l 1
 640 768 l 1
 512 768 l 1
 512 640 l 1
0 512 m 1
 128 512 l 1
 128 640 l 1
 0 640 l 1
 0 512 l 1
128 512 m 1
 256 512 l 1
 256 640 l 1
 128 640 l 1
 128 512 l 1
384 512 m 1
 512 512 l 1
 512 640 l 1
 384 640 l 1
 384 512 l 1
512 512 m 1
 640 512 l 1
 640 640 l 1
 512 640 l 1
 512 512 l 1
0 384 m 1
 128 384 l 1
 128 512 l 1
 0 512 l 1
 0 384 l 1
128 384 m 1
 256 384 l 1
 256 512 l 1
 128 512 l 1
 128 384 l 1
256 384 m 1
 384 384 l 1
 384 512 l 1
 256 512 l 1
 256 384 l 1
384 384 m 1
 512 384 l 1
 512 512 l 1
 384 512 l 1
 384 384 l 1
512 384 m 1
 640 384 l 1
 640 512 l 1
 512 512 l 1
 512 384 l 1
0 256 m 1
 128 256 l 1
 128 384 l 1
 0 384 l 1
 0 256 l 1
128 256 m 1
 256 256 l 1
 256 384 l 1
 128 384 l 1
 128 256 l 1
384 256 m 1
 512 256 l 1
 512 384 l 1
 384 384 l 1
 384 256 l 1
512 256 m 1
 640 256 l 1
 640 384 l 1
 512 384 l 1
 512 256 l 1
0 128 m 1
 128 128 l 1
 128 256 l 1
 0 256 l 1
 0 128 l 1
128 128 m 1
 256 128 l 1
 256 256 l 1
 128 256 l 1
 128 128 l 1
384 128 m 1
 512 128 l 1
 512 256 l 1
 384 256 l 1
 384 128 l 1
512 128 m 1
 640 128 l 1
 640 256 l 1
 512 256 l 1
 512 128 l 1
0 0 m 1
 128 0 l 1
 128 128 l 1
 0 128 l 1
 0 0 l 1
128 0 m 1
 256 0 l 1
 256 128 l 1
 128 128 l 1
 128 0 l 1
384 0 m 1
 512 0 l 1
 512 128 l 1
 384 128 l 1
 384 0 l 1
512 0 m 1
 640 0 l 1
 640 128 l 1
 512 128 l 1
 512 0 l 1
EndSplineSet
Validated: 5
EndChar

StartChar: uni043C
Encoding: 1084 1084 100
Width: 768
VWidth: 896
Flags: W
LayerCount: 2
Fore
SplineSet
0 768 m 1
 128 768 l 1
 128 896 l 1
 0 896 l 1
 0 768 l 1
512 768 m 1
 640 768 l 1
 640 896 l 1
 512 896 l 1
 512 768 l 1
0 640 m 1
 128 640 l 1
 128 768 l 1
 0 768 l 1
 0 640 l 1
128 640 m 1
 256 640 l 1
 256 768 l 1
 128 768 l 1
 128 640 l 1
384 640 m 1
 512 640 l 1
 512 768 l 1
 384 768 l 1
 384 640 l 1
512 640 m 1
 640 640 l 1
 640 768 l 1
 512 768 l 1
 512 640 l 1
0 512 m 1
 128 512 l 1
 128 640 l 1
 0 640 l 1
 0 512 l 1
128 512 m 1
 256 512 l 1
 256 640 l 1
 128 640 l 1
 128 512 l 1
256 512 m 1
 384 512 l 1
 384 640 l 1
 256 640 l 1
 256 512 l 1
384 512 m 1
 512 512 l 1
 512 640 l 1
 384 640 l 1
 384 512 l 1
512 512 m 1
 640 512 l 1
 640 640 l 1
 512 640 l 1
 512 512 l 1
0 384 m 1
 128 384 l 1
 128 512 l 1
 0 512 l 1
 0 384 l 1
128 384 m 1
 256 384 l 1
 256 512 l 1
 128 512 l 1
 128 384 l 1
256 384 m 1
 384 384 l 1
 384 512 l 1
 256 512 l 1
 256 384 l 1
384 384 m 1
 512 384 l 1
 512 512 l 1
 384 512 l 1
 384 384 l 1
512 384 m 1
 640 384 l 1
 640 512 l 1
 512 512 l 1
 512 384 l 1
0 256 m 1
 128 256 l 1
 128 384 l 1
 0 384 l 1
 0 256 l 1
128 256 m 1
 256 256 l 1
 256 384 l 1
 128 384 l 1
 128 256 l 1
256 256 m 1
 384 256 l 1
 384 384 l 1
 256 384 l 1
 256 256 l 1
384 256 m 1
 512 256 l 1
 512 384 l 1
 384 384 l 1
 384 256 l 1
512 256 m 1
 640 256 l 1
 640 384 l 1
 512 384 l 1
 512 256 l 1
0 128 m 1
 128 128 l 1
 128 256 l 1
 0 256 l 1
 0 128 l 1
128 128 m 1
 256 128 l 1
 256 256 l 1
 128 256 l 1
 128 128 l 1
384 128 m 1
 512 128 l 1
 512 256 l 1
 384 256 l 1
 384 128 l 1
512 128 m 1
 640 128 l 1
 640 256 l 1
 512 256 l 1
 512 128 l 1
0 0 m 1
 128 0 l 1
 128 128 l 1
 0 128 l 1
 0 0 l 1
128 0 m 1
 256 0 l 1
 256 128 l 1
 128 128 l 1
 128 0 l 1
384 0 m 1
 512 0 l 1
 512 128 l 1
 384 128 l 1
 384 0 l 1
512 0 m 1
 640 0 l 1
 640 128 l 1
 512 128 l 1
 512 0 l 1
EndSplineSet
Validated: 5
EndChar

StartChar: uni043E
Encoding: 1086 1086 101
Width: 768
Flags: W
LayerCount: 2
Fore
SplineSet
128 768 m 1
 256 768 l 1
 256 896 l 1
 128 896 l 1
 128 768 l 1
256 768 m 1
 384 768 l 1
 384 896 l 1
 256 896 l 1
 256 768 l 1
384 768 m 1
 512 768 l 1
 512 896 l 1
 384 896 l 1
 384 768 l 1
0 640 m 1
 128 640 l 1
 128 768 l 1
 0 768 l 1
 0 640 l 1
128 640 m 1
 256 640 l 1
 256 768 l 1
 128 768 l 1
 128 640 l 1
384 640 m 1
 512 640 l 1
 512 768 l 1
 384 768 l 1
 384 640 l 1
512 640 m 1
 640 640 l 1
 640 768 l 1
 512 768 l 1
 512 640 l 1
0 512 m 1
 128 512 l 1
 128 640 l 1
 0 640 l 1
 0 512 l 1
128 512 m 1
 256 512 l 1
 256 640 l 1
 128 640 l 1
 128 512 l 1
384 512 m 1
 512 512 l 1
 512 640 l 1
 384 640 l 1
 384 512 l 1
512 512 m 1
 640 512 l 1
 640 640 l 1
 512 640 l 1
 512 512 l 1
0 384 m 1
 128 384 l 1
 128 512 l 1
 0 512 l 1
 0 384 l 1
128 384 m 1
 256 384 l 1
 256 512 l 1
 128 512 l 1
 128 384 l 1
384 384 m 1
 512 384 l 1
 512 512 l 1
 384 512 l 1
 384 384 l 1
512 384 m 1
 640 384 l 1
 640 512 l 1
 512 512 l 1
 512 384 l 1
0 256 m 1
 128 256 l 1
 128 384 l 1
 0 384 l 1
 0 256 l 1
128 256 m 1
 256 256 l 1
 256 384 l 1
 128 384 l 1
 128 256 l 1
384 256 m 1
 512 256 l 1
 512 384 l 1
 384 384 l 1
 384 256 l 1
512 256 m 1
 640 256 l 1
 640 384 l 1
 512 384 l 1
 512 256 l 1
0 128 m 1
 128 128 l 1
 128 256 l 1
 0 256 l 1
 0 128 l 1
128 128 m 1
 256 128 l 1
 256 256 l 1
 128 256 l 1
 128 128 l 1
384 128 m 1
 512 128 l 1
 512 256 l 1
 384 256 l 1
 384 128 l 1
512 128 m 1
 640 128 l 1
 640 256 l 1
 512 256 l 1
 512 128 l 1
128 0 m 1
 256 0 l 1
 256 128 l 1
 128 128 l 1
 128 0 l 1
256 0 m 1
 384 0 l 1
 384 128 l 1
 256 128 l 1
 256 0 l 1
384 0 m 1
 512 0 l 1
 512 128 l 1
 384 128 l 1
 384 0 l 1
EndSplineSet
Validated: 5
EndChar

StartChar: uni0440
Encoding: 1088 1088 102
Width: 768
Flags: W
LayerCount: 2
Fore
SplineSet
0 768 m 1
 128 768 l 1
 128 896 l 1
 0 896 l 1
 0 768 l 1
128 768 m 1
 256 768 l 1
 256 896 l 1
 128 896 l 1
 128 768 l 1
256 768 m 1
 384 768 l 1
 384 896 l 1
 256 896 l 1
 256 768 l 1
384 768 m 1
 512 768 l 1
 512 896 l 1
 384 896 l 1
 384 768 l 1
0 640 m 1
 128 640 l 1
 128 768 l 1
 0 768 l 1
 0 640 l 1
128 640 m 1
 256 640 l 1
 256 768 l 1
 128 768 l 1
 128 640 l 1
384 640 m 1
 512 640 l 1
 512 768 l 1
 384 768 l 1
 384 640 l 1
512 640 m 1
 640 640 l 1
 640 768 l 1
 512 768 l 1
 512 640 l 1
0 512 m 1
 128 512 l 1
 128 640 l 1
 0 640 l 1
 0 512 l 1
128 512 m 1
 256 512 l 1
 256 640 l 1
 128 640 l 1
 128 512 l 1
384 512 m 1
 512 512 l 1
 512 640 l 1
 384 640 l 1
 384 512 l 1
512 512 m 1
 640 512 l 1
 640 640 l 1
 512 640 l 1
 512 512 l 1
0 384 m 1
 128 384 l 1
 128 512 l 1
 0 512 l 1
 0 384 l 1
128 384 m 1
 256 384 l 1
 256 512 l 1
 128 512 l 1
 128 384 l 1
384 384 m 1
 512 384 l 1
 512 512 l 1
 384 512 l 1
 384 384 l 1
512 384 m 1
 640 384 l 1
 640 512 l 1
 512 512 l 1
 512 384 l 1
0 256 m 1
 128 256 l 1
 128 384 l 1
 0 384 l 1
 0 256 l 1
128 256 m 1
 256 256 l 1
 256 384 l 1
 128 384 l 1
 128 256 l 1
256 256 m 1
 384 256 l 1
 384 384 l 1
 256 384 l 1
 256 256 l 1
384 256 m 1
 512 256 l 1
 512 384 l 1
 384 384 l 1
 384 256 l 1
0 128 m 1
 128 128 l 1
 128 256 l 1
 0 256 l 1
 0 128 l 1
128 128 m 1
 256 128 l 1
 256 256 l 1
 128 256 l 1
 128 128 l 1
0 0 m 1
 128 0 l 1
 128 128 l 1
 0 128 l 1
 0 0 l 1
128 0 m 1
 256 0 l 1
 256 128 l 1
 128 128 l 1
 128 0 l 1
EndSplineSet
Validated: 5
EndChar

StartChar: uni0442
Encoding: 1090 1090 103
Width: 640
Flags: W
LayerCount: 2
Fore
SplineSet
0 768 m 1
 128 768 l 1
 128 896 l 1
 0 896 l 1
 0 768 l 1
128 768 m 1
 256 768 l 1
 256 896 l 1
 128 896 l 1
 128 768 l 1
256 768 m 1
 384 768 l 1
 384 896 l 1
 256 896 l 1
 256 768 l 1
384 768 m 1
 512 768 l 1
 512 896 l 1
 384 896 l 1
 384 768 l 1
128 640 m 1
 256 640 l 1
 256 768 l 1
 128 768 l 1
 128 640 l 1
256 640 m 1
 384 640 l 1
 384 768 l 1
 256 768 l 1
 256 640 l 1
128 512 m 1
 256 512 l 1
 256 640 l 1
 128 640 l 1
 128 512 l 1
256 512 m 1
 384 512 l 1
 384 640 l 1
 256 640 l 1
 256 512 l 1
128 384 m 1
 256 384 l 1
 256 512 l 1
 128 512 l 1
 128 384 l 1
256 384 m 1
 384 384 l 1
 384 512 l 1
 256 512 l 1
 256 384 l 1
128 256 m 1
 256 256 l 1
 256 384 l 1
 128 384 l 1
 128 256 l 1
256 256 m 1
 384 256 l 1
 384 384 l 1
 256 384 l 1
 256 256 l 1
128 128 m 1
 256 128 l 1
 256 256 l 1
 128 256 l 1
 128 128 l 1
256 128 m 1
 384 128 l 1
 384 256 l 1
 256 256 l 1
 256 128 l 1
128 0 m 1
 256 0 l 1
 256 128 l 1
 128 128 l 1
 128 0 l 1
256 0 m 1
 384 0 l 1
 384 128 l 1
 256 128 l 1
 256 0 l 1
EndSplineSet
Validated: 5
EndChar

StartChar: uni0423
Encoding: 1059 1059 104
Width: 896
Flags: W
LayerCount: 2
Fore
SplineSet
0 768 m 1
 128 768 l 1
 128 896 l 1
 0 896 l 1
 0 768 l 1
128 768 m 1
 256 768 l 1
 256 896 l 1
 128 896 l 1
 128 768 l 1
512 768 m 1
 640 768 l 1
 640 896 l 1
 512 896 l 1
 512 768 l 1
640 768 m 1
 768 768 l 1
 768 896 l 1
 640 896 l 1
 640 768 l 1
0 640 m 1
 128 640 l 1
 128 768 l 1
 0 768 l 1
 0 640 l 1
128 640 m 1
 256 640 l 1
 256 768 l 1
 128 768 l 1
 128 640 l 1
512 640 m 1
 640 640 l 1
 640 768 l 1
 512 768 l 1
 512 640 l 1
640 640 m 1
 768 640 l 1
 768 768 l 1
 640 768 l 1
 640 640 l 1
0 512 m 1
 128 512 l 1
 128 640 l 1
 0 640 l 1
 0 512 l 1
128 512 m 1
 256 512 l 1
 256 640 l 1
 128 640 l 1
 128 512 l 1
512 512 m 1
 640 512 l 1
 640 640 l 1
 512 640 l 1
 512 512 l 1
640 512 m 1
 768 512 l 1
 768 640 l 1
 640 640 l 1
 640 512 l 1
128 384 m 1
 256 384 l 1
 256 512 l 1
 128 512 l 1
 128 384 l 1
256 384 m 1
 384 384 l 1
 384 512 l 1
 256 512 l 1
 256 384 l 1
384 384 m 1
 512 384 l 1
 512 512 l 1
 384 512 l 1
 384 384 l 1
512 384 m 1
 640 384 l 1
 640 512 l 1
 512 512 l 1
 512 384 l 1
640 384 m 1
 768 384 l 1
 768 512 l 1
 640 512 l 1
 640 384 l 1
512 256 m 1
 640 256 l 1
 640 384 l 1
 512 384 l 1
 512 256 l 1
640 256 m 1
 768 256 l 1
 768 384 l 1
 640 384 l 1
 640 256 l 1
512 128 m 1
 640 128 l 1
 640 256 l 1
 512 256 l 1
 512 128 l 1
640 128 m 1
 768 128 l 1
 768 256 l 1
 640 256 l 1
 640 128 l 1
128 0 m 1
 256 0 l 1
 256 128 l 1
 128 128 l 1
 128 0 l 1
256 0 m 1
 384 0 l 1
 384 128 l 1
 256 128 l 1
 256 0 l 1
384 0 m 1
 512 0 l 1
 512 128 l 1
 384 128 l 1
 384 0 l 1
512 0 m 1
 640 0 l 1
 640 128 l 1
 512 128 l 1
 512 0 l 1
EndSplineSet
Validated: 5
EndChar

StartChar: uni0443
Encoding: 1091 1091 105
Width: 768
Flags: W
LayerCount: 2
Fore
SplineSet
0 768 m 1
 128 768 l 1
 128 896 l 1
 0 896 l 1
 0 768 l 1
128 768 m 1
 256 768 l 1
 256 896 l 1
 128 896 l 1
 128 768 l 1
384 768 m 1
 512 768 l 1
 512 896 l 1
 384 896 l 1
 384 768 l 1
512 768 m 1
 640 768 l 1
 640 896 l 1
 512 896 l 1
 512 768 l 1
0 640 m 1
 128 640 l 1
 128 768 l 1
 0 768 l 1
 0 640 l 1
128 640 m 1
 256 640 l 1
 256 768 l 1
 128 768 l 1
 128 640 l 1
384 640 m 1
 512 640 l 1
 512 768 l 1
 384 768 l 1
 384 640 l 1
512 640 m 1
 640 640 l 1
 640 768 l 1
 512 768 l 1
 512 640 l 1
0 512 m 1
 128 512 l 1
 128 640 l 1
 0 640 l 1
 0 512 l 1
128 512 m 1
 256 512 l 1
 256 640 l 1
 128 640 l 1
 128 512 l 1
384 512 m 1
 512 512 l 1
 512 640 l 1
 384 640 l 1
 384 512 l 1
512 512 m 1
 640 512 l 1
 640 640 l 1
 512 640 l 1
 512 512 l 1
128 384 m 1
 256 384 l 1
 256 512 l 1
 128 512 l 1
 128 384 l 1
256 384 m 1
 384 384 l 1
 384 512 l 1
 256 512 l 1
 256 384 l 1
384 384 m 1
 512 384 l 1
 512 512 l 1
 384 512 l 1
 384 384 l 1
512 384 m 1
 640 384 l 1
 640 512 l 1
 512 512 l 1
 512 384 l 1
384 256 m 1
 512 256 l 1
 512 384 l 1
 384 384 l 1
 384 256 l 1
512 256 m 1
 640 256 l 1
 640 384 l 1
 512 384 l 1
 512 256 l 1
384 128 m 1
 512 128 l 1
 512 256 l 1
 384 256 l 1
 384 128 l 1
512 128 m 1
 640 128 l 1
 640 256 l 1
 512 256 l 1
 512 128 l 1
0 0 m 1
 128 0 l 1
 128 128 l 1
 0 128 l 1
 0 0 l 1
128 0 m 1
 256 0 l 1
 256 128 l 1
 128 128 l 1
 128 0 l 1
256 0 m 1
 384 0 l 1
 384 128 l 1
 256 128 l 1
 256 0 l 1
384 0 m 1
 512 0 l 1
 512 128 l 1
 384 128 l 1
 384 0 l 1
EndSplineSet
Validated: 5
EndChar

StartChar: uni0445
Encoding: 1093 1093 106
Width: 768
Flags: W
LayerCount: 2
Fore
SplineSet
0 768 m 1
 128 768 l 1
 128 896 l 1
 0 896 l 1
 0 768 l 1
128 768 m 1
 256 768 l 1
 256 896 l 1
 128 896 l 1
 128 768 l 1
384 768 m 1
 512 768 l 1
 512 896 l 1
 384 896 l 1
 384 768 l 1
512 768 m 1
 640 768 l 1
 640 896 l 1
 512 896 l 1
 512 768 l 1
0 640 m 1
 128 640 l 1
 128 768 l 1
 0 768 l 1
 0 640 l 1
128 640 m 1
 256 640 l 1
 256 768 l 1
 128 768 l 1
 128 640 l 1
384 640 m 1
 512 640 l 1
 512 768 l 1
 384 768 l 1
 384 640 l 1
512 640 m 1
 640 640 l 1
 640 768 l 1
 512 768 l 1
 512 640 l 1
0 512 m 1
 128 512 l 1
 128 640 l 1
 0 640 l 1
 0 512 l 1
128 512 m 1
 256 512 l 1
 256 640 l 1
 128 640 l 1
 128 512 l 1
384 512 m 1
 512 512 l 1
 512 640 l 1
 384 640 l 1
 384 512 l 1
512 512 m 1
 640 512 l 1
 640 640 l 1
 512 640 l 1
 512 512 l 1
128 384 m 1
 256 384 l 1
 256 512 l 1
 128 512 l 1
 128 384 l 1
256 384 m 1
 384 384 l 1
 384 512 l 1
 256 512 l 1
 256 384 l 1
384 384 m 1
 512 384 l 1
 512 512 l 1
 384 512 l 1
 384 384 l 1
0 256 m 1
 128 256 l 1
 128 384 l 1
 0 384 l 1
 0 256 l 1
128 256 m 1
 256 256 l 1
 256 384 l 1
 128 384 l 1
 128 256 l 1
384 256 m 1
 512 256 l 1
 512 384 l 1
 384 384 l 1
 384 256 l 1
512 256 m 1
 640 256 l 1
 640 384 l 1
 512 384 l 1
 512 256 l 1
0 128 m 1
 128 128 l 1
 128 256 l 1
 0 256 l 1
 0 128 l 1
128 128 m 1
 256 128 l 1
 256 256 l 1
 128 256 l 1
 128 128 l 1
384 128 m 1
 512 128 l 1
 512 256 l 1
 384 256 l 1
 384 128 l 1
512 128 m 1
 640 128 l 1
 640 256 l 1
 512 256 l 1
 512 128 l 1
0 0 m 1
 128 0 l 1
 128 128 l 1
 0 128 l 1
 0 0 l 1
128 0 m 1
 256 0 l 1
 256 128 l 1
 128 128 l 1
 128 0 l 1
384 0 m 1
 512 0 l 1
 512 128 l 1
 384 128 l 1
 384 0 l 1
512 0 m 1
 640 0 l 1
 640 128 l 1
 512 128 l 1
 512 0 l 1
EndSplineSet
Validated: 5
EndChar

StartChar: uni0417
Encoding: 1047 1047 107
Width: 896
Flags: W
LayerCount: 2
Fore
SplineSet
128 768 m 1
 256 768 l 1
 256 896 l 1
 128 896 l 1
 128 768 l 1
256 768 m 1
 384 768 l 1
 384 896 l 1
 256 896 l 1
 256 768 l 1
384 768 m 1
 512 768 l 1
 512 896 l 1
 384 896 l 1
 384 768 l 1
512 768 m 1
 640 768 l 1
 640 896 l 1
 512 896 l 1
 512 768 l 1
0 640 m 1
 128 640 l 1
 128 768 l 1
 0 768 l 1
 0 640 l 1
128 640 m 1
 256 640 l 1
 256 768 l 1
 128 768 l 1
 128 640 l 1
512 640 m 1
 640 640 l 1
 640 768 l 1
 512 768 l 1
 512 640 l 1
640 640 m 1
 768 640 l 1
 768 768 l 1
 640 768 l 1
 640 640 l 1
512 512 m 1
 640 512 l 1
 640 640 l 1
 512 640 l 1
 512 512 l 1
640 512 m 1
 768 512 l 1
 768 640 l 1
 640 640 l 1
 640 512 l 1
256 384 m 1
 384 384 l 1
 384 512 l 1
 256 512 l 1
 256 384 l 1
384 384 m 1
 512 384 l 1
 512 512 l 1
 384 512 l 1
 384 384 l 1
512 384 m 1
 640 384 l 1
 640 512 l 1
 512 512 l 1
 512 384 l 1
512 256 m 1
 640 256 l 1
 640 384 l 1
 512 384 l 1
 512 256 l 1
640 256 m 1
 768 256 l 1
 768 384 l 1
 640 384 l 1
 640 256 l 1
0 128 m 1
 128 128 l 1
 128 256 l 1
 0 256 l 1
 0 128 l 1
128 128 m 1
 256 128 l 1
 256 256 l 1
 128 256 l 1
 128 128 l 1
512 128 m 1
 640 128 l 1
 640 256 l 1
 512 256 l 1
 512 128 l 1
640 128 m 1
 768 128 l 1
 768 256 l 1
 640 256 l 1
 640 128 l 1
128 0 m 1
 256 0 l 1
 256 128 l 1
 128 128 l 1
 128 0 l 1
256 0 m 1
 384 0 l 1
 384 128 l 1
 256 128 l 1
 256 0 l 1
384 0 m 1
 512 0 l 1
 512 128 l 1
 384 128 l 1
 384 0 l 1
512 0 m 1
 640 0 l 1
 640 128 l 1
 512 128 l 1
 512 0 l 1
EndSplineSet
Validated: 5
EndChar

StartChar: uni0411
Encoding: 1041 1041 108
Width: 896
Flags: W
LayerCount: 2
Fore
SplineSet
0 768 m 1
 128 768 l 1
 128 896 l 1
 0 896 l 1
 0 768 l 1
128 768 m 1
 256 768 l 1
 256 896 l 1
 128 896 l 1
 128 768 l 1
256 768 m 1
 384 768 l 1
 384 896 l 1
 256 896 l 1
 256 768 l 1
384 768 m 1
 512 768 l 1
 512 896 l 1
 384 896 l 1
 384 768 l 1
512 768 m 1
 640 768 l 1
 640 896 l 1
 512 896 l 1
 512 768 l 1
0 640 m 1
 128 640 l 1
 128 768 l 1
 0 768 l 1
 0 640 l 1
128 640 m 1
 256 640 l 1
 256 768 l 1
 128 768 l 1
 128 640 l 1
0 512 m 1
 128 512 l 1
 128 640 l 1
 0 640 l 1
 0 512 l 1
128 512 m 1
 256 512 l 1
 256 640 l 1
 128 640 l 1
 128 512 l 1
0 384 m 1
 128 384 l 1
 128 512 l 1
 0 512 l 1
 0 384 l 1
128 384 m 1
 256 384 l 1
 256 512 l 1
 128 512 l 1
 128 384 l 1
256 384 m 1
 384 384 l 1
 384 512 l 1
 256 512 l 1
 256 384 l 1
384 384 m 1
 512 384 l 1
 512 512 l 1
 384 512 l 1
 384 384 l 1
512 384 m 1
 640 384 l 1
 640 512 l 1
 512 512 l 1
 512 384 l 1
0 256 m 1
 128 256 l 1
 128 384 l 1
 0 384 l 1
 0 256 l 1
128 256 m 1
 256 256 l 1
 256 384 l 1
 128 384 l 1
 128 256 l 1
512 256 m 1
 640 256 l 1
 640 384 l 1
 512 384 l 1
 512 256 l 1
640 256 m 1
 768 256 l 1
 768 384 l 1
 640 384 l 1
 640 256 l 1
0 128 m 1
 128 128 l 1
 128 256 l 1
 0 256 l 1
 0 128 l 1
128 128 m 1
 256 128 l 1
 256 256 l 1
 128 256 l 1
 128 128 l 1
512 128 m 1
 640 128 l 1
 640 256 l 1
 512 256 l 1
 512 128 l 1
640 128 m 1
 768 128 l 1
 768 256 l 1
 640 256 l 1
 640 128 l 1
0 0 m 1
 128 0 l 1
 128 128 l 1
 0 128 l 1
 0 0 l 1
128 0 m 1
 256 0 l 1
 256 128 l 1
 128 128 l 1
 128 0 l 1
256 0 m 1
 384 0 l 1
 384 128 l 1
 256 128 l 1
 256 0 l 1
384 0 m 1
 512 0 l 1
 512 128 l 1
 384 128 l 1
 384 0 l 1
512 0 m 1
 640 0 l 1
 640 128 l 1
 512 128 l 1
 512 0 l 1
EndSplineSet
Validated: 5
EndChar

StartChar: uni0413
Encoding: 1043 1043 109
Width: 768
Flags: W
LayerCount: 2
Fore
SplineSet
0 768 m 1
 128 768 l 1
 128 896 l 1
 0 896 l 1
 0 768 l 1
128 768 m 1
 256 768 l 1
 256 896 l 1
 128 896 l 1
 128 768 l 1
256 768 m 1
 384 768 l 1
 384 896 l 1
 256 896 l 1
 256 768 l 1
384 768 m 1
 512 768 l 1
 512 896 l 1
 384 896 l 1
 384 768 l 1
512 768 m 1
 640 768 l 1
 640 896 l 1
 512 896 l 1
 512 768 l 1
0 640 m 1
 128 640 l 1
 128 768 l 1
 0 768 l 1
 0 640 l 1
128 640 m 1
 256 640 l 1
 256 768 l 1
 128 768 l 1
 128 640 l 1
0 512 m 1
 128 512 l 1
 128 640 l 1
 0 640 l 1
 0 512 l 1
128 512 m 1
 256 512 l 1
 256 640 l 1
 128 640 l 1
 128 512 l 1
0 384 m 1
 128 384 l 1
 128 512 l 1
 0 512 l 1
 0 384 l 1
128 384 m 1
 256 384 l 1
 256 512 l 1
 128 512 l 1
 128 384 l 1
0 256 m 1
 128 256 l 1
 128 384 l 1
 0 384 l 1
 0 256 l 1
128 256 m 1
 256 256 l 1
 256 384 l 1
 128 384 l 1
 128 256 l 1
0 128 m 1
 128 128 l 1
 128 256 l 1
 0 256 l 1
 0 128 l 1
128 128 m 1
 256 128 l 1
 256 256 l 1
 128 256 l 1
 128 128 l 1
0 0 m 1
 128 0 l 1
 128 128 l 1
 0 128 l 1
 0 0 l 1
128 0 m 1
 256 0 l 1
 256 128 l 1
 128 128 l 1
 128 0 l 1
EndSplineSet
Validated: 5
EndChar

StartChar: uni0414
Encoding: 1044 1044 110
Width: 1024
Flags: W
LayerCount: 2
Fore
SplineSet
256 768 m 1
 384 768 l 1
 384 896 l 1
 256 896 l 1
 256 768 l 1
384 768 m 1
 512 768 l 1
 512 896 l 1
 384 896 l 1
 384 768 l 1
512 768 m 1
 640 768 l 1
 640 896 l 1
 512 896 l 1
 512 768 l 1
128 640 m 1
 256 640 l 1
 256 768 l 1
 128 768 l 1
 128 640 l 1
256 640 m 1
 384 640 l 1
 384 768 l 1
 256 768 l 1
 256 640 l 1
512 640 m 1
 640 640 l 1
 640 768 l 1
 512 768 l 1
 512 640 l 1
640 640 m 1
 768 640 l 1
 768 768 l 1
 640 768 l 1
 640 640 l 1
128 512 m 1
 256 512 l 1
 256 640 l 1
 128 640 l 1
 128 512 l 1
256 512 m 1
 384 512 l 1
 384 640 l 1
 256 640 l 1
 256 512 l 1
512 512 m 1
 640 512 l 1
 640 640 l 1
 512 640 l 1
 512 512 l 1
640 512 m 1
 768 512 l 1
 768 640 l 1
 640 640 l 1
 640 512 l 1
128 384 m 1
 256 384 l 1
 256 512 l 1
 128 512 l 1
 128 384 l 1
256 384 m 1
 384 384 l 1
 384 512 l 1
 256 512 l 1
 256 384 l 1
512 384 m 1
 640 384 l 1
 640 512 l 1
 512 512 l 1
 512 384 l 1
640 384 m 1
 768 384 l 1
 768 512 l 1
 640 512 l 1
 640 384 l 1
128 256 m 1
 256 256 l 1
 256 384 l 1
 128 384 l 1
 128 256 l 1
256 256 m 1
 384 256 l 1
 384 384 l 1
 256 384 l 1
 256 256 l 1
512 256 m 1
 640 256 l 1
 640 384 l 1
 512 384 l 1
 512 256 l 1
640 256 m 1
 768 256 l 1
 768 384 l 1
 640 384 l 1
 640 256 l 1
0 128 m 1
 128 128 l 1
 128 256 l 1
 0 256 l 1
 0 128 l 1
128 128 m 1
 256 128 l 1
 256 256 l 1
 128 256 l 1
 128 128 l 1
256 128 m 1
 384 128 l 1
 384 256 l 1
 256 256 l 1
 256 128 l 1
384 128 m 1
 512 128 l 1
 512 256 l 1
 384 256 l 1
 384 128 l 1
512 128 m 1
 640 128 l 1
 640 256 l 1
 512 256 l 1
 512 128 l 1
640 128 m 1
 768 128 l 1
 768 256 l 1
 640 256 l 1
 640 128 l 1
768 128 m 1
 896 128 l 1
 896 256 l 1
 768 256 l 1
 768 128 l 1
0 0 m 1
 128 0 l 1
 128 128 l 1
 0 128 l 1
 0 0 l 1
128 0 m 1
 256 0 l 1
 256 128 l 1
 128 128 l 1
 128 0 l 1
640 0 m 1
 768 0 l 1
 768 128 l 1
 640 128 l 1
 640 0 l 1
768 0 m 1
 896 0 l 1
 896 128 l 1
 768 128 l 1
 768 0 l 1
EndSplineSet
Validated: 5
EndChar

StartChar: uni0416
Encoding: 1046 1046 111
Width: 1408
Flags: W
LayerCount: 2
Fore
SplineSet
0 768 m 1
 128 768 l 1
 128 896 l 1
 0 896 l 1
 0 768 l 1
128 768 m 1
 256 768 l 1
 256 896 l 1
 128 896 l 1
 128 768 l 1
512 768 m 1
 640 768 l 1
 640 896 l 1
 512 896 l 1
 512 768 l 1
640 768 m 1
 768 768 l 1
 768 896 l 1
 640 896 l 1
 640 768 l 1
1024 768 m 1
 1152 768 l 1
 1152 896 l 1
 1024 896 l 1
 1024 768 l 1
1152 768 m 1
 1280 768 l 1
 1280 896 l 1
 1152 896 l 1
 1152 768 l 1
128 640 m 1
 256 640 l 1
 256 768 l 1
 128 768 l 1
 128 640 l 1
256 640 m 1
 384 640 l 1
 384 768 l 1
 256 768 l 1
 256 640 l 1
512 640 m 1
 640 640 l 1
 640 768 l 1
 512 768 l 1
 512 640 l 1
640 640 m 1
 768 640 l 1
 768 768 l 1
 640 768 l 1
 640 640 l 1
896 640 m 1
 1024 640 l 1
 1024 768 l 1
 896 768 l 1
 896 640 l 1
1024 640 m 1
 1152 640 l 1
 1152 768 l 1
 1024 768 l 1
 1024 640 l 1
256 512 m 1
 384 512 l 1
 384 640 l 1
 256 640 l 1
 256 512 l 1
384 512 m 1
 512 512 l 1
 512 640 l 1
 384 640 l 1
 384 512 l 1
512 512 m 1
 640 512 l 1
 640 640 l 1
 512 640 l 1
 512 512 l 1
640 512 m 1
 768 512 l 1
 768 640 l 1
 640 640 l 1
 640 512 l 1
768 512 m 1
 896 512 l 1
 896 640 l 1
 768 640 l 1
 768 512 l 1
896 512 m 1
 1024 512 l 1
 1024 640 l 1
 896 640 l 1
 896 512 l 1
384 384 m 1
 512 384 l 1
 512 512 l 1
 384 512 l 1
 384 384 l 1
512 384 m 1
 640 384 l 1
 640 512 l 1
 512 512 l 1
 512 384 l 1
640 384 m 1
 768 384 l 1
 768 512 l 1
 640 512 l 1
 640 384 l 1
768 384 m 1
 896 384 l 1
 896 512 l 1
 768 512 l 1
 768 384 l 1
256 256 m 1
 384 256 l 1
 384 384 l 1
 256 384 l 1
 256 256 l 1
384 256 m 1
 512 256 l 1
 512 384 l 1
 384 384 l 1
 384 256 l 1
512 256 m 1
 640 256 l 1
 640 384 l 1
 512 384 l 1
 512 256 l 1
640 256 m 1
 768 256 l 1
 768 384 l 1
 640 384 l 1
 640 256 l 1
768 256 m 1
 896 256 l 1
 896 384 l 1
 768 384 l 1
 768 256 l 1
896 256 m 1
 1024 256 l 1
 1024 384 l 1
 896 384 l 1
 896 256 l 1
128 128 m 1
 256 128 l 1
 256 256 l 1
 128 256 l 1
 128 128 l 1
256 128 m 1
 384 128 l 1
 384 256 l 1
 256 256 l 1
 256 128 l 1
512 128 m 1
 640 128 l 1
 640 256 l 1
 512 256 l 1
 512 128 l 1
640 128 m 1
 768 128 l 1
 768 256 l 1
 640 256 l 1
 640 128 l 1
896 128 m 1
 1024 128 l 1
 1024 256 l 1
 896 256 l 1
 896 128 l 1
1024 128 m 1
 1152 128 l 1
 1152 256 l 1
 1024 256 l 1
 1024 128 l 1
0 0 m 1
 128 0 l 1
 128 128 l 1
 0 128 l 1
 0 0 l 1
128 0 m 1
 256 0 l 1
 256 128 l 1
 128 128 l 1
 128 0 l 1
512 0 m 1
 640 0 l 1
 640 128 l 1
 512 128 l 1
 512 0 l 1
640 0 m 1
 768 0 l 1
 768 128 l 1
 640 128 l 1
 640 0 l 1
1024 0 m 1
 1152 0 l 1
 1152 128 l 1
 1024 128 l 1
 1024 0 l 1
1152 0 m 1
 1280 0 l 1
 1280 128 l 1
 1152 128 l 1
 1152 0 l 1
EndSplineSet
Validated: 5
EndChar

StartChar: uni0401
Encoding: 1025 1025 112
Width: 1024
Flags: W
LayerCount: 2
Fore
SplineSet
128 1024 m 1
 256 1024 l 1
 256 1152 l 1
 128 1152 l 1
 128 1024 l 1
384 1024 m 1
 512 1024 l 1
 512 1152 l 1
 384 1152 l 1
 384 1024 l 1
0 768 m 1
 128 768 l 1
 128 896 l 1
 0 896 l 1
 0 768 l 1
128 768 m 1
 256 768 l 1
 256 896 l 1
 128 896 l 1
 128 768 l 1
256 768 m 1
 384 768 l 1
 384 896 l 1
 256 896 l 1
 256 768 l 1
384 768 m 1
 512 768 l 1
 512 896 l 1
 384 896 l 1
 384 768 l 1
512 768 m 1
 640 768 l 1
 640 896 l 1
 512 896 l 1
 512 768 l 1
0 640 m 1
 128 640 l 1
 128 768 l 1
 0 768 l 1
 0 640 l 1
128 640 m 1
 256 640 l 1
 256 768 l 1
 128 768 l 1
 128 640 l 1
0 512 m 1
 128 512 l 1
 128 640 l 1
 0 640 l 1
 0 512 l 1
128 512 m 1
 256 512 l 1
 256 640 l 1
 128 640 l 1
 128 512 l 1
0 384 m 1
 128 384 l 1
 128 512 l 1
 0 512 l 1
 0 384 l 1
128 384 m 1
 256 384 l 1
 256 512 l 1
 128 512 l 1
 128 384 l 1
256 384 m 1
 384 384 l 1
 384 512 l 1
 256 512 l 1
 256 384 l 1
384 384 m 1
 512 384 l 1
 512 512 l 1
 384 512 l 1
 384 384 l 1
0 256 m 1
 128 256 l 1
 128 384 l 1
 0 384 l 1
 0 256 l 1
128 256 m 1
 256 256 l 1
 256 384 l 1
 128 384 l 1
 128 256 l 1
0 128 m 1
 128 128 l 1
 128 256 l 1
 0 256 l 1
 0 128 l 1
128 128 m 1
 256 128 l 1
 256 256 l 1
 128 256 l 1
 128 128 l 1
0 0 m 1
 128 0 l 1
 128 128 l 1
 0 128 l 1
 0 0 l 1
128 0 m 1
 256 0 l 1
 256 128 l 1
 128 128 l 1
 128 0 l 1
256 0 m 1
 384 0 l 1
 384 128 l 1
 256 128 l 1
 256 0 l 1
384 0 m 1
 512 0 l 1
 512 128 l 1
 384 128 l 1
 384 0 l 1
512 0 m 1
 640 0 l 1
 640 128 l 1
 512 128 l 1
 512 0 l 1
EndSplineSet
Validated: 5
EndChar

StartChar: uni0434
Encoding: 1076 1076 113
Width: 1024
Flags: W
LayerCount: 2
Fore
SplineSet
256 768 m 1
 384 768 l 1
 384 896 l 1
 256 896 l 1
 256 768 l 1
384 768 m 1
 512 768 l 1
 512 896 l 1
 384 896 l 1
 384 768 l 1
512 768 m 1
 640 768 l 1
 640 896 l 1
 512 896 l 1
 512 768 l 1
128 640 m 1
 256 640 l 1
 256 768 l 1
 128 768 l 1
 128 640 l 1
256 640 m 1
 384 640 l 1
 384 768 l 1
 256 768 l 1
 256 640 l 1
512 640 m 1
 640 640 l 1
 640 768 l 1
 512 768 l 1
 512 640 l 1
640 640 m 1
 768 640 l 1
 768 768 l 1
 640 768 l 1
 640 640 l 1
128 512 m 1
 256 512 l 1
 256 640 l 1
 128 640 l 1
 128 512 l 1
256 512 m 1
 384 512 l 1
 384 640 l 1
 256 640 l 1
 256 512 l 1
512 512 m 1
 640 512 l 1
 640 640 l 1
 512 640 l 1
 512 512 l 1
640 512 m 1
 768 512 l 1
 768 640 l 1
 640 640 l 1
 640 512 l 1
128 384 m 1
 256 384 l 1
 256 512 l 1
 128 512 l 1
 128 384 l 1
256 384 m 1
 384 384 l 1
 384 512 l 1
 256 512 l 1
 256 384 l 1
512 384 m 1
 640 384 l 1
 640 512 l 1
 512 512 l 1
 512 384 l 1
640 384 m 1
 768 384 l 1
 768 512 l 1
 640 512 l 1
 640 384 l 1
128 256 m 1
 256 256 l 1
 256 384 l 1
 128 384 l 1
 128 256 l 1
256 256 m 1
 384 256 l 1
 384 384 l 1
 256 384 l 1
 256 256 l 1
512 256 m 1
 640 256 l 1
 640 384 l 1
 512 384 l 1
 512 256 l 1
640 256 m 1
 768 256 l 1
 768 384 l 1
 640 384 l 1
 640 256 l 1
0 128 m 1
 128 128 l 1
 128 256 l 1
 0 256 l 1
 0 128 l 1
128 128 m 1
 256 128 l 1
 256 256 l 1
 128 256 l 1
 128 128 l 1
256 128 m 1
 384 128 l 1
 384 256 l 1
 256 256 l 1
 256 128 l 1
384 128 m 1
 512 128 l 1
 512 256 l 1
 384 256 l 1
 384 128 l 1
512 128 m 1
 640 128 l 1
 640 256 l 1
 512 256 l 1
 512 128 l 1
640 128 m 1
 768 128 l 1
 768 256 l 1
 640 256 l 1
 640 128 l 1
768 128 m 1
 896 128 l 1
 896 256 l 1
 768 256 l 1
 768 128 l 1
0 0 m 1
 128 0 l 1
 128 128 l 1
 0 128 l 1
 0 0 l 1
128 0 m 1
 256 0 l 1
 256 128 l 1
 128 128 l 1
 128 0 l 1
640 0 m 1
 768 0 l 1
 768 128 l 1
 640 128 l 1
 640 0 l 1
768 0 m 1
 896 0 l 1
 896 128 l 1
 768 128 l 1
 768 0 l 1
EndSplineSet
Validated: 5
EndChar

StartChar: uni0418
Encoding: 1048 1048 114
Width: 896
Flags: W
LayerCount: 2
Fore
SplineSet
0 768 m 1
 128 768 l 1
 128 896 l 1
 0 896 l 1
 0 768 l 1
128 768 m 1
 256 768 l 1
 256 896 l 1
 128 896 l 1
 128 768 l 1
640 768 m 1
 768 768 l 1
 768 896 l 1
 640 896 l 1
 640 768 l 1
0 640 m 1
 128 640 l 1
 128 768 l 1
 0 768 l 1
 0 640 l 1
128 640 m 1
 256 640 l 1
 256 768 l 1
 128 768 l 1
 128 640 l 1
512 640 m 1
 640 640 l 1
 640 768 l 1
 512 768 l 1
 512 640 l 1
640 640 m 1
 768 640 l 1
 768 768 l 1
 640 768 l 1
 640 640 l 1
0 512 m 1
 128 512 l 1
 128 640 l 1
 0 640 l 1
 0 512 l 1
128 512 m 1
 256 512 l 1
 256 640 l 1
 128 640 l 1
 128 512 l 1
384 512 m 1
 512 512 l 1
 512 640 l 1
 384 640 l 1
 384 512 l 1
512 512 m 1
 640 512 l 1
 640 640 l 1
 512 640 l 1
 512 512 l 1
640 512 m 1
 768 512 l 1
 768 640 l 1
 640 640 l 1
 640 512 l 1
0 384 m 1
 128 384 l 1
 128 512 l 1
 0 512 l 1
 0 384 l 1
128 384 m 1
 256 384 l 5
 256 512 l 1
 128 512 l 1
 128 384 l 1
256 384 m 1
 384 384 l 1
 384 512 l 1
 256 512 l 1
 256 384 l 1
384 384 m 1
 512 384 l 1
 512 512 l 1
 384 512 l 1
 384 384 l 1
512 384 m 1
 640 384 l 1
 640 512 l 1
 512 512 l 1
 512 384 l 1
640 384 m 1
 768 384 l 1
 768 512 l 1
 640 512 l 1
 640 384 l 1
0 256 m 1
 128 256 l 1
 128 384 l 1
 0 384 l 1
 0 256 l 1
128 256 m 1
 256 256 l 1
 256 384 l 1
 128 384 l 1
 128 256 l 1
256 256 m 1
 384 256 l 1
 384 384 l 1
 256 384 l 1
 256 256 l 1
512 256 m 1
 640 256 l 1
 640 384 l 1
 512 384 l 1
 512 256 l 1
640 256 m 1
 768 256 l 1
 768 384 l 1
 640 384 l 1
 640 256 l 1
0 128 m 1
 128 128 l 1
 128 256 l 1
 0 256 l 1
 0 128 l 1
128 128 m 1
 256 128 l 1
 256 256 l 1
 128 256 l 1
 128 128 l 1
512 128 m 1
 640 128 l 1
 640 256 l 1
 512 256 l 1
 512 128 l 1
640 128 m 1
 768 128 l 1
 768 256 l 1
 640 256 l 1
 640 128 l 1
0 0 m 1
 128 0 l 1
 128 128 l 1
 0 128 l 1
 0 0 l 1
512 0 m 1
 640 0 l 1
 640 128 l 1
 512 128 l 1
 512 0 l 1
640 0 m 1
 768 0 l 1
 768 128 l 1
 640 128 l 1
 640 0 l 1
EndSplineSet
Validated: 5
EndChar

StartChar: uni0419
Encoding: 1049 1049 115
Width: 1024
Flags: W
LayerCount: 2
Fore
SplineSet
256 1024 m 5
 384 1024 l 5
 384 1152 l 5
 256 1152 l 5
 256 1024 l 5
384 1024 m 5
 512 1024 l 5
 512 1152 l 5
 384 1152 l 5
 384 1024 l 5
0 768 m 5
 128 768 l 5
 128 896 l 5
 0 896 l 5
 0 768 l 5
128 768 m 5
 256 768 l 5
 256 896 l 5
 128 896 l 5
 128 768 l 5
640 768 m 5
 768 768 l 5
 768 896 l 5
 640 896 l 5
 640 768 l 5
0 640 m 5
 128 640 l 5
 128 768 l 5
 0 768 l 5
 0 640 l 5
128 640 m 5
 256 640 l 5
 256 768 l 5
 128 768 l 5
 128 640 l 5
512 640 m 5
 640 640 l 5
 640 768 l 5
 512 768 l 5
 512 640 l 5
640 640 m 5
 768 640 l 5
 768 768 l 5
 640 768 l 5
 640 640 l 5
0 512 m 5
 128 512 l 5
 128 640 l 5
 0 640 l 5
 0 512 l 5
128 512 m 5
 256 512 l 5
 256 640 l 5
 128 640 l 5
 128 512 l 5
384 512 m 5
 512 512 l 5
 512 640 l 5
 384 640 l 5
 384 512 l 5
512 512 m 5
 640 512 l 5
 640 640 l 5
 512 640 l 5
 512 512 l 5
640 512 m 5
 768 512 l 5
 768 640 l 5
 640 640 l 5
 640 512 l 5
0 384 m 5
 128 384 l 5
 128 512 l 5
 0 512 l 5
 0 384 l 5
128 384 m 5
 256 384 l 5
 256 512 l 5
 128 512 l 5
 128 384 l 5
256 384 m 5
 384 384 l 5
 384 512 l 5
 256 512 l 5
 256 384 l 5
384 384 m 5
 512 384 l 5
 512 512 l 5
 384 512 l 5
 384 384 l 5
512 384 m 5
 640 384 l 5
 640 512 l 5
 512 512 l 5
 512 384 l 5
640 384 m 5
 768 384 l 5
 768 512 l 5
 640 512 l 5
 640 384 l 5
0 256 m 5
 128 256 l 5
 128 384 l 5
 0 384 l 5
 0 256 l 5
128 256 m 5
 256 256 l 5
 256 384 l 5
 128 384 l 5
 128 256 l 5
256 256 m 5
 384 256 l 5
 384 384 l 5
 256 384 l 5
 256 256 l 5
512 256 m 5
 640 256 l 5
 640 384 l 5
 512 384 l 5
 512 256 l 5
640 256 m 5
 768 256 l 5
 768 384 l 5
 640 384 l 5
 640 256 l 5
0 128 m 5
 128 128 l 5
 128 256 l 5
 0 256 l 5
 0 128 l 5
128 128 m 5
 256 128 l 5
 256 256 l 5
 128 256 l 5
 128 128 l 5
512 128 m 5
 640 128 l 5
 640 256 l 5
 512 256 l 5
 512 128 l 5
640 128 m 5
 768 128 l 5
 768 256 l 5
 640 256 l 5
 640 128 l 5
0 0 m 5
 128 0 l 5
 128 128 l 5
 0 128 l 5
 0 0 l 5
512 0 m 5
 640 0 l 5
 640 128 l 5
 512 128 l 5
 512 0 l 5
640 0 m 5
 768 0 l 5
 768 128 l 5
 640 128 l 5
 640 0 l 5
EndSplineSet
Validated: 5
EndChar

StartChar: uni041B
Encoding: 1051 1051 116
Width: 1024
Flags: W
LayerCount: 2
Fore
SplineSet
256 768 m 1
 384 768 l 1
 384 896 l 1
 256 896 l 1
 256 768 l 1
384 768 m 1
 512 768 l 1
 512 896 l 1
 384 896 l 1
 384 768 l 1
512 768 m 1
 640 768 l 1
 640 896 l 1
 512 896 l 1
 512 768 l 1
640 768 m 1
 768 768 l 1
 768 896 l 1
 640 896 l 1
 640 768 l 1
768 768 m 1
 896 768 l 1
 896 896 l 1
 768 896 l 1
 768 768 l 1
128 640 m 1
 256 640 l 1
 256 768 l 1
 128 768 l 1
 128 640 l 1
256 640 m 1
 384 640 l 1
 384 768 l 1
 256 768 l 1
 256 640 l 1
640 640 m 1
 768 640 l 1
 768 768 l 1
 640 768 l 1
 640 640 l 1
768 640 m 1
 896 640 l 1
 896 768 l 1
 768 768 l 1
 768 640 l 1
128 512 m 1
 256 512 l 1
 256 640 l 1
 128 640 l 1
 128 512 l 1
256 512 m 1
 384 512 l 1
 384 640 l 1
 256 640 l 1
 256 512 l 1
640 512 m 1
 768 512 l 1
 768 640 l 1
 640 640 l 1
 640 512 l 1
768 512 m 1
 896 512 l 1
 896 640 l 1
 768 640 l 1
 768 512 l 1
128 384 m 1
 256 384 l 1
 256 512 l 1
 128 512 l 1
 128 384 l 1
256 384 m 1
 384 384 l 1
 384 512 l 1
 256 512 l 1
 256 384 l 1
640 384 m 1
 768 384 l 1
 768 512 l 1
 640 512 l 1
 640 384 l 1
768 384 m 1
 896 384 l 1
 896 512 l 1
 768 512 l 1
 768 384 l 1
128 256 m 1
 256 256 l 1
 256 384 l 1
 128 384 l 1
 128 256 l 1
256 256 m 1
 384 256 l 1
 384 384 l 1
 256 384 l 1
 256 256 l 1
640 256 m 1
 768 256 l 1
 768 384 l 1
 640 384 l 1
 640 256 l 1
768 256 m 1
 896 256 l 1
 896 384 l 1
 768 384 l 1
 768 256 l 1
128 128 m 1
 256 128 l 1
 256 256 l 1
 128 256 l 1
 128 128 l 1
256 128 m 1
 384 128 l 1
 384 256 l 1
 256 256 l 1
 256 128 l 1
640 128 m 1
 768 128 l 1
 768 256 l 1
 640 256 l 1
 640 128 l 1
768 128 m 1
 896 128 l 1
 896 256 l 1
 768 256 l 1
 768 128 l 1
0 0 m 1
 128 0 l 1
 128 128 l 1
 0 128 l 1
 0 0 l 1
128 0 m 1
 256 0 l 1
 256 128 l 1
 128 128 l 1
 128 0 l 1
256 0 m 1
 384 0 l 1
 384 128 l 1
 256 128 l 1
 256 0 l 1
640 0 m 1
 768 0 l 1
 768 128 l 1
 640 128 l 1
 640 0 l 1
768 0 m 1
 896 0 l 1
 896 128 l 1
 768 128 l 1
 768 0 l 1
EndSplineSet
Validated: 5
EndChar

StartChar: uni041F
Encoding: 1055 1055 117
Width: 896
Flags: W
LayerCount: 2
Fore
SplineSet
0 768 m 1
 128 768 l 1
 128 896 l 1
 0 896 l 1
 0 768 l 1
128 768 m 1
 256 768 l 1
 256 896 l 1
 128 896 l 1
 128 768 l 1
256 768 m 1
 384 768 l 1
 384 896 l 1
 256 896 l 1
 256 768 l 1
384 768 m 1
 512 768 l 1
 512 896 l 1
 384 896 l 1
 384 768 l 1
512 768 m 1
 640 768 l 1
 640 896 l 1
 512 896 l 1
 512 768 l 1
640 768 m 1
 768 768 l 1
 768 896 l 1
 640 896 l 1
 640 768 l 1
0 640 m 1
 128 640 l 1
 128 768 l 1
 0 768 l 1
 0 640 l 1
128 640 m 1
 256 640 l 1
 256 768 l 1
 128 768 l 1
 128 640 l 1
512 640 m 1
 640 640 l 1
 640 768 l 1
 512 768 l 1
 512 640 l 1
640 640 m 1
 768 640 l 1
 768 768 l 1
 640 768 l 1
 640 640 l 1
0 512 m 1
 128 512 l 1
 128 640 l 1
 0 640 l 1
 0 512 l 1
128 512 m 1
 256 512 l 1
 256 640 l 1
 128 640 l 1
 128 512 l 1
512 512 m 1
 640 512 l 1
 640 640 l 1
 512 640 l 1
 512 512 l 1
640 512 m 1
 768 512 l 1
 768 640 l 1
 640 640 l 1
 640 512 l 1
0 384 m 1
 128 384 l 1
 128 512 l 1
 0 512 l 1
 0 384 l 1
128 384 m 1
 256 384 l 1
 256 512 l 1
 128 512 l 1
 128 384 l 1
512 384 m 1
 640 384 l 1
 640 512 l 1
 512 512 l 1
 512 384 l 1
640 384 m 1
 768 384 l 1
 768 512 l 1
 640 512 l 1
 640 384 l 1
0 256 m 1
 128 256 l 1
 128 384 l 1
 0 384 l 1
 0 256 l 1
128 256 m 1
 256 256 l 1
 256 384 l 1
 128 384 l 1
 128 256 l 1
512 256 m 1
 640 256 l 1
 640 384 l 1
 512 384 l 1
 512 256 l 1
640 256 m 1
 768 256 l 1
 768 384 l 1
 640 384 l 1
 640 256 l 1
0 128 m 1
 128 128 l 1
 128 256 l 1
 0 256 l 1
 0 128 l 1
128 128 m 1
 256 128 l 1
 256 256 l 1
 128 256 l 1
 128 128 l 1
512 128 m 1
 640 128 l 1
 640 256 l 1
 512 256 l 1
 512 128 l 1
640 128 m 1
 768 128 l 1
 768 256 l 1
 640 256 l 1
 640 128 l 1
0 0 m 1
 128 0 l 1
 128 128 l 1
 0 128 l 1
 0 0 l 1
128 0 m 1
 256 0 l 1
 256 128 l 1
 128 128 l 1
 128 0 l 1
512 0 m 1
 640 0 l 1
 640 128 l 1
 512 128 l 1
 512 0 l 1
640 0 m 1
 768 0 l 1
 768 128 l 1
 640 128 l 1
 640 0 l 1
EndSplineSet
Validated: 5
EndChar

StartChar: uni0424
Encoding: 1060 1060 118
Width: 1152
Flags: W
LayerCount: 2
Fore
SplineSet
384 768 m 1
 512 768 l 1
 512 896 l 1
 384 896 l 1
 384 768 l 1
512 768 m 1
 640 768 l 1
 640 896 l 1
 512 896 l 1
 512 768 l 1
128 640 m 1
 256 640 l 1
 256 768 l 1
 128 768 l 1
 128 640 l 1
256 640 m 1
 384 640 l 1
 384 768 l 1
 256 768 l 1
 256 640 l 1
384 640 m 1
 512 640 l 1
 512 768 l 1
 384 768 l 1
 384 640 l 1
512 640 m 1
 640 640 l 1
 640 768 l 1
 512 768 l 1
 512 640 l 1
640 640 m 1
 768 640 l 1
 768 768 l 1
 640 768 l 1
 640 640 l 1
768 640 m 1
 896 640 l 1
 896 768 l 1
 768 768 l 1
 768 640 l 1
0 512 m 1
 128 512 l 1
 128 640 l 1
 0 640 l 1
 0 512 l 1
128 512 m 1
 256 512 l 1
 256 640 l 1
 128 640 l 1
 128 512 l 1
384 512 m 1
 512 512 l 1
 512 640 l 1
 384 640 l 1
 384 512 l 1
512 512 m 1
 640 512 l 1
 640 640 l 1
 512 640 l 1
 512 512 l 1
768 512 m 1
 896 512 l 1
 896 640 l 1
 768 640 l 1
 768 512 l 1
896 512 m 1
 1024 512 l 1
 1024 640 l 1
 896 640 l 1
 896 512 l 1
0 384 m 1
 128 384 l 1
 128 512 l 1
 0 512 l 1
 0 384 l 1
128 384 m 1
 256 384 l 1
 256 512 l 1
 128 512 l 1
 128 384 l 1
384 384 m 1
 512 384 l 1
 512 512 l 1
 384 512 l 1
 384 384 l 1
512 384 m 1
 640 384 l 1
 640 512 l 1
 512 512 l 1
 512 384 l 1
768 384 m 1
 896 384 l 1
 896 512 l 1
 768 512 l 1
 768 384 l 1
896 384 m 1
 1024 384 l 1
 1024 512 l 1
 896 512 l 1
 896 384 l 1
0 256 m 1
 128 256 l 1
 128 384 l 1
 0 384 l 1
 0 256 l 1
128 256 m 1
 256 256 l 1
 256 384 l 1
 128 384 l 1
 128 256 l 1
384 256 m 1
 512 256 l 1
 512 384 l 1
 384 384 l 1
 384 256 l 1
512 256 m 1
 640 256 l 1
 640 384 l 1
 512 384 l 1
 512 256 l 1
768 256 m 1
 896 256 l 1
 896 384 l 1
 768 384 l 1
 768 256 l 1
896 256 m 1
 1024 256 l 1
 1024 384 l 1
 896 384 l 1
 896 256 l 1
128 128 m 1
 256 128 l 1
 256 256 l 1
 128 256 l 1
 128 128 l 1
256 128 m 1
 384 128 l 1
 384 256 l 1
 256 256 l 1
 256 128 l 1
384 128 m 1
 512 128 l 1
 512 256 l 1
 384 256 l 1
 384 128 l 1
512 128 m 1
 640 128 l 1
 640 256 l 1
 512 256 l 1
 512 128 l 1
640 128 m 1
 768 128 l 1
 768 256 l 1
 640 256 l 1
 640 128 l 1
768 128 m 1
 896 128 l 1
 896 256 l 1
 768 256 l 1
 768 128 l 1
384 0 m 1
 512 0 l 1
 512 128 l 1
 384 128 l 1
 384 0 l 1
512 0 m 1
 640 0 l 1
 640 128 l 1
 512 128 l 1
 512 0 l 1
EndSplineSet
Validated: 5
EndChar

StartChar: uni0444
Encoding: 1092 1092 119
Width: 1152
Flags: W
LayerCount: 2
Fore
SplineSet
384 768 m 1
 512 768 l 1
 512 896 l 1
 384 896 l 1
 384 768 l 1
512 768 m 1
 640 768 l 1
 640 896 l 1
 512 896 l 1
 512 768 l 1
128 640 m 1
 256 640 l 1
 256 768 l 1
 128 768 l 1
 128 640 l 1
256 640 m 1
 384 640 l 1
 384 768 l 1
 256 768 l 1
 256 640 l 1
384 640 m 1
 512 640 l 1
 512 768 l 1
 384 768 l 1
 384 640 l 1
512 640 m 1
 640 640 l 1
 640 768 l 1
 512 768 l 1
 512 640 l 1
640 640 m 1
 768 640 l 1
 768 768 l 1
 640 768 l 1
 640 640 l 1
768 640 m 1
 896 640 l 1
 896 768 l 1
 768 768 l 1
 768 640 l 1
0 512 m 1
 128 512 l 1
 128 640 l 1
 0 640 l 1
 0 512 l 1
128 512 m 1
 256 512 l 1
 256 640 l 1
 128 640 l 1
 128 512 l 1
384 512 m 1
 512 512 l 1
 512 640 l 1
 384 640 l 1
 384 512 l 1
512 512 m 1
 640 512 l 1
 640 640 l 1
 512 640 l 1
 512 512 l 1
768 512 m 1
 896 512 l 1
 896 640 l 1
 768 640 l 1
 768 512 l 1
896 512 m 1
 1024 512 l 1
 1024 640 l 1
 896 640 l 1
 896 512 l 1
0 384 m 1
 128 384 l 1
 128 512 l 1
 0 512 l 1
 0 384 l 1
128 384 m 1
 256 384 l 1
 256 512 l 1
 128 512 l 1
 128 384 l 1
384 384 m 1
 512 384 l 1
 512 512 l 1
 384 512 l 1
 384 384 l 1
512 384 m 1
 640 384 l 1
 640 512 l 1
 512 512 l 1
 512 384 l 1
768 384 m 1
 896 384 l 1
 896 512 l 1
 768 512 l 1
 768 384 l 1
896 384 m 1
 1024 384 l 1
 1024 512 l 1
 896 512 l 1
 896 384 l 1
0 256 m 1
 128 256 l 1
 128 384 l 1
 0 384 l 1
 0 256 l 1
128 256 m 1
 256 256 l 1
 256 384 l 1
 128 384 l 1
 128 256 l 1
384 256 m 1
 512 256 l 1
 512 384 l 1
 384 384 l 1
 384 256 l 1
512 256 m 1
 640 256 l 1
 640 384 l 1
 512 384 l 1
 512 256 l 1
768 256 m 1
 896 256 l 1
 896 384 l 1
 768 384 l 1
 768 256 l 1
896 256 m 1
 1024 256 l 1
 1024 384 l 1
 896 384 l 1
 896 256 l 1
128 128 m 1
 256 128 l 1
 256 256 l 1
 128 256 l 1
 128 128 l 1
256 128 m 1
 384 128 l 1
 384 256 l 1
 256 256 l 1
 256 128 l 1
384 128 m 1
 512 128 l 1
 512 256 l 1
 384 256 l 1
 384 128 l 1
512 128 m 1
 640 128 l 1
 640 256 l 1
 512 256 l 1
 512 128 l 1
640 128 m 1
 768 128 l 1
 768 256 l 1
 640 256 l 1
 640 128 l 1
768 128 m 1
 896 128 l 1
 896 256 l 1
 768 256 l 1
 768 128 l 1
384 0 m 1
 512 0 l 1
 512 128 l 1
 384 128 l 1
 384 0 l 1
512 0 m 1
 640 0 l 1
 640 128 l 1
 512 128 l 1
 512 0 l 1
EndSplineSet
Validated: 5
EndChar

StartChar: uni0426
Encoding: 1062 1062 120
Width: 1024
Flags: W
LayerCount: 2
Fore
SplineSet
0 768 m 1
 128 768 l 1
 128 896 l 1
 0 896 l 1
 0 768 l 1
128 768 m 1
 256 768 l 1
 256 896 l 1
 128 896 l 1
 128 768 l 1
512 768 m 1
 640 768 l 1
 640 896 l 1
 512 896 l 1
 512 768 l 1
640 768 m 1
 768 768 l 1
 768 896 l 1
 640 896 l 1
 640 768 l 1
0 640 m 1
 128 640 l 1
 128 768 l 1
 0 768 l 1
 0 640 l 1
128 640 m 1
 256 640 l 1
 256 768 l 1
 128 768 l 1
 128 640 l 1
512 640 m 1
 640 640 l 1
 640 768 l 1
 512 768 l 1
 512 640 l 1
640 640 m 1
 768 640 l 1
 768 768 l 1
 640 768 l 1
 640 640 l 1
0 512 m 1
 128 512 l 1
 128 640 l 1
 0 640 l 1
 0 512 l 1
128 512 m 1
 256 512 l 1
 256 640 l 1
 128 640 l 1
 128 512 l 1
512 512 m 1
 640 512 l 1
 640 640 l 1
 512 640 l 1
 512 512 l 1
640 512 m 1
 768 512 l 1
 768 640 l 1
 640 640 l 1
 640 512 l 1
0 384 m 1
 128 384 l 1
 128 512 l 1
 0 512 l 1
 0 384 l 1
128 384 m 1
 256 384 l 1
 256 512 l 1
 128 512 l 1
 128 384 l 1
512 384 m 1
 640 384 l 1
 640 512 l 1
 512 512 l 1
 512 384 l 1
640 384 m 1
 768 384 l 1
 768 512 l 1
 640 512 l 1
 640 384 l 1
0 256 m 1
 128 256 l 1
 128 384 l 1
 0 384 l 1
 0 256 l 1
128 256 m 1
 256 256 l 1
 256 384 l 1
 128 384 l 1
 128 256 l 1
512 256 m 1
 640 256 l 1
 640 384 l 1
 512 384 l 1
 512 256 l 1
640 256 m 1
 768 256 l 1
 768 384 l 1
 640 384 l 1
 640 256 l 1
0 128 m 1
 128 128 l 1
 128 256 l 1
 0 256 l 1
 0 128 l 1
128 128 m 1
 256 128 l 1
 256 256 l 1
 128 256 l 1
 128 128 l 1
512 128 m 1
 640 128 l 1
 640 256 l 1
 512 256 l 1
 512 128 l 1
640 128 m 1
 768 128 l 1
 768 256 l 1
 640 256 l 1
 640 128 l 1
128 0 m 1
 256 0 l 1
 256 128 l 1
 128 128 l 1
 128 0 l 1
256 0 m 1
 384 0 l 1
 384 128 l 1
 256 128 l 1
 256 0 l 1
384 0 m 1
 512 0 l 1
 512 128 l 1
 384 128 l 1
 384 0 l 1
512 0 m 1
 640 0 l 1
 640 128 l 1
 512 128 l 1
 512 0 l 1
640 0 m 1
 768 0 l 1
 768 128 l 1
 640 128 l 1
 640 0 l 1
768 0 m 1
 896 0 l 1
 896 128 l 1
 768 128 l 1
 768 0 l 1
640 -128 m 1
 768 -128 l 1
 768 0 l 1
 640 0 l 1
 640 -128 l 1
768 -128 m 1
 896 -128 l 1
 896 0 l 1
 768 0 l 1
 768 -128 l 1
EndSplineSet
Validated: 5
EndChar

StartChar: uni0427
Encoding: 1063 1063 121
Width: 896
Flags: W
LayerCount: 2
Fore
SplineSet
0 768 m 1
 128 768 l 1
 128 896 l 1
 0 896 l 1
 0 768 l 1
128 768 m 1
 256 768 l 1
 256 896 l 1
 128 896 l 1
 128 768 l 1
512 768 m 1
 640 768 l 1
 640 896 l 1
 512 896 l 1
 512 768 l 1
640 768 m 1
 768 768 l 1
 768 896 l 1
 640 896 l 1
 640 768 l 1
0 640 m 1
 128 640 l 1
 128 768 l 1
 0 768 l 1
 0 640 l 1
128 640 m 1
 256 640 l 1
 256 768 l 1
 128 768 l 1
 128 640 l 1
512 640 m 1
 640 640 l 1
 640 768 l 1
 512 768 l 1
 512 640 l 1
640 640 m 1
 768 640 l 1
 768 768 l 1
 640 768 l 1
 640 640 l 1
0 512 m 1
 128 512 l 1
 128 640 l 1
 0 640 l 1
 0 512 l 1
128 512 m 1
 256 512 l 1
 256 640 l 1
 128 640 l 1
 128 512 l 1
512 512 m 1
 640 512 l 1
 640 640 l 1
 512 640 l 1
 512 512 l 1
640 512 m 1
 768 512 l 1
 768 640 l 1
 640 640 l 1
 640 512 l 1
128 384 m 1
 256 384 l 1
 256 512 l 1
 128 512 l 1
 128 384 l 1
256 384 m 1
 384 384 l 1
 384 512 l 1
 256 512 l 1
 256 384 l 1
384 384 m 1
 512 384 l 1
 512 512 l 1
 384 512 l 1
 384 384 l 1
512 384 m 1
 640 384 l 1
 640 512 l 1
 512 512 l 1
 512 384 l 1
640 384 m 1
 768 384 l 1
 768 512 l 1
 640 512 l 1
 640 384 l 1
512 256 m 1
 640 256 l 1
 640 384 l 1
 512 384 l 1
 512 256 l 1
640 256 m 1
 768 256 l 1
 768 384 l 1
 640 384 l 1
 640 256 l 1
512 128 m 1
 640 128 l 1
 640 256 l 1
 512 256 l 1
 512 128 l 1
640 128 m 1
 768 128 l 1
 768 256 l 1
 640 256 l 1
 640 128 l 1
512 0 m 1
 640 0 l 1
 640 128 l 1
 512 128 l 1
 512 0 l 1
640 0 m 1
 768 0 l 1
 768 128 l 1
 640 128 l 1
 640 0 l 1
EndSplineSet
Validated: 5
EndChar

StartChar: uni0428
Encoding: 1064 1064 122
Width: 1152
Flags: W
LayerCount: 2
Fore
SplineSet
0 768 m 1
 128 768 l 1
 128 896 l 1
 0 896 l 1
 0 768 l 1
128 768 m 1
 256 768 l 1
 256 896 l 1
 128 896 l 1
 128 768 l 1
384 768 m 1
 512 768 l 1
 512 896 l 1
 384 896 l 1
 384 768 l 1
512 768 m 1
 640 768 l 1
 640 896 l 1
 512 896 l 1
 512 768 l 1
768 768 m 1
 896 768 l 1
 896 896 l 1
 768 896 l 1
 768 768 l 1
896 768 m 1
 1024 768 l 1
 1024 896 l 1
 896 896 l 1
 896 768 l 1
0 640 m 1
 128 640 l 1
 128 768 l 1
 0 768 l 1
 0 640 l 1
128 640 m 1
 256 640 l 1
 256 768 l 1
 128 768 l 1
 128 640 l 1
384 640 m 1
 512 640 l 1
 512 768 l 1
 384 768 l 1
 384 640 l 1
512 640 m 1
 640 640 l 1
 640 768 l 1
 512 768 l 1
 512 640 l 1
768 640 m 1
 896 640 l 1
 896 768 l 1
 768 768 l 1
 768 640 l 1
896 640 m 1
 1024 640 l 1
 1024 768 l 1
 896 768 l 1
 896 640 l 1
0 512 m 1
 128 512 l 1
 128 640 l 1
 0 640 l 1
 0 512 l 1
128 512 m 1
 256 512 l 1
 256 640 l 1
 128 640 l 1
 128 512 l 1
384 512 m 1
 512 512 l 1
 512 640 l 1
 384 640 l 1
 384 512 l 1
512 512 m 1
 640 512 l 1
 640 640 l 1
 512 640 l 1
 512 512 l 1
768 512 m 1
 896 512 l 1
 896 640 l 1
 768 640 l 1
 768 512 l 1
896 512 m 1
 1024 512 l 1
 1024 640 l 1
 896 640 l 1
 896 512 l 1
0 384 m 1
 128 384 l 1
 128 512 l 1
 0 512 l 1
 0 384 l 1
128 384 m 1
 256 384 l 1
 256 512 l 1
 128 512 l 1
 128 384 l 1
384 384 m 1
 512 384 l 1
 512 512 l 1
 384 512 l 1
 384 384 l 1
512 384 m 1
 640 384 l 1
 640 512 l 1
 512 512 l 1
 512 384 l 1
768 384 m 1
 896 384 l 1
 896 512 l 1
 768 512 l 1
 768 384 l 1
896 384 m 1
 1024 384 l 1
 1024 512 l 1
 896 512 l 1
 896 384 l 1
0 256 m 1
 128 256 l 1
 128 384 l 1
 0 384 l 1
 0 256 l 1
128 256 m 1
 256 256 l 1
 256 384 l 1
 128 384 l 1
 128 256 l 1
384 256 m 1
 512 256 l 1
 512 384 l 1
 384 384 l 1
 384 256 l 1
512 256 m 1
 640 256 l 1
 640 384 l 1
 512 384 l 1
 512 256 l 1
768 256 m 1
 896 256 l 1
 896 384 l 1
 768 384 l 1
 768 256 l 1
896 256 m 1
 1024 256 l 1
 1024 384 l 1
 896 384 l 1
 896 256 l 1
0 128 m 1
 128 128 l 1
 128 256 l 1
 0 256 l 1
 0 128 l 1
128 128 m 1
 256 128 l 1
 256 256 l 1
 128 256 l 1
 128 128 l 1
384 128 m 1
 512 128 l 1
 512 256 l 1
 384 256 l 1
 384 128 l 1
512 128 m 1
 640 128 l 1
 640 256 l 1
 512 256 l 1
 512 128 l 1
768 128 m 1
 896 128 l 1
 896 256 l 1
 768 256 l 1
 768 128 l 1
896 128 m 1
 1024 128 l 1
 1024 256 l 1
 896 256 l 1
 896 128 l 1
0 0 m 1
 128 0 l 1
 128 128 l 1
 0 128 l 1
 0 0 l 1
128 0 m 1
 256 0 l 1
 256 128 l 1
 128 128 l 1
 128 0 l 1
256 0 m 1
 384 0 l 1
 384 128 l 1
 256 128 l 1
 256 0 l 1
384 0 m 1
 512 0 l 1
 512 128 l 1
 384 128 l 1
 384 0 l 1
512 0 m 1
 640 0 l 1
 640 128 l 1
 512 128 l 1
 512 0 l 1
640 0 m 1
 768 0 l 1
 768 128 l 1
 640 128 l 1
 640 0 l 1
768 0 m 1
 896 0 l 1
 896 128 l 1
 768 128 l 1
 768 0 l 1
896 0 m 1
 1024 0 l 1
 1024 128 l 1
 896 128 l 1
 896 0 l 1
EndSplineSet
Validated: 5
EndChar

StartChar: uni0429
Encoding: 1065 1065 123
Width: 1280
Flags: W
LayerCount: 2
Fore
SplineSet
0 768 m 1
 128 768 l 1
 128 896 l 1
 0 896 l 1
 0 768 l 1
128 768 m 1
 256 768 l 1
 256 896 l 1
 128 896 l 1
 128 768 l 1
384 768 m 1
 512 768 l 1
 512 896 l 1
 384 896 l 1
 384 768 l 1
512 768 m 1
 640 768 l 1
 640 896 l 1
 512 896 l 1
 512 768 l 1
768 768 m 1
 896 768 l 1
 896 896 l 1
 768 896 l 1
 768 768 l 1
896 768 m 1
 1024 768 l 1
 1024 896 l 1
 896 896 l 1
 896 768 l 1
0 640 m 1
 128 640 l 1
 128 768 l 1
 0 768 l 1
 0 640 l 1
128 640 m 1
 256 640 l 1
 256 768 l 1
 128 768 l 1
 128 640 l 1
384 640 m 1
 512 640 l 1
 512 768 l 1
 384 768 l 1
 384 640 l 1
512 640 m 1
 640 640 l 1
 640 768 l 1
 512 768 l 1
 512 640 l 1
768 640 m 1
 896 640 l 1
 896 768 l 1
 768 768 l 1
 768 640 l 1
896 640 m 1
 1024 640 l 1
 1024 768 l 1
 896 768 l 1
 896 640 l 1
0 512 m 1
 128 512 l 1
 128 640 l 1
 0 640 l 1
 0 512 l 1
128 512 m 1
 256 512 l 1
 256 640 l 1
 128 640 l 1
 128 512 l 1
384 512 m 1
 512 512 l 1
 512 640 l 1
 384 640 l 1
 384 512 l 1
512 512 m 1
 640 512 l 1
 640 640 l 1
 512 640 l 1
 512 512 l 1
768 512 m 1
 896 512 l 1
 896 640 l 1
 768 640 l 1
 768 512 l 1
896 512 m 1
 1024 512 l 1
 1024 640 l 1
 896 640 l 1
 896 512 l 1
0 384 m 1
 128 384 l 1
 128 512 l 1
 0 512 l 1
 0 384 l 1
128 384 m 1
 256 384 l 1
 256 512 l 1
 128 512 l 1
 128 384 l 1
384 384 m 1
 512 384 l 1
 512 512 l 1
 384 512 l 1
 384 384 l 1
512 384 m 1
 640 384 l 1
 640 512 l 1
 512 512 l 1
 512 384 l 1
768 384 m 1
 896 384 l 1
 896 512 l 1
 768 512 l 1
 768 384 l 1
896 384 m 1
 1024 384 l 1
 1024 512 l 1
 896 512 l 1
 896 384 l 1
0 256 m 1
 128 256 l 1
 128 384 l 1
 0 384 l 1
 0 256 l 1
128 256 m 1
 256 256 l 1
 256 384 l 1
 128 384 l 1
 128 256 l 1
384 256 m 1
 512 256 l 1
 512 384 l 1
 384 384 l 1
 384 256 l 1
512 256 m 1
 640 256 l 1
 640 384 l 1
 512 384 l 1
 512 256 l 1
768 256 m 1
 896 256 l 1
 896 384 l 1
 768 384 l 1
 768 256 l 1
896 256 m 1
 1024 256 l 1
 1024 384 l 1
 896 384 l 1
 896 256 l 1
0 128 m 1
 128 128 l 1
 128 256 l 1
 0 256 l 1
 0 128 l 1
128 128 m 1
 256 128 l 1
 256 256 l 1
 128 256 l 1
 128 128 l 1
384 128 m 1
 512 128 l 1
 512 256 l 1
 384 256 l 1
 384 128 l 1
512 128 m 1
 640 128 l 1
 640 256 l 1
 512 256 l 1
 512 128 l 1
768 128 m 1
 896 128 l 1
 896 256 l 1
 768 256 l 1
 768 128 l 1
896 128 m 1
 1024 128 l 1
 1024 256 l 1
 896 256 l 1
 896 128 l 1
0 0 m 1
 128 0 l 1
 128 128 l 1
 0 128 l 1
 0 0 l 1
128 0 m 1
 256 0 l 1
 256 128 l 1
 128 128 l 1
 128 0 l 1
256 0 m 1
 384 0 l 1
 384 128 l 1
 256 128 l 1
 256 0 l 1
384 0 m 1
 512 0 l 1
 512 128 l 1
 384 128 l 1
 384 0 l 1
512 0 m 1
 640 0 l 1
 640 128 l 1
 512 128 l 1
 512 0 l 1
640 0 m 1
 768 0 l 1
 768 128 l 1
 640 128 l 1
 640 0 l 1
768 0 m 1
 896 0 l 1
 896 128 l 1
 768 128 l 1
 768 0 l 1
896 0 m 1
 1024 0 l 1
 1024 128 l 1
 896 128 l 1
 896 0 l 1
1024 0 m 1
 1152 0 l 1
 1152 128 l 1
 1024 128 l 1
 1024 0 l 1
896 -128 m 1
 1024 -128 l 1
 1024 0 l 1
 896 0 l 1
 896 -128 l 1
1024 -128 m 1
 1152 -128 l 1
 1152 0 l 1
 1024 0 l 1
 1024 -128 l 1
EndSplineSet
Validated: 5
EndChar

StartChar: uni042A
Encoding: 1066 1066 124
Width: 1152
Flags: W
LayerCount: 2
Fore
SplineSet
0 768 m 1
 128 768 l 1
 128 896 l 1
 0 896 l 1
 0 768 l 1
128 768 m 1
 256 768 l 1
 256 896 l 1
 128 896 l 1
 128 768 l 1
256 768 m 1
 384 768 l 1
 384 896 l 1
 256 896 l 1
 256 768 l 1
384 768 m 1
 512 768 l 1
 512 896 l 1
 384 896 l 1
 384 768 l 1
256 640 m 1
 384 640 l 1
 384 768 l 1
 256 768 l 1
 256 640 l 1
384 640 m 1
 512 640 l 1
 512 768 l 1
 384 768 l 1
 384 640 l 1
256 512 m 1
 384 512 l 1
 384 640 l 1
 256 640 l 1
 256 512 l 1
384 512 m 1
 512 512 l 1
 512 640 l 1
 384 640 l 1
 384 512 l 1
256 384 m 1
 384 384 l 1
 384 512 l 1
 256 512 l 1
 256 384 l 1
384 384 m 1
 512 384 l 1
 512 512 l 1
 384 512 l 1
 384 384 l 1
512 384 m 1
 640 384 l 1
 640 512 l 1
 512 512 l 1
 512 384 l 1
640 384 m 1
 768 384 l 1
 768 512 l 1
 640 512 l 1
 640 384 l 1
768 384 m 1
 896 384 l 1
 896 512 l 1
 768 512 l 1
 768 384 l 1
256 256 m 1
 384 256 l 1
 384 384 l 1
 256 384 l 1
 256 256 l 1
384 256 m 1
 512 256 l 1
 512 384 l 1
 384 384 l 1
 384 256 l 1
768 256 m 1
 896 256 l 1
 896 384 l 1
 768 384 l 1
 768 256 l 1
896 256 m 1
 1024 256 l 1
 1024 384 l 1
 896 384 l 1
 896 256 l 1
256 128 m 1
 384 128 l 1
 384 256 l 1
 256 256 l 1
 256 128 l 1
384 128 m 1
 512 128 l 1
 512 256 l 1
 384 256 l 1
 384 128 l 1
768 128 m 1
 896 128 l 1
 896 256 l 1
 768 256 l 1
 768 128 l 1
896 128 m 1
 1024 128 l 1
 1024 256 l 1
 896 256 l 1
 896 128 l 1
256 0 m 1
 384 0 l 1
 384 128 l 1
 256 128 l 1
 256 0 l 1
384 0 m 1
 512 0 l 1
 512 128 l 1
 384 128 l 1
 384 0 l 1
512 0 m 1
 640 0 l 1
 640 128 l 1
 512 128 l 1
 512 0 l 1
640 0 m 1
 768 0 l 1
 768 128 l 1
 640 128 l 1
 640 0 l 1
768 0 m 1
 896 0 l 1
 896 128 l 1
 768 128 l 1
 768 0 l 1
EndSplineSet
Validated: 5
EndChar

